SplineFontDB: 3.0
FontName: RohingyaKunaLeykaNoories
FullName: Rohingya Kuna Leyka Noories
FamilyName: Rohingya Kuna Leyka Noories
Weight: Medium

StartChar: .notdef
Encoding: 65536 -1 0
Width: 896
Flags: W
LayerCount: 2
Fore
SplineSet
0 0 m 1,0,-1
 0 1450 l 1,1,-1
 768 1450 l 1,2,-1
 768 0 l 1,3,-1
 0 0 l 1,0,-1
128 128 m 1,4,-1
 640 128 l 1,5,-1
 640 1322 l 1,6,-1
 128 1322 l 1,7,-1
 128 128 l 1,4,-1
EndSplineSet
Validated: 1
EndChar

StartChar: exclam
Encoding: 33 33 4
Width: 569
Flags: W
LayerCount: 2
Fore
SplineSet
375 989 m 0,0,1
 375 920 375 920 342 734 c 0,2,3
 308 544 308 544 307 416 c 2,4,-1
 306 301 l 1,5,-1
 265 301 l 1,6,-1
 264 418 l 2,7,8
 263 547 263 547 230 737 c 0,9,10
 197 924 197 924 197 987 c 0,11,12
 197 1143 197 1143 287 1143 c 0,13,14
 375 1143 375 1143 375 989 c 0,0,1
379 139 m 0,15,16
 379 104 379 104 352.5 78.5 c 128,-1,17
 326 53 326 53 289 53 c 0,18,19
 253 53 253 53 227.5 78 c 128,-1,20
 202 103 202 103 201 139 c 0,21,22
 200 177 200 177 226 204 c 128,-1,23
 252 231 252 231 289 231 c 256,24,25
 326 231 326 231 352.5 204 c 128,-1,26
 379 177 379 177 379 139 c 0,15,16
EndSplineSet
Validated: 33
EndChar

StartChar: quotedbl
Encoding: 34 34 5
Width: 569
Flags: W
LayerCount: 2
Fore
SplineSet
452 1273 m 0,0,1
 452 1220 452 1220 437.5 1109.5 c 128,-1,2
 423 999 423 999 423 899 c 1,3,-1
 381 899 l 1,4,5
 381 999 381 999 367 1109 c 128,-1,6
 353 1219 353 1219 353 1273 c 0,7,8
 353 1341 353 1341 402 1341 c 0,9,10
 452 1341 452 1341 452 1273 c 0,0,1
218 1273 m 0,11,12
 218 1220 218 1220 203.5 1109.5 c 128,-1,13
 189 999 189 999 189 899 c 1,14,-1
 147 899 l 1,15,16
 147 999 147 999 133 1109 c 128,-1,17
 119 1219 119 1219 119 1273 c 0,18,19
 119 1341 119 1341 168 1341 c 0,20,21
 218 1341 218 1341 218 1273 c 0,11,12
EndSplineSet
Validated: 1
EndChar

StartChar: numbersign
Encoding: 35 35 6
Width: 1368
Flags: W
LayerCount: 2
Fore
SplineSet
1272 498 m 1,0,-1
 940 498 l 1,1,-1
 852 82 l 1,2,-1
 764 82 l 1,3,-1
 852 498 l 1,4,-1
 395 498 l 1,5,-1
 307 82 l 1,6,-1
 219 82 l 1,7,-1
 307 498 l 1,8,-1
 94 498 l 1,9,-1
 94 586 l 1,10,-1
 326 586 l 1,11,-1
 410 991 l 1,12,-1
 94 991 l 1,13,-1
 94 1079 l 1,14,-1
 430 1079 l 1,15,-1
 516 1495 l 1,16,-1
 604 1495 l 1,17,-1
 518 1079 l 1,18,-1
 971 1079 l 1,19,-1
 1059 1495 l 1,20,-1
 1147 1495 l 1,21,-1
 1059 1079 l 1,22,-1
 1272 1079 l 1,23,-1
 1272 991 l 1,24,-1
 1040 991 l 1,25,-1
 956 586 l 1,26,-1
 1272 586 l 1,27,-1
 1272 498 l 1,0,-1
952 991 m 1,28,-1
 498 991 l 1,29,-1
 414 586 l 1,30,-1
 868 586 l 1,31,-1
 952 991 l 1,28,-1
EndSplineSet
Validated: 1
EndChar

StartChar: dollar
Encoding: 36 36 7
Width: 938
Flags: W
LayerCount: 2
Fore
SplineSet
856 432 m 0,0,1
 856 193 856 193 565 117 c 1,2,-1
 565 -80 l 1,3,-1
 512 -80 l 1,4,-1
 512 102 l 1,5,6
 484 99 484 99 455 99 c 0,7,8
 416 99 416 99 375 104 c 1,9,-1
 375 -80 l 1,10,-1
 322 -80 l 1,11,-1
 322 117 l 1,12,13
 228 137 228 137 150 191 c 0,14,15
 53 258 53 258 53 340 c 0,16,17
 53 367 53 367 73.5 388.5 c 128,-1,18
 94 410 94 410 121 410 c 0,19,20
 172 410 172 410 209 312 c 0,21,22
 248 206 248 206 322 172 c 1,23,-1
 322 756 l 1,24,25
 90 900 90 900 90 1063 c 0,26,27
 90 1160 90 1160 160 1235 c 0,28,29
 223 1303 223 1303 322 1331 c 1,30,-1
 322 1464 l 1,31,-1
 375 1464 l 1,32,-1
 375 1337 l 1,33,34
 410 1342 410 1342 444 1342 c 256,35,36
 478 1342 478 1342 512 1337 c 1,37,-1
 512 1464 l 1,38,-1
 565 1464 l 1,39,-1
 565 1331 l 1,40,41
 718 1288 718 1288 777 1219 c 0,42,43
 805 1185 805 1185 805 1151 c 0,44,45
 805 1087 805 1087 745 1087 c 0,46,47
 714 1087 714 1087 688 1116 c 1,48,-1
 648 1172 l 2,49,50
 606 1229 606 1229 565 1264 c 1,51,-1
 565 791 l 1,52,53
 784 657 784 657 832 555 c 0,54,55
 856 502 856 502 856 432 c 0,0,1
512 815 m 1,56,-1
 512 1282 l 1,57,58
 484 1299 484 1299 428 1299 c 0,59,60
 404 1299 404 1299 375 1296 c 1,61,-1
 375 911 l 1,62,-1
 512 815 l 1,56,-1
322 946 m 1,63,-1
 322 1288 l 1,64,65
 203 1248 203 1248 203 1135 c 0,66,67
 203 1032 203 1032 322 946 c 1,63,-1
733 383 m 0,68,69
 733 465 733 465 671 525 c 0,70,71
 638 557 638 557 565 608 c 1,72,-1
 565 158 l 1,73,74
 733 230 733 230 733 383 c 0,68,69
512 143 m 1,75,-1
 512 635 l 1,76,-1
 375 729 l 1,77,-1
 375 158 l 1,78,79
 411 142 411 142 474 142 c 0,80,81
 492 142 492 142 512 143 c 1,75,-1
EndSplineSet
Validated: 1
EndChar

StartChar: percent
Encoding: 37 37 8
Width: 1473
Flags: W
LayerCount: 2
Fore
SplineSet
1425 461 m 0,0,1
 1425 258 1425 258 1294 161 c 0,2,3
 1233 115 1233 115 1161 115 c 0,4,5
 1009 115 1009 115 934 286 c 0,6,7
 899 366 899 366 899 461 c 0,8,9
 899 662 899 662 1030 761 c 0,10,11
 1090 807 1090 807 1161 807 c 0,12,13
 1315 807 1315 807 1390 635 c 0,14,15
 1425 555 1425 555 1425 461 c 0,0,1
1274 1468 m 1,16,-1
 281 74 l 1,17,-1
 195 74 l 1,18,-1
 1190 1468 l 1,19,-1
 1274 1468 l 1,16,-1
573 1087 m 0,20,21
 573 886 573 886 442 787 c 0,22,23
 381 741 381 741 309 741 c 0,24,25
 157 741 157 741 82 913 c 0,26,27
 47 993 47 993 47 1087 c 0,28,29
 47 1289 47 1289 178 1388 c 0,30,31
 238 1434 238 1434 309 1434 c 0,32,33
 463 1434 463 1434 538 1262 c 0,34,35
 573 1182 573 1182 573 1087 c 0,20,21
1311 461 m 0,36,37
 1311 776 1311 776 1161 776 c 0,38,39
 1014 776 1014 776 1014 461 c 0,40,41
 1014 145 1014 145 1161 145 c 0,42,43
 1311 145 1311 145 1311 461 c 0,36,37
459 1087 m 0,44,45
 459 1403 459 1403 309 1403 c 0,46,47
 162 1403 162 1403 162 1087 c 0,48,49
 162 772 162 772 309 772 c 0,50,51
 459 772 459 772 459 1087 c 0,44,45
EndSplineSet
Validated: 1
EndChar

StartChar: ampersand
Encoding: 38 38 9
Width: 1493
Flags: W
LayerCount: 2
Fore
SplineSet
1466 948 m 1,0,1
 1331 948 1331 948 1292 909 c 0,2,3
 1258 875 1258 875 1197 774 c 0,4,5
 1111 630 1111 630 1108 626 c 0,6,7
 1059 553 1059 553 985 467 c 1,8,9
 1029 392 1029 392 1121 244 c 0,10,11
 1171 170 1171 170 1231 170 c 0,12,13
 1292 170 1292 170 1391 240 c 1,14,-1
 1409 207 l 1,15,16
 1274 100 1274 100 1157 100 c 0,17,18
 1043 100 1043 100 978 193 c 0,19,20
 942 244 942 244 883 354 c 1,21,22
 731 192 731 192 568 130 c 0,23,24
 489 100 489 100 416 100 c 0,25,26
 274 100 274 100 179 198 c 128,-1,27
 84 296 84 296 84 438 c 0,28,29
 84 605 84 605 234 711 c 0,30,31
 313 767 313 767 442 819 c 1,32,33
 297 944 297 944 297 1085 c 0,34,35
 297 1200 297 1200 381 1264 c 0,36,37
 456 1323 456 1323 575 1323 c 0,38,39
 732 1323 732 1323 803 1228 c 0,40,41
 836 1182 836 1182 836 1124 c 0,42,43
 836 978 836 978 604 864 c 1,44,45
 815 721 815 721 961 502 c 1,46,47
 1217 827 1217 827 1217 907 c 0,48,49
 1217 948 1217 948 1104 948 c 1,50,-1
 1104 985 l 1,51,-1
 1466 985 l 1,52,-1
 1466 948 l 1,0,1
711 1110 m 0,53,54
 711 1184 711 1184 674 1231 c 0,55,56
 633 1282 633 1282 561 1282 c 0,57,58
 426 1282 426 1282 426 1135 c 0,59,60
 426 1003 426 1003 578 889 c 1,61,62
 711 968 711 968 711 1110 c 0,53,54
860 389 m 1,63,64
 721 623 721 623 471 795 c 1,65,66
 252 644 252 644 252 463 c 0,67,68
 252 348 252 348 319 275.5 c 128,-1,69
 386 203 386 203 500 203 c 0,70,71
 593 203 593 203 698 260 c 0,72,73
 797 313 797 313 860 389 c 1,63,64
EndSplineSet
Validated: 1
EndChar

StartChar: quotesingle
Encoding: 39 39 10
Width: 915
Flags: W
LayerCount: 2
Fore
SplineSet
895 2080 m 1,0,-1
 695 1880 l 1,1,-1
 220 1905 l 1,2,-1
 195 1830 l 1,3,4
 70 1705 70 1705 -5 1580 c 1,5,6
 395 1730 395 1730 745 1705 c 1,7,8
 870 1905 870 1905 920 2080 c 1,9,-1
 895 2080 l 1,0,-1
EndSplineSet
Validated: 41
EndChar

StartChar: parenleft
Encoding: 40 40 11
Width: 569
Flags: W
LayerCount: 2
Fore
SplineSet
526 891 m 1,0,1
 215 577 215 577 215 258 c 0,2,3
 215 110 215 110 289 -53 c 0,4,5
 354 -195 354 -195 522 -387 c 1,6,-1
 514 -399 l 1,7,8
 353 -297 353 -297 268 -201 c 0,9,10
 84 6 84 6 84 262 c 0,11,12
 84 498 84 498 256 694 c 0,13,14
 345 796 345 796 510 903 c 1,15,-1
 526 891 l 1,0,1
EndSplineSet
Validated: 1
EndChar

StartChar: parenright
Encoding: 41 41 12
Width: 569
Flags: W
LayerCount: 2
Fore
SplineSet
492 262 m 0,0,1
 492 8 492 8 305 -201 c 0,2,3
 220 -297 220 -297 61 -399 c 1,4,-1
 49 -387 l 1,5,6
 107 -324 107 -324 152 -268 c 0,7,8
 360 -9 360 -9 360 258 c 0,9,10
 360 574 360 574 49 891 c 1,11,-1
 66 903 l 1,12,13
 234 790 234 790 317 694 c 0,14,15
 492 492 492 492 492 262 c 0,0,1
EndSplineSet
Validated: 1
EndChar

StartChar: asterisk
Encoding: 42 42 13
Width: 680
Flags: W
LayerCount: 2
Fore
SplineSet
649 1104 m 0,0,1
 649 1059 649 1059 590 1059 c 0,2,3
 575 1059 575 1059 496 1074 c 2,4,-1
 412 1090 l 1,5,-1
 403 1061 l 1,6,-1
 467 1016 l 2,7,8
 501 995 501 995 547 957 c 0,9,10
 569 934 569 934 569 913 c 0,11,12
 569 898 569 898 557 883 c 1,13,14
 523 856 523 856 485 894 c 0,15,16
 477 902 477 902 428 973 c 2,17,-1
 381 1041 l 1,18,19
 372 1036 372 1036 354 1029 c 1,20,-1
 369 949 l 2,21,22
 385 864 385 864 385 853 c 0,23,24
 385 795 385 795 338 795 c 0,25,26
 295 795 295 795 295 851 c 0,27,28
 295 882 295 882 311 949 c 2,29,-1
 330 1029 l 1,30,31
 309 1033 309 1033 301 1041 c 1,32,-1
 252 973 l 2,33,34
 230 940 230 940 195 894 c 1,35,36
 171 871 171 871 150 871 c 0,37,38
 135 871 135 871 121.5 884.5 c 128,-1,39
 108 898 108 898 108 914 c 0,40,41
 108 934 108 934 129 955 c 0,42,43
 137 963 137 963 209 1012 c 2,44,-1
 281 1061 l 1,45,46
 270 1076 270 1076 268 1090 c 1,47,-1
 188 1074 l 2,48,49
 113 1059 113 1059 92 1059 c 0,50,51
 35 1059 35 1059 35 1104 c 0,52,53
 35 1148 35 1148 90 1148 c 0,54,55
 121 1148 121 1148 188 1133 c 2,56,-1
 268 1115 l 1,57,58
 273 1134 273 1134 281 1141 c 1,59,-1
 209 1191 l 2,60,61
 178 1211 178 1211 129 1250 c 1,62,63
 92 1287 92 1287 121 1320 c 0,64,65
 136 1333 136 1333 151 1333 c 0,66,67
 171 1333 171 1333 195 1311 c 1,68,-1
 252 1231 l 1,69,-1
 299 1164 l 1,70,71
 308 1168 308 1168 330 1176 c 1,72,-1
 311 1256 l 2,73,74
 295 1323 295 1323 295 1354 c 0,75,76
 295 1410 295 1410 338 1410 c 0,77,78
 385 1410 385 1410 385 1350 c 1,79,-1
 369 1256 l 1,80,-1
 354 1172 l 1,81,82
 349 1172 349 1172 381 1164 c 1,83,-1
 428 1231 l 2,84,85
 448 1262 448 1262 485 1311 c 1,86,87
 522 1348 522 1348 557 1320 c 1,88,89
 569 1305 569 1305 569 1289 c 0,90,91
 569 1268 569 1268 547 1246 c 0,92,93
 542 1240 542 1240 467 1188 c 2,94,-1
 399 1141 l 1,95,96
 408 1130 408 1130 416 1115 c 1,97,-1
 496 1133 l 2,98,99
 563 1148 563 1148 594 1148 c 0,100,101
 649 1148 649 1148 649 1104 c 0,0,1
379 1102 m 0,102,103
 379 1139 379 1139 342 1139 c 256,104,105
 305 1139 305 1139 305 1102 c 0,106,107
 305 1066 305 1066 342 1066 c 256,108,109
 379 1066 379 1066 379 1102 c 0,102,103
348 791 m 1024,110,-1
EndSplineSet
Validated: 33
EndChar

StartChar: plus
Encoding: 43 43 14
Width: 946
Flags: W
LayerCount: 2
Fore
SplineSet
835 452 m 1,0,-1
 514 452 l 1,1,-1
 514 129 l 1,2,-1
 430 129 l 1,3,-1
 430 452 l 1,4,-1
 105 452 l 1,5,-1
 105 535 l 1,6,-1
 430 535 l 1,7,-1
 430 863 l 1,8,-1
 514 863 l 1,9,-1
 514 535 l 1,10,-1
 835 535 l 1,11,-1
 835 452 l 1,0,-1
EndSplineSet
Validated: 1
EndChar

StartChar: comma
Encoding: 44 44 15
Width: 569
Flags: W
LayerCount: 2
Fore
SplineSet
379 90 m 0,0,1
 379 -76 379 -76 195 -235 c 1,2,-1
 164 -202 l 1,3,4
 296 -83 296 -83 296 19 c 2,5,-1
 296 30 l 1,6,-1
 295 41 l 1,7,8
 172 41 172 41 172 142 c 0,9,10
 172 181 172 181 200 207.5 c 128,-1,11
 228 234 228 234 268 234 c 0,12,13
 316 234 316 234 347.5 194 c 128,-1,14
 379 154 379 154 379 90 c 0,0,1
EndSplineSet
Validated: 1
EndChar

StartChar: hyphenminus
Encoding: 45 45 16
Width: 946
Flags: W
LayerCount: 2
Fore
SplineSet
835 452 m 1,0,-1
 105 452 l 1,1,-1
 105 535 l 1,2,-1
 835 535 l 1,3,-1
 835 452 l 1,0,-1
EndSplineSet
Validated: 1
EndChar

StartChar: period
Encoding: 46 46 17
Width: 569
Flags: W
LayerCount: 2
Fore
SplineSet
375 141 m 256,0,1
 375 104 375 104 349.5 78.5 c 128,-1,2
 324 53 324 53 289 53 c 0,3,4
 252 53 252 53 226.5 78.5 c 128,-1,5
 201 104 201 104 201 141 c 256,6,7
 201 178 201 178 225 204.5 c 128,-1,8
 249 231 249 231 283 231 c 0,9,10
 322 231 322 231 348.5 204.5 c 128,-1,11
 375 178 375 178 375 141 c 256,0,1
EndSplineSet
Validated: 1
EndChar

StartChar: slash
Encoding: 47 47 18
Width: 569
Flags: W
LayerCount: 2
Fore
SplineSet
508 1425 m 1,0,-1
 129 -139 l 1,1,-1
 66 -139 l 1,2,-1
 442 1425 l 1,3,-1
 508 1425 l 1,0,-1
EndSplineSet
Validated: 1
EndChar

StartChar: zero
Encoding: 48 48 19
Width: 1004
Flags: W
LayerCount: 2
Fore
SplineSet
928 766 m 0,0,1
 928 378 928 378 714 188 c 0,2,3
 615 100 615 100 502 100 c 0,4,5
 378 100 378 100 274 204 c 0,6,7
 188 290 188 290 136 422 c 0,8,9
 75 576 75 576 75 766 c 0,10,11
 75 1156 75 1156 291 1347 c 0,12,13
 390 1434 390 1434 502 1434 c 0,14,15
 680 1434 680 1434 804 1235.5 c 128,-1,16
 928 1037 928 1037 928 766 c 0,0,1
774 766 m 0,17,18
 774 1026 774 1026 743 1152 c 0,19,20
 683 1395 683 1395 502 1395 c 0,21,22
 306 1395 306 1395 254 1101 c 0,23,24
 229 960 229 960 229 766 c 0,25,26
 229 513 229 513 262 383 c 0,27,28
 324 139 324 139 502 139 c 0,29,30
 703 139 703 139 751 427 c 0,31,32
 774 565 774 565 774 766 c 0,17,18
EndSplineSet
Validated: 1
EndChar

StartChar: one
Encoding: 49 49 20
Width: 1004
Flags: W
LayerCount: 2
Fore
SplineSet
782 129 m 1,0,-1
 266 129 l 1,1,-1
 266 168 l 1,2,-1
 377 168 l 2,3,4
 424 168 424 168 439.5 184.5 c 128,-1,5
 455 201 455 201 455 248 c 2,6,-1
 455 1270 l 1,7,8
 342 1171 342 1171 199 1102 c 1,9,-1
 182 1130 l 1,10,11
 260 1182 260 1182 363 1271 c 0,12,13
 478 1372 478 1372 520 1434 c 1,14,-1
 592 1434 l 1,15,-1
 592 246 l 2,16,17
 592 199 592 199 607 183.5 c 128,-1,18
 622 168 622 168 668 168 c 2,19,-1
 782 168 l 1,20,-1
 782 129 l 1,0,-1
EndSplineSet
Validated: 1
EndChar

StartChar: two
Encoding: 50 50 21
Width: 1004
Flags: W
LayerCount: 2
Fore
SplineSet
920 416 m 1,0,-1
 881 129 l 1,1,-1
 61 129 l 1,2,-1
 61 162 l 1,3,4
 142 265 142 265 285 407 c 0,5,6
 499 619 499 619 521 643 c 0,7,8
 713 846 713 846 713 1042 c 0,9,10
 713 1201 713 1201 580 1281 c 0,11,12
 518 1317 518 1317 442 1317 c 0,13,14
 327 1317 327 1317 237 1233 c 0,15,16
 155 1157 155 1157 121 1040 c 1,17,-1
 88 1040 l 1,18,19
 108 1218 108 1218 222 1326 c 128,-1,20
 336 1434 336 1434 502 1434 c 0,21,22
 724 1434 724 1434 830 1257 c 0,23,24
 879 1173 879 1173 879 1071 c 0,25,26
 879 893 879 893 731 743 c 1,27,-1
 540 582 l 2,28,29
 369 439 369 439 193 256 c 1,30,-1
 731 256 l 2,31,32
 830 256 830 256 856 313 c 0,33,34
 870 343 870 343 887 416 c 1,35,-1
 920 416 l 1,0,-1
EndSplineSet
Validated: 1
EndChar

StartChar: three
Encoding: 51 51 22
Width: 1004
Flags: W
LayerCount: 2
Fore
SplineSet
897 580 m 0,0,1
 897 452 897 452 821 338 c 0,2,3
 750 231 750 231 633 167 c 0,4,5
 513 100 513 100 379 100 c 0,6,7
 204 100 204 100 112 174 c 0,8,9
 70 207 70 207 70 246 c 0,10,11
 70 272 70 272 88.5 293.5 c 128,-1,12
 107 315 107 315 133 315 c 0,13,14
 164 315 164 315 243 258 c 2,15,-1
 353 178 l 2,16,17
 388 156 388 156 449 156 c 0,18,19
 615 156 615 156 703 342 c 0,20,21
 743 427 743 427 743 526 c 0,22,23
 743 635 743 635 687 717 c 0,24,25
 624 811 624 811 520 811 c 0,26,27
 447 811 447 811 377 756 c 1,28,-1
 358 784 l 1,29,30
 461 871 461 871 491 900 c 0,31,32
 569 973 569 973 605 1034 c 0,33,34
 637 1087 637 1087 637 1141 c 0,35,36
 637 1222 637 1222 578 1275.5 c 128,-1,37
 519 1329 519 1329 438 1329 c 0,38,39
 353 1329 353 1329 275 1267 c 0,40,41
 206 1212 206 1212 166 1128 c 1,42,-1
 129 1143 l 1,43,44
 200 1325 200 1325 353 1399 c 0,45,46
 426 1434 426 1434 508 1434 c 0,47,48
 666 1434 666 1434 740 1321 c 0,49,50
 774 1268 774 1268 774 1206 c 0,51,52
 774 1041 774 1041 563 917 c 1,53,-1
 567 913 l 1,54,55
 582 915 582 915 597 915 c 0,56,57
 769 915 769 915 854 753 c 0,58,59
 897 671 897 671 897 580 c 0,0,1
EndSplineSet
Validated: 1
EndChar

StartChar: four
Encoding: 52 52 23
Width: 1004
Flags: W
LayerCount: 2
Fore
SplineSet
938 502 m 1,0,-1
 733 502 l 1,1,-1
 733 100 l 1,2,-1
 596 100 l 1,3,-1
 596 502 l 1,4,-1
 72 502 l 1,5,-1
 72 549 l 1,6,-1
 676 1434 l 1,7,-1
 733 1434 l 1,8,-1
 733 604 l 1,9,-1
 938 604 l 1,10,-1
 938 502 l 1,0,-1
596 604 m 1,11,-1
 592 1239 l 1,12,-1
 168 604 l 1,13,-1
 596 604 l 1,11,-1
EndSplineSet
Validated: 1
EndChar

StartChar: five
Encoding: 53 53 24
Width: 1004
Flags: W
LayerCount: 2
Fore
SplineSet
877 537 m 0,0,1
 877 281 877 281 641 158 c 0,2,3
 530 100 530 100 395 100 c 0,4,5
 306 100 306 100 219 125 c 0,6,7
 96 161 96 161 96 229 c 0,8,9
 96 293 96 293 164 293 c 0,10,11
 216 293 216 293 294 224 c 0,12,13
 376 149 376 149 442 149 c 0,14,15
 601 149 601 149 685 323 c 0,16,17
 723 402 723 402 723 494 c 0,18,19
 723 637 723 637 636 728 c 128,-1,20
 549 819 549 819 418 819 c 0,21,22
 298 819 298 819 201 743 c 1,23,-1
 180 758 l 1,24,-1
 209 1407 l 1,25,-1
 694 1407 l 2,26,27
 739 1407 739 1407 754 1434 c 1,28,-1
 793 1434 l 1,29,-1
 770 1274 l 1,30,-1
 252 1274 l 1,31,-1
 236 905 l 1,32,33
 328 956 328 956 457 956 c 0,34,35
 631 956 631 956 753 833 c 0,36,37
 877 707 877 707 877 537 c 0,0,1
EndSplineSet
Validated: 1
EndChar

StartChar: six
Encoding: 54 54 25
Width: 1004
Flags: W
LayerCount: 2
Fore
SplineSet
920 514 m 0,0,1
 920 279 920 279 720 157 c 0,2,3
 627 100 627 100 520 100 c 0,4,5
 376 100 376 100 268 192 c 0,6,7
 168 277 168 277 123 419 c 0,8,9
 92 516 92 516 92 633 c 0,10,11
 92 934 92 934 293 1152 c 0,12,13
 476 1349 476 1349 778 1434 c 1,14,-1
 801 1403 l 1,15,16
 482 1274 482 1274 354 1039 c 0,17,18
 289 921 289 921 266 772 c 1,19,20
 421 891 421 891 557 891 c 0,21,22
 765 891 765 891 871 703 c 0,23,24
 920 615 920 615 920 514 c 0,0,1
766 496 m 0,25,26
 766 631 766 631 715 725 c 0,27,28
 651 842 651 842 526 842 c 0,29,30
 410 842 410 842 256 719 c 1,31,32
 246 671 246 671 246 592 c 0,33,34
 246 419 246 419 299 298 c 0,35,36
 371 135 371 135 524 135 c 0,37,38
 654 135 654 135 717 258 c 0,39,40
 766 353 766 353 766 496 c 0,25,26
EndSplineSet
Validated: 1
EndChar

StartChar: seven
Encoding: 55 55 26
Width: 1004
Flags: W
LayerCount: 2
Fore
SplineSet
901 1360 m 1,0,-1
 401 100 l 1,1,-1
 289 100 l 1,2,-1
 784 1270 l 1,3,-1
 221 1270 l 2,4,5
 158 1270 158 1270 135 1242 c 0,6,7
 117 1220 117 1220 109 1151 c 1,8,-1
 76 1151 l 1,9,-1
 90 1403 l 1,10,-1
 901 1403 l 1,11,-1
 901 1360 l 1,0,-1
EndSplineSet
Validated: 1
EndChar

StartChar: eight
Encoding: 56 56 27
Width: 1004
Flags: W
LayerCount: 2
Fore
SplineSet
903 477 m 0,0,1
 903 257 903 257 704 150 c 0,2,3
 611 100 611 100 500 100 c 0,4,5
 270 100 270 100 155 268 c 0,6,7
 102 345 102 345 102 436 c 0,8,9
 102 652 102 652 399 772 c 1,10,11
 119 897 119 897 119 1102 c 0,12,13
 119 1291 119 1291 308 1389 c 0,14,15
 395 1434 395 1434 494 1434 c 0,16,17
 650 1434 650 1434 756 1348.5 c 128,-1,18
 862 1263 862 1263 862 1139 c 0,19,20
 862 945 862 945 596 840 c 1,21,22
 903 703 903 703 903 477 c 0,0,1
739 1141 m 0,23,24
 739 1292 739 1292 619 1364 c 0,25,26
 562 1397 562 1397 492 1397 c 0,27,28
 347 1397 347 1397 274 1283 c 0,29,30
 240 1229 240 1229 240 1165 c 0,31,32
 240 1048 240 1048 365 963 c 0,33,34
 435 915 435 915 567 858 c 1,35,36
 739 966 739 966 739 1141 c 0,23,24
772 420 m 0,37,38
 772 539 772 539 658 630 c 0,39,40
 592 683 592 683 440 752 c 1,41,42
 231 638 231 638 231 440 c 0,43,44
 231 314 231 314 303 228 c 0,45,46
 379 137 379 137 502 137 c 0,47,48
 661 137 661 137 737 277 c 0,49,50
 772 342 772 342 772 420 c 0,37,38
EndSplineSet
Validated: 1
EndChar

StartChar: nine
Encoding: 57 57 28
Width: 1004
Flags: W
LayerCount: 2
Fore
SplineSet
911 901 m 0,0,1
 911 618 911 618 729 404 c 0,2,3
 551 194 551 194 225 100 c 1,4,-1
 203 131 l 1,5,6
 521 259 521 259 650 495 c 0,7,8
 714 613 714 613 737 762 c 1,9,10
 586 643 586 643 446 643 c 0,11,12
 239 643 239 643 133 832 c 0,13,14
 84 919 84 919 84 1020 c 0,15,16
 84 1143 84 1143 151.5 1248 c 128,-1,17
 219 1353 219 1353 331 1402 c 0,18,19
 403 1434 403 1434 483 1434 c 0,20,21
 742 1434 742 1434 857 1178 c 0,22,23
 911 1058 911 1058 911 901 c 0,0,1
758 942 m 0,24,25
 758 1248 758 1248 614 1353 c 0,26,27
 551 1399 551 1399 479 1399 c 0,28,29
 328 1399 328 1399 268 1232 c 0,30,31
 238 1150 238 1150 238 1040 c 0,32,33
 238 906 238 906 290 811 c 0,34,35
 354 692 354 692 477 692 c 0,36,37
 607 692 607 692 748 817 c 1,38,39
 758 862 758 862 758 942 c 0,24,25
EndSplineSet
Validated: 1
EndChar

StartChar: colon
Encoding: 58 58 29
Width: 569
Flags: W
LayerCount: 2
Fore
SplineSet
375 710 m 256,0,1
 375 673 375 673 349.5 647.5 c 128,-1,2
 324 622 324 622 289 622 c 0,3,4
 252 622 252 622 226.5 647.5 c 128,-1,5
 201 673 201 673 201 710 c 256,6,7
 201 747 201 747 225 773.5 c 128,-1,8
 249 800 249 800 283 800 c 0,9,10
 322 800 322 800 348.5 773.5 c 128,-1,11
 375 747 375 747 375 710 c 256,0,1
375 141 m 256,12,13
 375 104 375 104 349.5 78.5 c 128,-1,14
 324 53 324 53 289 53 c 0,15,16
 252 53 252 53 226.5 78.5 c 128,-1,17
 201 104 201 104 201 141 c 256,18,19
 201 178 201 178 225 204.5 c 128,-1,20
 249 231 249 231 283 231 c 0,21,22
 322 231 322 231 348.5 204.5 c 128,-1,23
 375 178 375 178 375 141 c 256,12,13
EndSplineSet
Validated: 1
EndChar

StartChar: semicolon
Encoding: 59 59 30
Width: 532
Flags: W
LayerCount: 2
Fore
SplineSet
377 864 m 256,0,1
 377 821 377 821 346.5 794.5 c 128,-1,2
 316 768 316 768 272 768 c 256,3,4
 228 768 228 768 198 794.5 c 128,-1,5
 168 821 168 821 168 864 c 0,6,7
 168 960 168 960 272 960 c 0,8,9
 316 960 316 960 346.5 933.5 c 128,-1,10
 377 907 377 907 377 864 c 256,0,1
393 127 m 0,11,12
 393 27 393 27 326 -57 c 0,13,14
 263 -136 263 -136 166 -174 c 1,15,-1
 152 -137 l 1,16,17
 309 -46 309 -46 309 68 c 0,18,19
 309 111 309 111 281 111 c 0,20,21
 273 111 273 111 256 107.5 c 128,-1,22
 239 104 239 104 231 104 c 0,23,24
 192 104 192 104 165.5 131 c 128,-1,25
 139 158 139 158 139 197 c 0,26,27
 139 241 139 241 172 269 c 128,-1,28
 205 297 205 297 250 297 c 0,29,30
 316 297 316 297 356 243 c 0,31,32
 393 195 393 195 393 127 c 0,11,12
EndSplineSet
Validated: 1
EndChar

StartChar: less
Encoding: 60 60 31
Width: 1366
Flags: W
LayerCount: 2
Fore
SplineSet
1219 289 m 1,0,-1
 145 743 l 1,1,-1
 145 825 l 1,2,-1
 1219 1280 l 1,3,-1
 1219 1178 l 1,4,-1
 268 784 l 1,5,-1
 1219 391 l 1,6,-1
 1219 289 l 1,0,-1
EndSplineSet
Validated: 1
EndChar

StartChar: equal
Encoding: 61 61 32
Width: 946
Flags: W
LayerCount: 2
Fore
SplineSet
836 539 m 1,0,-1
 105 539 l 1,1,-1
 105 625 l 1,2,-1
 836 625 l 1,3,-1
 836 539 l 1,0,-1
836 362 m 1,4,-1
 105 362 l 1,5,-1
 105 448 l 1,6,-1
 836 448 l 1,7,-1
 836 362 l 1,4,-1
EndSplineSet
Validated: 1
EndChar

StartChar: greater
Encoding: 62 62 33
Width: 1366
Flags: W
LayerCount: 2
Fore
SplineSet
1221 743 m 1,0,-1
 147 289 l 1,1,-1
 147 391 l 1,2,-1
 1098 784 l 1,3,-1
 147 1178 l 1,4,-1
 147 1280 l 1,5,-1
 1221 825 l 1,6,-1
 1221 743 l 1,0,-1
EndSplineSet
Validated: 1
EndChar

StartChar: question
Encoding: 63 63 34
Width: 725
Flags: W
LayerCount: 2
Fore
SplineSet
637 1063 m 0,0,1
 637 839 637 839 463 757 c 2,2,-1
 328 694 l 2,3,4
 268 666 268 666 268 621 c 0,5,6
 268 551 268 551 346 473 c 1,7,-1
 301 473 l 1,8,9
 201 585 201 585 201 684 c 0,10,11
 201 763 201 763 260 809 c 0,12,13
 294 836 294 836 393.5 873.5 c 128,-1,14
 493 911 493 911 532 946 c 0,15,16
 588 998 588 998 588 1087 c 0,17,18
 588 1177 588 1177 527 1226 c 0,19,20
 472 1270 472 1270 379 1270 c 0,21,22
 352 1270 352 1270 299.5 1262.5 c 128,-1,23
 247 1255 247 1255 221 1255 c 0,24,25
 104 1255 104 1255 104 1329 c 0,26,27
 104 1425 104 1425 283 1425 c 0,28,29
 435 1425 435 1425 535 1327 c 0,30,31
 637 1226 637 1226 637 1063 c 0,0,1
422 201 m 0,32,33
 422 157 422 157 392 130.5 c 128,-1,34
 362 104 362 104 317 104 c 0,35,36
 273 104 273 104 243 131 c 128,-1,37
 213 158 213 158 213 201 c 0,38,39
 213 297 213 297 317 297 c 0,40,41
 422 297 422 297 422 201 c 0,32,33
EndSplineSet
Validated: 1
EndChar

StartChar: at
Encoding: 64 64 35
Width: 1878
Flags: W
LayerCount: 2
Fore
SplineSet
1835 301 m 1,0,1
 1783 122 1783 122 1651 -21 c 0,2,3
 1524 -158 1524 -158 1348 -235 c 0,4,5
 1168 -313 1168 -313 969 -313 c 0,6,7
 593 -313 593 -313 344.5 -60.5 c 128,-1,8
 96 192 96 192 96 573 c 0,9,10
 96 983 96 983 372 1269 c 0,11,12
 645 1552 645 1552 1042 1552 c 0,13,14
 1363 1552 1363 1552 1560 1362.5 c 128,-1,15
 1757 1173 1757 1173 1757 866 c 0,16,17
 1757 609 1757 609 1618 398 c 0,18,19
 1462 160 1462 160 1206 160 c 0,20,21
 1053 160 1053 160 1053 297 c 0,22,23
 1053 351 1053 351 1069 440 c 1,24,-1
 1065 444 l 1,25,26
 851 160 851 160 676 160 c 0,27,28
 592 160 592 160 540 236 c 0,29,30
 494 304 494 304 494 391 c 0,31,32
 494 544 494 544 589 716 c 0,33,34
 676 875 676 875 805.5 983.5 c 128,-1,35
 935 1092 935 1092 1044 1092 c 0,36,37
 1112 1092 1112 1092 1160 1056 c 128,-1,38
 1208 1020 1208 1020 1221 954 c 1,39,-1
 1251 1065 l 1,40,-1
 1409 1085 l 1,41,-1
 1231 477 l 2,42,43
 1198 366 1198 366 1198 315 c 0,44,45
 1198 233 1198 233 1276 233 c 0,46,47
 1425 233 1425 233 1558 424 c 0,48,49
 1696 623 1696 623 1696 885 c 0,50,51
 1696 1159 1696 1159 1514.5 1331 c 128,-1,52
 1333 1503 1333 1503 1049 1503 c 0,53,54
 666 1503 666 1503 422 1205 c 0,55,56
 190 923 190 923 190 549 c 0,57,58
 190 327 190 327 283 146 c 0,59,60
 382 -44 382 -44 568 -150 c 0,61,62
 747 -252 747 -252 975 -252 c 0,63,64
 1342 -252 1342 -252 1585 2 c 0,65,66
 1705 128 1705 128 1778 301 c 1,67,-1
 1835 301 l 1,0,1
1182 899 m 0,68,69
 1182 959 1182 959 1150 999 c 0,70,71
 1115 1042 1115 1042 1057 1042 c 0,72,73
 959 1042 959 1042 848 900 c 0,74,75
 769 798 769 798 713 670 c 0,76,77
 647 519 647 519 647 422 c 0,78,79
 647 369 647 369 678 327 c 0,80,81
 712 281 712 281 764 281 c 0,82,83
 897 281 897 281 1039.5 479.5 c 128,-1,84
 1182 678 1182 678 1182 899 c 0,68,69
EndSplineSet
Validated: 1
EndChar

StartChar: glyph36
Encoding: 65 65 36
Width: 1386
Flags: W
LayerCount: 2
Fore
SplineSet
1376 129 m 1,0,-1
 813 129 l 1,1,-1
 813 168 l 1,2,-1
 866 168 l 2,3,4
 940 168 940 168 966 174 c 0,5,6
 1026 188 1026 188 1026 238 c 0,7,8
 1026 263 1026 263 1004 322 c 2,9,-1
 866 694 l 1,10,-1
 442 694 l 1,11,-1
 324 373 l 2,12,13
 283 261 283 261 283 244 c 0,14,15
 283 168 283 168 449 168 c 2,16,-1
 481 168 l 1,17,-1
 481 129 l 1,18,-1
 8 129 l 1,19,-1
 8 168 l 1,20,21
 133 172 133 172 170 235 c 0,22,23
 194 276 194 276 229 371 c 2,24,-1
 602 1389 l 1,25,-1
 584 1434 l 1,26,-1
 762 1434 l 1,27,-1
 1190 297 l 2,28,29
 1228 197 1228 197 1290 178 c 0,30,31
 1322 168 1322 168 1376 168 c 1,32,-1
 1376 129 l 1,0,-1
831 784 m 1,33,-1
 651 1262 l 1,34,-1
 477 784 l 1,35,-1
 831 784 l 1,33,-1
EndSplineSet
Validated: 1
EndChar

StartChar: glyph37
Encoding: 66 66 37
Width: 1300
Flags: W
LayerCount: 2
Fore
SplineSet
1192 518 m 0,0,1
 1192 302 1192 302 1003 189 c 0,2,3
 903 129 903 129 750 129 c 2,4,-1
 0 129 l 1,5,-1
 0 168 l 1,6,-1
 47 168 l 2,7,8
 204 168 204 168 233 234 c 0,9,10
 248 269 248 269 248 336 c 2,11,-1
 248 1186 l 2,12,13
 248 1286 248 1286 219 1322 c 0,14,15
 186 1364 186 1364 90 1364 c 2,16,-1
 18 1364 l 1,17,-1
 18 1403 l 1,18,19
 56 1405 56 1405 133 1409 c 0,20,21
 186 1412 186 1412 276 1415 c 0,22,23
 457 1421 457 1421 584 1421 c 0,24,25
 883 1421 883 1421 995 1341 c 0,26,27
 1120 1252 1120 1252 1120 1114 c 0,28,29
 1120 992 1120 992 1007 914 c 0,30,31
 952 876 952 876 887 860 c 1,32,33
 1083 802 1083 802 1156 665 c 0,34,35
 1192 598 1192 598 1192 518 c 0,0,1
936 1108 m 0,36,37
 936 1382 936 1382 598 1382 c 0,38,39
 571 1382 571 1382 418 1376 c 1,40,-1
 418 870 l 1,41,-1
 641 870 l 2,42,43
 936 870 936 870 936 1108 c 0,36,37
999 512 m 0,44,45
 999 695 999 695 835 786 c 0,46,47
 752 831 752 831 639 831 c 2,48,-1
 418 831 l 1,49,-1
 418 395 l 2,50,51
 418 275 418 275 476 228 c 0,52,53
 528 184 528 184 651 184 c 0,54,55
 999 184 999 184 999 512 c 0,44,45
EndSplineSet
Validated: 1
EndChar

StartChar: C
Encoding: 67 67 38
Width: 1493
Flags: W
LayerCount: 2
Fore
SplineSet
1415 451 m 1,0,1
 1381 340 1381 340 1334 244 c 0,2,3
 1305 187 1305 187 1284 152 c 1,4,5
 1263 155 1263 155 1242 155 c 0,6,7
 1225 155 1225 155 1208 153 c 0,8,9
 1125 135 1125 135 959 105 c 0,10,11
 896 96 896 96 821 96 c 0,12,13
 626 96 626 96 466 173 c 0,14,15
 295 256 295 256 198 414 c 0,16,17
 106 564 106 564 106 750 c 0,18,19
 106 944 106 944 199.5 1100.5 c 128,-1,20
 293 1257 293 1257 463 1345.5 c 128,-1,21
 633 1434 633 1434 842 1434 c 0,22,23
 1014 1434 1014 1434 1180 1377 c 0,24,25
 1252 1352 1252 1352 1274 1352 c 0,26,27
 1303 1352 1303 1352 1311 1364 c 1,28,-1
 1341 1364 l 1,29,-1
 1360 1067 l 1,30,-1
 1321 1067 l 1,31,32
 1248 1266 1248 1266 1058 1344 c 0,33,34
 963 1382 963 1382 854 1382 c 0,35,36
 510 1382 510 1382 367 1098 c 0,37,38
 299 964 299 964 299 791 c 0,39,40
 299 519 299 519 471 332 c 0,41,42
 640 147 640 147 877 147 c 0,43,44
 1207 147 1207 147 1376 451 c 1,45,-1
 1415 451 l 1,0,1
EndSplineSet
Validated: 1
EndChar

StartChar: D
Encoding: 68 68 39
Width: 1556
Flags: W
LayerCount: 2
Fore
SplineSet
1444 809 m 0,0,1
 1444 628 1444 628 1351 474 c 0,2,3
 1260 324 1260 324 1102 231 c 0,4,5
 929 129 929 129 686 129 c 2,6,-1
 31 129 l 1,7,-1
 31 168 l 1,8,-1
 66 168 l 2,9,10
 180 168 180 168 210 227 c 0,11,12
 227 260 227 260 227 317 c 2,13,-1
 227 1198 l 2,14,15
 227 1325 227 1325 167 1350 c 0,16,17
 133 1364 133 1364 72 1364 c 2,18,-1
 31 1364 l 1,19,-1
 31 1403 l 1,20,21
 132 1408 132 1408 319 1415 c 0,22,23
 484 1421 484 1421 664 1421 c 0,24,25
 1052 1421 1052 1421 1255 1245 c 0,26,27
 1444 1080 1444 1080 1444 809 c 0,0,1
1251 776 m 0,28,29
 1251 1052 1251 1052 1086 1217 c 128,-1,30
 921 1382 921 1382 561 1382 c 0,31,32
 497 1382 497 1382 397 1374 c 1,33,-1
 397 281 l 2,34,35
 397 194 397 194 450 179 c 0,36,37
 484 168 484 168 565 168 c 0,38,39
 828 168 828 168 951 234 c 0,40,41
 1115 322 1115 322 1201 516 c 0,42,43
 1251 631 1251 631 1251 776 c 0,28,29
EndSplineSet
Validated: 1
EndChar

StartChar: E
Encoding: 69 69 40
Width: 1217
Flags: W
LayerCount: 2
Fore
SplineSet
1126 434 m 1,0,-1
 1094 129 l 1,1,-1
 6 129 l 1,2,-1
 6 168 l 1,3,-1
 63 168 l 2,4,5
 214 168 214 168 242 236 c 0,6,7
 256 271 256 271 256 336 c 2,8,-1
 256 1200 l 2,9,10
 256 1317 256 1317 196 1347 c 0,11,12
 161 1364 161 1364 92 1364 c 2,13,-1
 47 1364 l 1,14,-1
 47 1403 l 1,15,-1
 1030 1403 l 1,16,-1
 1047 1118 l 1,17,-1
 1010 1118 l 1,18,19
 979 1329 979 1329 858 1329 c 2,20,-1
 426 1329 l 1,21,-1
 426 825 l 1,22,-1
 793 825 l 2,23,24
 858 825 858 825 886 872 c 0,25,26
 905 904 905 904 911 979 c 1,27,-1
 950 979 l 1,28,-1
 950 590 l 1,29,-1
 911 590 l 1,30,31
 901 678 901 678 880 709 c 0,32,33
 851 752 851 752 772 752 c 2,34,-1
 426 752 l 1,35,-1
 426 315 l 2,36,37
 426 252 426 252 450 227.5 c 128,-1,38
 474 203 474 203 537 203 c 2,39,-1
 852 203 l 2,40,41
 983 203 983 203 1035 294 c 0,42,43
 1063 343 1063 343 1090 434 c 1,44,-1
 1126 434 l 1,0,-1
EndSplineSet
Validated: 1
EndChar

StartChar: F
Encoding: 70 70 41
Width: 1087
Flags: W
LayerCount: 2
Fore
SplineSet
1006 1161 m 1,0,-1
 971 1161 l 1,1,2
 969 1253 969 1253 931 1291 c 128,-1,3
 893 1329 893 1329 801 1329 c 2,4,-1
 412 1329 l 1,5,-1
 412 848 l 1,6,-1
 817 848 l 2,7,8
 927 848 927 848 936 979 c 1,9,-1
 971 979 l 1,10,-1
 971 618 l 1,11,-1
 936 618 l 1,12,13
 933 700 933 700 903 735 c 0,14,15
 870 774 870 774 791 774 c 2,16,-1
 412 774 l 1,17,-1
 412 326 l 2,18,19
 412 208 412 208 477 183 c 0,20,21
 515 168 515 168 590 168 c 1,22,-1
 590 129 l 1,23,-1
 92 129 l 1,24,-1
 92 168 l 1,25,26
 153 172 153 172 177 182 c 0,27,28
 218 199 218 199 231 244 c 0,29,30
 242 285 242 285 242 369 c 2,31,-1
 242 1171 l 2,32,33
 242 1279 242 1279 219 1315 c 0,34,35
 188 1363 188 1363 88 1364 c 1,36,-1
 88 1403 l 1,37,-1
 1006 1403 l 1,38,-1
 1006 1161 l 1,0,-1
EndSplineSet
Validated: 1
EndChar

StartChar: G
Encoding: 71 71 42
Width: 1516
Flags: W
LayerCount: 2
Fore
SplineSet
1466 639 m 1,0,1
 1323 630 1323 630 1323 510 c 2,2,-1
 1323 225 l 1,3,4
 1075 96 1075 96 774 96 c 0,5,6
 583 96 583 96 432 180 c 0,7,8
 273 269 273 269 191 435 c 0,9,10
 117 583 117 583 117 741 c 0,11,12
 117 1005 117 1005 291 1208 c 0,13,14
 484 1434 484 1434 831 1434 c 0,15,16
 987 1434 987 1434 1183 1378 c 0,17,18
 1232 1364 1232 1364 1239 1364 c 0,19,20
 1269 1364 1269 1364 1286 1378 c 1,21,-1
 1315 1378 l 1,22,-1
 1315 1047 l 1,23,-1
 1274 1047 l 1,24,25
 1202 1382 1202 1382 854 1382 c 0,26,27
 597 1382 597 1382 448 1194 c 0,28,29
 309 1018 309 1018 309 754 c 0,30,31
 309 464 309 464 483 298 c 0,32,33
 640 147 640 147 840 147 c 0,34,35
 996 147 996 147 1153 225 c 1,36,-1
 1153 483 l 2,37,38
 1153 573 1153 573 1116.5 606 c 128,-1,39
 1080 639 1080 639 989 639 c 2,40,-1
 913 639 l 1,41,-1
 913 676 l 1,42,-1
 1466 676 l 1,43,-1
 1466 639 l 1,0,1
EndSplineSet
Validated: 1
EndChar

StartChar: H
Encoding: 72 72 43
Width: 1622
Flags: W
LayerCount: 2
Fore
SplineSet
1563 129 m 1,0,-1
 983 129 l 1,1,-1
 983 168 l 1,2,-1
 1047 168 l 2,3,4
 1169 168 1169 168 1195 233 c 0,5,6
 1208 266 1208 266 1208 322 c 2,7,-1
 1208 737 l 1,8,-1
 406 737 l 1,9,-1
 406 348 l 2,10,11
 406 247 406 247 437 210 c 0,12,13
 471 168 471 168 569 168 c 2,14,-1
 575 168 l 1,15,-1
 575 129 l 1,16,-1
 61 129 l 1,17,-1
 61 168 l 1,18,-1
 74 168 l 2,19,20
 193 168 193 168 221 227 c 0,21,22
 236 260 236 260 236 317 c 2,23,-1
 236 1219 l 2,24,25
 236 1299 236 1299 202 1330 c 0,26,27
 171 1358 171 1358 88 1364 c 1,28,-1
 88 1403 l 1,29,-1
 575 1403 l 1,30,-1
 575 1364 l 1,31,32
 440 1364 440 1364 418 1290 c 0,33,34
 406 1248 406 1248 406 1167 c 2,35,-1
 406 811 l 1,36,-1
 1208 811 l 1,37,-1
 1208 1214 l 2,38,39
 1208 1301 1208 1301 1171 1334 c 0,40,41
 1136 1364 1136 1364 1047 1364 c 2,42,-1
 1008 1364 l 1,43,-1
 1008 1403 l 1,44,-1
 1534 1403 l 1,45,-1
 1534 1364 l 1,46,47
 1415 1360 1415 1360 1392 1296 c 0,48,49
 1378 1259 1378 1259 1378 1196 c 2,50,-1
 1378 346 l 2,51,52
 1378 209 1378 209 1444 183 c 0,53,54
 1479 168 1479 168 1542 168 c 2,55,-1
 1563 168 l 1,56,-1
 1563 129 l 1,0,-1
EndSplineSet
Validated: 1
EndChar

StartChar: I
Encoding: 73 73 44
Width: 682
Flags: W
LayerCount: 2
Fore
SplineSet
590 129 m 1,0,-1
 92 129 l 1,1,-1
 92 168 l 1,2,3
 188 172 188 172 218 210 c 0,4,5
 246 245 246 245 246 344 c 2,6,-1
 246 1216 l 2,7,8
 246 1299 246 1299 210 1331 c 0,9,10
 178 1359 178 1359 92 1364 c 1,11,-1
 92 1403 l 1,12,-1
 590 1403 l 1,13,-1
 590 1364 l 1,14,15
 461 1364 461 1364 433 1302 c 0,16,17
 416 1266 416 1266 416 1198 c 2,18,-1
 416 330 l 2,19,20
 416 209 416 209 483 183 c 0,21,22
 521 168 521 168 590 168 c 1,23,-1
 590 129 l 1,0,-1
EndSplineSet
Validated: 1
EndChar

StartChar: J
Encoding: 74 74 45
Width: 618
Flags: W
LayerCount: 2
Fore
SplineSet
559 1364 m 1,0,1
 468 1361 468 1361 436 1333 c 0,2,3
 399 1302 399 1302 399 1214 c 2,4,-1
 399 340 l 2,5,6
 399 -84 399 -84 198 -263 c 0,7,8
 101 -348 101 -348 -25 -348 c 0,9,10
 -90 -348 -90 -348 -147 -324 c 0,11,12
 -223 -294 -223 -294 -223 -238 c 0,13,14
 -223 -207 -223 -207 -202 -181.5 c 128,-1,15
 -181 -156 -181 -156 -150 -156 c 0,16,17
 -116 -156 -116 -156 -50 -204 c 128,-1,18
 16 -252 16 -252 61 -252 c 0,19,20
 229 -252 229 -252 229 49 c 2,21,-1
 229 1143 l 2,22,23
 229 1317 229 1317 172 1346 c 0,24,25
 137 1364 137 1364 63 1364 c 2,26,-1
 41 1364 l 1,27,-1
 41 1403 l 1,28,-1
 559 1403 l 1,29,-1
 559 1364 l 1,0,1
EndSplineSet
Validated: 1
EndChar

StartChar: K
Encoding: 75 75 46
Width: 1430
Flags: W
LayerCount: 2
Fore
SplineSet
1432 129 m 1,0,-1
 831 129 l 1,1,-1
 831 168 l 1,2,3
 965 170 965 170 965 225 c 0,4,5
 965 285 965 285 713 537 c 0,6,7
 642 608 642 608 611 636 c 0,8,9
 539 698 539 698 494 714 c 0,10,11
 468 722 468 722 436 722 c 0,12,13
 423 722 423 722 410 721 c 1,14,-1
 410 338 l 2,15,16
 410 242 410 242 444 205 c 128,-1,17
 478 168 478 168 573 168 c 2,18,-1
 600 168 l 1,19,-1
 600 129 l 1,20,-1
 39 129 l 1,21,-1
 39 168 l 1,22,-1
 76 168 l 2,23,24
 165 168 165 168 202.5 199.5 c 128,-1,25
 240 231 240 231 240 317 c 2,26,-1
 240 1216 l 2,27,28
 240 1302 240 1302 200 1335 c 0,29,30
 164 1364 164 1364 76 1364 c 2,31,-1
 39 1364 l 1,32,-1
 39 1403 l 1,33,-1
 592 1403 l 1,34,-1
 592 1364 l 1,35,-1
 573 1364 l 2,36,37
 481 1364 481 1364 445.5 1328.5 c 128,-1,38
 410 1293 410 1293 410 1202 c 2,39,-1
 410 760 l 1,40,41
 519 771 519 771 639 891 c 0,42,43
 802 1054 802 1054 886 1202 c 0,44,45
 924 1269 924 1269 924 1300 c 0,46,47
 924 1364 924 1364 782 1364 c 1,48,-1
 782 1403 l 1,49,-1
 1321 1403 l 1,50,-1
 1321 1364 l 1,51,52
 1133 1362 1133 1362 1051 1280 c 0,53,54
 1021 1250 1021 1250 963 1165 c 0,55,56
 920 1102 920 1102 878 1039 c 0,57,58
 776 897 776 897 643 797 c 1,59,60
 685 791 685 791 806 671 c 128,-1,61
 927 551 927 551 1051 406 c 2,62,-1
 1148 291 l 2,63,64
 1166 269 1166 269 1204 227 c 0,65,66
 1264 168 1264 168 1432 168 c 1,67,-1
 1432 129 l 1,0,-1
EndSplineSet
Validated: 1
EndChar

StartChar: L
Encoding: 76 76 47
Width: 1130
Flags: W
LayerCount: 2
Fore
SplineSet
1114 428 m 1,0,-1
 956 129 l 1,1,-1
 41 129 l 1,2,-1
 41 168 l 1,3,-1
 109 168 l 2,4,5
 182 168 182 168 210 198.5 c 128,-1,6
 238 229 238 229 238 303 c 2,7,-1
 238 1210 l 2,8,9
 238 1298 238 1298 202 1331 c 128,-1,10
 166 1364 166 1364 76 1364 c 2,11,-1
 47 1364 l 1,12,-1
 47 1403 l 1,13,-1
 651 1403 l 1,14,-1
 651 1364 l 1,15,-1
 575 1364 l 2,16,17
 444 1364 444 1364 422 1316 c 0,18,19
 408 1287 408 1287 408 1223 c 2,20,-1
 408 279 l 2,21,22
 408 203 408 203 489 203 c 2,23,-1
 791 203 l 2,24,25
 896 203 896 203 966 284 c 0,26,27
 1002 326 1002 326 1077 428 c 1,28,-1
 1114 428 l 1,0,-1
EndSplineSet
Validated: 1
EndChar

StartChar: M
Encoding: 77 77 48
Width: 1878
Flags: W
LayerCount: 2
Fore
SplineSet
1835 129 m 1,0,-1
 1309 129 l 1,1,-1
 1309 168 l 1,2,3
 1500 168 1500 168 1491 303 c 2,4,-1
 1432 1221 l 1,5,-1
 1427 1221 l 1,6,-1
 918 129 l 1,7,-1
 870 129 l 1,8,-1
 344 1221 l 1,9,-1
 289 299 l 2,10,11
 282 174 282 174 453 168 c 1,12,-1
 453 129 l 1,13,-1
 27 129 l 1,14,-1
 27 168 l 1,15,16
 164 168 164 168 187 246 c 0,17,18
 199 288 199 288 205 387 c 2,19,-1
 254 1184 l 2,20,21
 262 1320 262 1320 221 1344 c 0,22,23
 194 1359 194 1359 131 1364 c 1,24,-1
 131 1401 l 1,25,-1
 440 1401 l 1,26,-1
 934 369 l 1,27,-1
 1425 1401 l 1,28,-1
 1726 1401 l 1,29,-1
 1726 1364 l 1,30,-1
 1660 1358 l 2,31,32
 1615 1351 1615 1351 1602 1334.5 c 128,-1,33
 1589 1318 1589 1318 1591 1284 c 2,34,-1
 1657 356 l 2,35,36
 1662 291 1662 291 1665 271 c 0,37,38
 1674 213 1674 213 1695 193 c 0,39,40
 1719 168 1719 168 1835 168 c 1,41,-1
 1835 129 l 1,0,-1
EndSplineSet
Validated: 33
EndChar

StartChar: N
Encoding: 78 78 49
Width: 1665
Flags: W
LayerCount: 2
Fore
SplineSet
1630 1364 m 1,0,1
 1537 1364 1537 1364 1505 1352 c 0,2,3
 1444 1331 1444 1331 1444 1257 c 2,4,-1
 1444 115 l 1,5,-1
 1391 115 l 1,6,-1
 330 1225 l 1,7,-1
 330 346 l 2,8,9
 330 205 330 205 404 182 c 0,10,11
 446 168 446 168 537 168 c 1,12,-1
 537 129 l 1,13,-1
 61 129 l 1,14,-1
 61 168 l 1,15,-1
 70 168 l 2,16,17
 238 168 238 168 238 305 c 2,18,-1
 238 1313 l 1,19,20
 168 1361 168 1361 66 1364 c 1,21,-1
 66 1403 l 1,22,-1
 387 1403 l 1,23,-1
 1352 397 l 1,24,-1
 1352 1212 l 2,25,26
 1352 1329 1352 1329 1276 1350 c 0,27,28
 1233 1362 1233 1362 1151 1364 c 1,29,-1
 1151 1403 l 1,30,-1
 1630 1403 l 1,31,-1
 1630 1364 l 1,0,1
EndSplineSet
Validated: 1
EndChar

StartChar: O
Encoding: 79 79 50
Width: 1686
Flags: W
LayerCount: 2
Fore
SplineSet
1577 801 m 0,0,1
 1577 496 1577 496 1364.5 296 c 128,-1,2
 1152 96 1152 96 848 96 c 0,3,4
 654 96 654 96 489 171 c 0,5,6
 313 252 313 252 209 404 c 0,7,8
 109 550 109 550 109 737 c 0,9,10
 109 935 109 935 203.5 1095 c 128,-1,11
 298 1255 298 1255 473 1345 c 0,12,13
 644 1434 644 1434 858 1434 c 0,14,15
 1155 1434 1155 1434 1366 1253 c 128,-1,16
 1577 1072 1577 1072 1577 801 c 0,0,1
1384 733 m 0,17,18
 1384 1018 1384 1018 1222 1200 c 128,-1,19
 1060 1382 1060 1382 805 1382 c 0,20,21
 560 1382 560 1382 422 1189 c 0,22,23
 301 1019 301 1019 301 801 c 0,24,25
 301 624 301 624 373 476 c 0,26,27
 450 318 450 318 593 231 c 0,28,29
 729 147 729 147 891 147 c 0,30,31
 1205 147 1205 147 1329 448 c 0,32,33
 1384 583 1384 583 1384 733 c 0,17,18
EndSplineSet
Validated: 1
EndChar

StartChar: P
Encoding: 80 80 51
Width: 1153
Flags: W
LayerCount: 2
Fore
SplineSet
1079 1059 m 0,0,1
 1079 861 1079 861 923 757 c 0,2,3
 789 668 789 668 584 668 c 0,4,5
 491 668 491 668 410 684 c 1,6,-1
 410 326 l 2,7,8
 410 236 410 236 446 202 c 128,-1,9
 482 168 482 168 573 168 c 2,10,-1
 641 168 l 1,11,-1
 641 129 l 1,12,-1
 74 129 l 1,13,-1
 74 168 l 1,14,-1
 102 168 l 2,15,16
 179 168 179 168 207 189 c 0,17,18
 240 214 240 214 240 287 c 2,19,-1
 240 1255 l 2,20,21
 240 1364 240 1364 143 1364 c 2,22,-1
 41 1364 l 1,23,-1
 41 1403 l 1,24,25
 209 1411 209 1411 299 1415 c 0,26,27
 449 1421 449 1421 553 1421 c 0,28,29
 846 1421 846 1421 974 1303 c 0,30,31
 1079 1206 1079 1206 1079 1059 c 0,0,1
887 1065 m 0,32,33
 887 1382 887 1382 551 1382 c 0,34,35
 459 1382 459 1382 410 1374 c 1,36,-1
 410 723 l 1,37,38
 479 707 479 707 520 707 c 0,39,40
 746 707 746 707 842 881 c 0,41,42
 887 963 887 963 887 1065 c 0,32,33
EndSplineSet
Validated: 1
EndChar

StartChar: Q
Encoding: 81 81 52
Width: 1686
Flags: W
LayerCount: 2
Fore
SplineSet
1640 -242 m 1,0,-1
 1608 -285 l 1,1,2
 1559 -297 1559 -297 1513 -297 c 0,3,4
 1368 -297 1368 -297 1217 -201 c 0,5,6
 1194 -187 1194 -187 965 -9 c 0,7,8
 867 67 867 67 786 98 c 1,9,10
 602 111 602 111 450 191 c 0,11,12
 286 278 286 278 196 427 c 0,13,14
 109 570 109 570 109 745 c 0,15,16
 109 937 109 937 206 1096 c 0,17,18
 303 1252 303 1252 473.5 1343 c 128,-1,19
 644 1434 644 1434 850 1434 c 0,20,21
 1155 1434 1155 1434 1364 1257 c 0,22,23
 1577 1075 1577 1075 1577 795 c 0,24,25
 1577 463 1577 463 1318 256 c 0,26,27
 1193 156 1193 156 1030 113 c 1,28,29
 1127 78 1127 78 1319 -85 c 0,30,31
 1499 -237 1499 -237 1640 -242 c 1,0,-1
1384 733 m 0,32,33
 1384 1018 1384 1018 1222 1200 c 128,-1,34
 1060 1382 1060 1382 805 1382 c 0,35,36
 560 1382 560 1382 422 1189 c 0,37,38
 301 1019 301 1019 301 801 c 0,39,40
 301 624 301 624 373 477 c 0,41,42
 450 319 450 319 594 232 c 0,43,44
 730 149 730 149 891 149 c 0,45,46
 1205 149 1205 149 1329 450 c 0,47,48
 1384 585 1384 585 1384 733 c 0,32,33
EndSplineSet
Validated: 1
EndChar

StartChar: R
Encoding: 82 82 53
Width: 1642
Flags: W
LayerCount: 2
Fore
SplineSet
1630 106 m 1,0,1
 1585 104 1585 104 1544 104 c 0,2,3
 1362 104 1362 104 1252 153 c 0,4,5
 1149 198 1149 198 997 350 c 2,6,-1
 862 485 l 2,7,8
 728 619 728 619 651 668 c 1,9,10
 549 664 549 664 512 664 c 0,11,12
 472 664 472 664 408 668 c 1,13,-1
 408 322 l 2,14,15
 408 207 408 207 476 181 c 0,16,17
 510 168 510 168 571 168 c 2,18,-1
 618 168 l 1,19,-1
 618 129 l 1,20,-1
 39 129 l 1,21,-1
 39 168 l 1,22,-1
 74 168 l 2,23,24
 170 168 170 168 204 204.5 c 128,-1,25
 238 241 238 241 238 338 c 2,26,-1
 238 1200 l 2,27,28
 238 1292 238 1292 206 1328 c 128,-1,29
 174 1364 174 1364 84 1364 c 2,30,-1
 39 1364 l 1,31,-1
 39 1403 l 1,32,33
 79 1403 79 1403 219 1411 c 0,34,35
 253 1413 253 1413 297 1415 c 0,36,37
 427 1421 427 1421 555 1421 c 0,38,39
 828 1421 828 1421 970 1319 c 0,40,41
 1104 1222 1104 1222 1104 1057 c 0,42,43
 1104 935 1104 935 1026 845 c 0,44,45
 953 761 953 761 831 725 c 1,46,47
 925 652 925 652 1065 512 c 2,48,-1
 1227 350 l 2,49,50
 1355 222 1355 222 1483 174 c 0,51,52
 1550 149 1550 149 1630 143 c 1,53,-1
 1630 106 l 1,0,1
911 1044 m 0,54,55
 911 1261 911 1261 750 1339 c 0,56,57
 661 1382 661 1382 510 1382 c 0,58,59
 444 1382 444 1382 408 1378 c 1,60,-1
 408 707 l 1,61,62
 443 702 443 702 535 702 c 0,63,64
 911 702 911 702 911 1044 c 0,54,55
EndSplineSet
Validated: 1
EndChar

StartChar: S
Encoding: 83 83 54
Width: 1004
Flags: W
LayerCount: 2
Fore
SplineSet
911 446 m 0,0,1
 911 284 911 284 780 186 c 0,2,3
 661 96 661 96 494 96 c 0,4,5
 422 96 422 96 281 135 c 0,6,7
 219 152 219 152 209 152 c 0,8,9
 183 152 183 152 168 129 c 1,10,-1
 133 129 l 1,11,-1
 90 440 l 1,12,-1
 129 440 l 1,13,14
 160 312 160 312 251 234 c 0,15,16
 346 152 346 152 475 152 c 0,17,18
 591 152 591 152 671 213 c 0,19,20
 758 281 758 281 758 393 c 0,21,22
 758 497 758 497 640 598 c 0,23,24
 597 635 597 635 435 738 c 0,25,26
 276 838 276 838 213 900 c 0,27,28
 100 1011 100 1011 100 1137 c 0,29,30
 100 1312 100 1312 279 1395 c 0,31,32
 362 1434 362 1434 465 1434 c 0,33,34
 566 1434 566 1434 672 1398 c 0,35,36
 719 1382 719 1382 743 1382 c 0,37,38
 765 1382 765 1382 780 1403 c 1,39,-1
 813 1403 l 1,40,-1
 848 1143 l 1,41,-1
 813 1143 l 1,42,43
 772 1250 772 1250 685 1315 c 0,44,45
 594 1384 594 1384 483 1384 c 0,46,47
 387 1384 387 1384 324 1337 c 0,48,49
 254 1285 254 1285 254 1192 c 0,50,51
 254 1090 254 1090 370 993 c 0,52,53
 406 963 406 963 573 859 c 0,54,55
 732 759 732 759 799 692 c 0,56,57
 911 578 911 578 911 446 c 0,0,1
EndSplineSet
Validated: 1
EndChar

StartChar: glyph55
Encoding: 84 84 55
Width: 1386
Flags: W
LayerCount: 2
Fore
SplineSet
1321 1102 m 1,0,-1
 1284 1102 l 1,1,2
 1256 1272 1256 1272 1204 1310 c 0,3,4
 1177 1329 1177 1329 1135 1329 c 2,5,-1
 778 1329 l 1,6,-1
 778 317 l 2,7,8
 778 231 778 231 817 198 c 0,9,10
 852 168 852 168 940 168 c 2,11,-1
 1016 168 l 1,12,-1
 1016 129 l 1,13,-1
 371 129 l 1,14,-1
 371 168 l 1,15,-1
 446 168 l 2,16,17
 534 168 534 168 569 198 c 0,18,19
 608 231 608 231 608 317 c 2,20,-1
 608 1329 l 1,21,-1
 252 1329 l 2,22,23
 176 1329 176 1329 139 1249 c 0,24,25
 121 1210 121 1210 102 1102 c 1,26,-1
 66 1102 l 1,27,-1
 98 1434 l 1,28,-1
 137 1434 l 1,29,30
 142 1403 142 1403 201 1403 c 2,31,-1
 1186 1403 l 2,32,33
 1244 1403 1244 1403 1249 1434 c 1,34,-1
 1288 1434 l 1,35,-1
 1321 1102 l 1,0,-1
EndSplineSet
Validated: 1
EndChar

StartChar: U
Encoding: 85 85 56
Width: 1622
Flags: W
LayerCount: 2
Fore
SplineSet
1597 1364 m 1,0,1
 1496 1362 1496 1362 1453.5 1319 c 128,-1,2
 1411 1276 1411 1276 1411 1176 c 2,3,-1
 1411 623 l 2,4,5
 1411 452 1411 452 1325 326 c 128,-1,6
 1239 200 1239 200 1083 141 c 0,7,8
 966 96 966 96 805 96 c 0,9,10
 522 96 522 96 364 245 c 0,11,12
 213 385 213 385 213 612 c 2,13,-1
 213 1210 l 2,14,15
 213 1330 213 1330 149 1351 c 0,16,17
 114 1362 114 1362 37 1364 c 1,18,-1
 37 1403 l 1,19,-1
 563 1403 l 1,20,-1
 563 1364 l 1,21,-1
 545 1364 l 2,22,23
 457 1364 457 1364 420 1332 c 128,-1,24
 383 1300 383 1300 383 1214 c 2,25,-1
 383 645 l 2,26,27
 383 430 383 430 510 314 c 0,28,29
 632 203 632 203 850 203 c 0,30,31
 1317 203 1317 203 1317 647 c 2,32,-1
 1317 1124 l 2,33,34
 1317 1308 1317 1308 1248 1341 c 0,35,36
 1208 1359 1208 1359 1116 1364 c 1,37,-1
 1116 1403 l 1,38,-1
 1597 1403 l 1,39,-1
 1597 1364 l 1,0,1
EndSplineSet
Validated: 1
EndChar

StartChar: V
Encoding: 86 86 57
Width: 1409
Flags: W
LayerCount: 2
Fore
SplineSet
1389 1364 m 1,0,1
 1304 1364 1304 1364 1253 1316 c 0,2,3
 1212 1277 1212 1277 1178 1188 c 2,4,-1
 756 96 l 1,5,-1
 653 96 l 1,6,-1
 209 1204 l 2,7,8
 184 1265 184 1265 171 1289 c 0,9,10
 143 1336 143 1336 106 1351 c 0,11,12
 73 1364 73 1364 8 1364 c 1,13,-1
 8 1403 l 1,14,-1
 571 1403 l 1,15,-1
 571 1364 l 1,16,17
 392 1362 392 1362 369 1302 c 0,18,19
 357 1272 357 1272 377 1223 c 2,20,-1
 745 305 l 1,21,-1
 1069 1151 l 2,22,23
 1104 1242 1104 1242 1104 1278 c 0,24,25
 1104 1364 1104 1364 913 1364 c 1,26,-1
 913 1403 l 1,27,-1
 1389 1403 l 1,28,-1
 1389 1364 l 1,0,1
EndSplineSet
Validated: 33
EndChar

StartChar: W
Encoding: 87 87 58
Width: 2048
Flags: W
LayerCount: 2
Fore
SplineSet
2034 1364 m 1,0,1
 1917 1364 1917 1364 1876 1300 c 0,2,3
 1851 1262 1851 1262 1819 1178 c 2,4,-1
 1407 96 l 1,5,-1
 1309 96 l 1,6,-1
 1040 729 l 1,7,-1
 782 96 l 1,8,-1
 682 96 l 1,9,-1
 256 1186 l 2,10,11
 215 1291 215 1291 171 1326 c 0,12,13
 122 1364 122 1364 14 1364 c 2,14,-1
 2 1364 l 1,15,-1
 2 1403 l 1,16,-1
 532 1403 l 1,17,-1
 532 1364 l 1,18,-1
 498 1364 l 2,19,20
 386 1364 386 1364 386 1292 c 0,21,22
 386 1268 386 1268 399 1235 c 2,23,-1
 772 297 l 1,24,-1
 993 844 l 1,25,-1
 827 1247 l 2,26,27
 797 1320 797 1320 745 1345 c 0,28,29
 704 1364 704 1364 616 1364 c 1,30,-1
 616 1403 l 1,31,-1
 1456 1403 l 1,32,-1
 1456 1364 l 1,33,34
 1375 1364 1375 1364 1334 1345 c 0,35,36
 1280 1321 1280 1321 1253 1255 c 2,37,-1
 1122 936 l 1,38,-1
 1391 297 l 1,39,-1
 1753 1247 l 2,40,41
 1770 1291 1770 1291 1764 1315 c 0,42,43
 1751 1360 1751 1360 1610 1364 c 1,44,-1
 1610 1403 l 1,45,-1
 2034 1403 l 1,46,-1
 2034 1364 l 1,0,1
1167 1276 m 2,47,48
 1178 1302 1178 1302 1178 1320 c 0,49,50
 1178 1364 1178 1364 1116 1364 c 2,51,-1
 1030 1364 l 2,52,53
 964 1364 964 1364 964 1324 c 0,54,55
 964 1309 964 1309 973 1288 c 2,56,-1
 1075 1051 l 1,57,-1
 1167 1276 l 2,47,48
EndSplineSet
Validated: 33
EndChar

StartChar: X
Encoding: 88 88 59
Width: 1536
Flags: W
LayerCount: 2
Fore
SplineSet
1530 129 m 1,0,-1
 965 129 l 1,1,-1
 965 168 l 1,2,3
 1098 168 1098 168 1098 218 c 0,4,5
 1098 253 1098 253 1036 330 c 2,6,-1
 729 709 l 1,7,-1
 403 317 l 2,8,9
 352 256 352 256 352 218 c 0,10,11
 352 168 352 168 465 168 c 2,12,-1
 506 168 l 1,13,-1
 506 129 l 1,14,-1
 18 129 l 1,15,-1
 18 168 l 1,16,17
 155 179 155 179 239 255 c 0,18,19
 287 299 287 299 360 387 c 2,20,-1
 678 770 l 1,21,-1
 360 1169 l 2,22,23
 301 1243 301 1243 268 1274 c 0,24,25
 211 1329 211 1329 152 1347 c 0,26,27
 99 1362 99 1362 18 1364 c 1,28,-1
 18 1403 l 1,29,-1
 629 1403 l 1,30,-1
 629 1364 l 1,31,32
 463 1366 463 1366 469 1311 c 0,33,34
 471 1282 471 1282 504 1241 c 2,35,-1
 782 897 l 1,36,-1
 1004 1161 l 2,37,38
 1095 1269 1095 1269 1095 1318 c 0,39,40
 1095 1364 1095 1364 1012 1364 c 2,41,-1
 952 1364 l 1,42,-1
 952 1403 l 1,43,-1
 1444 1403 l 1,44,-1
 1444 1364 l 1,45,46
 1267 1364 1267 1364 1096 1155 c 2,47,-1
 834 834 l 1,48,-1
 1219 354 l 2,49,50
 1277 282 1277 282 1300 259 c 0,51,52
 1352 207 1352 207 1403 190 c 0,53,54
 1446 176 1446 176 1530 168 c 1,55,-1
 1530 129 l 1,0,-1
EndSplineSet
Validated: 33
EndChar

StartChar: Y
Encoding: 89 89 60
Width: 1450
Flags: W
LayerCount: 2
Fore
SplineSet
1407 1364 m 1,0,1
 1314 1357 1314 1357 1256.5 1320.5 c 128,-1,2
 1199 1284 1199 1284 1151 1202 c 2,3,-1
 811 627 l 1,4,-1
 811 319 l 2,5,6
 811 234 811 234 851 200 c 0,7,8
 888 168 888 168 975 168 c 2,9,-1
 1001 168 l 1,10,-1
 1001 129 l 1,11,-1
 438 129 l 1,12,-1
 438 168 l 1,13,-1
 477 168 l 2,14,15
 563 168 563 168 600 198 c 0,16,17
 641 231 641 231 641 315 c 2,18,-1
 641 604 l 1,19,-1
 276 1173 l 2,20,21
 231 1243 231 1243 205 1274 c 0,22,23
 156 1331 156 1331 108 1348 c 0,24,25
 66 1362 66 1362 -4 1364 c 1,26,-1
 -4 1403 l 1,27,-1
 541 1403 l 1,28,-1
 541 1364 l 1,29,30
 393 1364 393 1364 397 1310 c 0,31,32
 399 1282 399 1282 432 1231 c 2,33,-1
 760 725 l 1,34,-1
 1049 1216 l 2,35,36
 1080 1269 1080 1269 1080 1302 c 0,37,38
 1080 1364 1080 1364 944 1364 c 1,39,-1
 944 1403 l 1,40,-1
 1407 1403 l 1,41,-1
 1407 1364 l 1,0,1
EndSplineSet
Validated: 33
EndChar

StartChar: Z
Encoding: 90 90 61
Width: 1386
Flags: W
LayerCount: 2
Fore
SplineSet
1288 500 m 1,0,-1
 1264 129 l 1,1,-1
 82 129 l 1,2,-1
 82 176 l 1,3,-1
 1001 1329 l 1,4,-1
 393 1329 l 2,5,6
 265 1329 265 1329 232 1248 c 0,7,8
 213 1202 213 1202 205 1114 c 1,9,-1
 168 1114 l 1,10,-1
 178 1403 l 1,11,-1
 1233 1403 l 1,12,-1
 1233 1356 l 1,13,-1
 307 203 l 1,14,-1
 1032 203 l 2,15,16
 1165 203 1165 203 1203 312 c 0,17,18
 1222 366 1222 366 1251 500 c 1,19,-1
 1288 500 l 1,0,-1
EndSplineSet
Validated: 1
EndChar

StartChar: bracketleft
Encoding: 91 91 62
Width: 714
Flags: W
LayerCount: 2
Fore
SplineSet
679 -232 m 256,0,1
 679 -280 679 -280 646.5 -312.5 c 128,-1,2
 614 -345 614 -345 566 -345 c 256,3,4
 518 -345 518 -345 485.5 -312.5 c 128,-1,5
 453 -280 453 -280 453 -232 c 256,6,7
 453 -184 453 -184 485.5 -151.5 c 128,-1,8
 518 -119 518 -119 566 -119 c 256,9,10
 614 -119 614 -119 646.5 -151.5 c 128,-1,11
 679 -184 679 -184 679 -232 c 256,0,1
477 501 m 1,13,-1
 464 328 l 1,14,15
 444 206 444 206 280 215 c 1,16,-1
 -30 215 l 1,17,18
 27 110 27 110 102 3 c 1,19,-1
 606 3 l 1,20,-1
 725 144 l 1,21,-1
 727 382 l 1,22,-1
 724 496 l 1,23,12
 596 707 596 707 477 501 c 1,13,-1
EndSplineSet
Validated: 41
EndChar

StartChar: backslash
Encoding: 92 92 63
Width: 938
Flags: W
LayerCount: 2
Fore
SplineSet
844 100 m 1,0,-1
 756 100 l 1,1,-1
 94 1434 l 1,2,-1
 182 1434 l 1,3,-1
 844 100 l 1,0,-1
EndSplineSet
Validated: 1
EndChar

StartChar: bracketright
Encoding: 93 93 64
Width: 723
Flags: W
LayerCount: 2
Fore
SplineSet
737 843 m 256,0,1
 737 789 737 789 700.5 753 c 128,-1,2
 664 717 664 717 611 717 c 0,3,4
 557 717 557 717 521 753 c 128,-1,5
 485 789 485 789 485 843 c 256,6,7
 485 897 485 897 521 933 c 128,-1,8
 557 969 557 969 611 969 c 0,9,10
 664 969 664 969 700.5 933 c 128,-1,11
 737 897 737 897 737 843 c 256,0,1
484 501 m 1,13,-1
 471 328 l 1,14,15
 451 206 451 206 287 215 c 1,16,-1
 -23 215 l 1,17,18
 34 110 34 110 109 3 c 1,19,-1
 613 3 l 1,20,-1
 735 147 l 1,21,-1
 734 382 l 1,22,-1
 731 496 l 1,23,12
 603 707 603 707 484 501 c 1,13,-1
EndSplineSet
Validated: 41
EndChar

StartChar: asciicircum
Encoding: 94 94 65
Width: 385
Flags: W
LayerCount: 2
Fore
SplineSet
347 1958 m 1,0,1
 320 1945 320 1945 269 1905 c 1,2,-1
 231 1863 l 2,3,4
 214 1843 214 1843 214 1836 c 0,5,6
 214 1821 214 1821 233 1805 c 2,7,-1
 300 1747 l 2,8,9
 329 1722 329 1722 329 1690 c 0,10,11
 329 1657 329 1657 307 1637 c 2,12,-1
 202 1544 l 2,13,14
 155 1503 155 1503 74 1503 c 0,15,16
 37 1503 37 1503 14 1514 c 1,17,18
 50 1520 50 1520 84 1555 c 2,19,-1
 122 1595 l 2,20,21
 150 1624 150 1624 150 1640 c 0,22,23
 150 1650 150 1650 123 1674 c 2,24,-1
 69 1723 l 2,25,26
 33 1756 33 1756 33 1786 c 0,27,28
 33 1817 33 1817 71 1851 c 2,29,-1
 160 1928 l 2,30,31
 199 1962 199 1962 290 1962 c 0,32,33
 314 1962 314 1962 347 1958 c 1,0,1
EndSplineSet
Validated: 1
EndChar

StartChar: underscore
Encoding: 95 95 66
Width: 1024
Flags: W
LayerCount: 2
Fore
SplineSet
1040 -127 m 1,0,-1
 -16 -127 l 1,1,-1
 -16 -25 l 1,2,-1
 1040 -25 l 1,3,-1
 1040 -127 l 1,0,-1
EndSplineSet
Validated: 1
EndChar

StartChar: grave
Encoding: 96 96 67
Width: 682
Flags: W
LayerCount: 2
Fore
SplineSet
526 1128 m 1,0,-1
 500 1128 l 1,1,-1
 283 1274 l 2,2,3
 143 1368 143 1368 143 1419 c 0,4,5
 143 1479 143 1479 207 1479 c 0,6,7
 273 1479 273 1479 338 1389 c 2,8,-1
 526 1128 l 1,0,-1
EndSplineSet
Validated: 1
EndChar

StartChar: a
Encoding: 97 97 68
Width: 811
Flags: W
LayerCount: 2
Fore
SplineSet
799 217 m 1,0,1
 660 104 660 104 596 104 c 0,2,3
 510 104 510 104 502 229 c 1,4,5
 349 104 349 104 264 104 c 0,6,7
 181 104 181 104 130 146 c 0,8,9
 74 191 74 191 74 272 c 0,10,11
 74 380 74 380 186 431 c 0,12,13
 224 448 224 448 343 486 c 0,14,15
 441 517 441 517 498 551 c 1,16,-1
 498 713 l 2,17,18
 498 803 498 803 463 844 c 0,19,20
 413 903 413 903 348 903 c 0,21,22
 306 903 306 903 265 875 c 0,23,24
 221 843 221 843 221 803 c 0,25,26
 221 787 221 787 231 764 c 1,27,-1
 92 696 l 1,28,29
 86 716 86 716 86 725 c 0,30,31
 86 770 86 770 151 836 c 0,32,33
 202 887 202 887 256 920 c 0,34,35
 327 963 327 963 389 963 c 0,36,37
 526 963 526 963 604 854 c 0,38,39
 635 811 635 811 635 678 c 2,40,-1
 635 403 l 2,41,42
 635 229 635 229 657 212 c 0,43,44
 667 203 667 203 688 203 c 0,45,46
 735 203 735 203 788 248 c 1,47,-1
 799 217 l 1,0,1
498 266 m 1,48,-1
 498 510 l 1,49,50
 459 487 459 487 377 453 c 0,51,52
 283 414 283 414 262 400 c 0,53,54
 205 361 205 361 205 297 c 0,55,56
 205 246 205 246 240 211 c 128,-1,57
 275 176 275 176 326 176 c 0,58,59
 370 176 370 176 498 266 c 1,48,-1
EndSplineSet
Validated: 1
EndChar

StartChar: b
Encoding: 98 98 69
Width: 1024
Flags: W
LayerCount: 2
Fore
SplineSet
936 567 m 0,0,1
 936 371 936 371 800 239 c 0,2,3
 661 104 661 104 457 104 c 0,4,5
 382 104 382 104 279 121 c 0,6,7
 230 129 230 129 154 143 c 1,8,-1
 154 1253 l 2,9,10
 154 1351 154 1351 128 1365 c 0,11,12
 113 1372 113 1372 70 1378 c 2,13,-1
 12 1386 l 1,14,-1
 12 1421 l 1,15,-1
 258 1505 l 1,16,-1
 291 1505 l 1,17,-1
 291 819 l 1,18,19
 490 963 490 963 600 963 c 0,20,21
 738 963 738 963 837 845.5 c 128,-1,22
 936 728 936 728 936 567 c 0,0,1
799 510 m 0,23,24
 799 722 799 722 662 822 c 0,25,26
 598 868 598 868 520 868 c 0,27,28
 425 868 425 868 291 772 c 1,29,-1
 291 379 l 2,30,31
 291 281 291 281 353.5 222.5 c 128,-1,32
 416 164 416 164 514 164 c 0,33,34
 651 164 651 164 729 272 c 0,35,36
 799 368 799 368 799 510 c 0,23,24
EndSplineSet
Validated: 1
EndChar

StartChar: c
Encoding: 99 99 70
Width: 874
Flags: W
LayerCount: 2
Fore
SplineSet
801 317 m 1,0,1
 667 104 667 104 438 104 c 0,2,3
 217 104 217 104 131 320 c 0,4,5
 94 412 94 412 94 500 c 0,6,7
 94 766 94 766 330 901 c 0,8,9
 438 963 438 963 565 963 c 0,10,11
 698 963 698 963 765 906 c 0,12,13
 795 879 795 879 795 846 c 0,14,15
 795 784 795 784 735 784 c 0,16,17
 690 784 690 784 627 843 c 0,18,19
 556 909 556 909 496 909 c 0,20,21
 347 909 347 909 268 724 c 0,22,23
 231 639 231 639 231 545 c 0,24,25
 231 333 231 333 373 235 c 0,26,27
 439 188 439 188 520 188 c 0,28,29
 664 188 664 188 770 336 c 1,30,-1
 801 317 l 1,0,1
EndSplineSet
Validated: 1
EndChar

StartChar: d
Encoding: 100 100 71
Width: 1024
Flags: W
LayerCount: 2
Fore
SplineSet
1020 207 m 1,0,-1
 758 104 l 1,1,-1
 733 104 l 1,2,-1
 733 250 l 1,3,4
 531 104 531 104 416 104 c 0,5,6
 226 104 226 104 132 302 c 0,7,8
 88 392 88 392 88 500 c 0,9,10
 88 767 88 767 308 901 c 0,11,12
 411 963 411 963 532 963 c 0,13,14
 637 963 637 963 733 924 c 1,15,-1
 733 1321 l 2,16,17
 733 1355 733 1355 709 1367 c 0,18,19
 697 1373 697 1373 653 1378 c 2,20,-1
 586 1386 l 1,21,-1
 586 1421 l 1,22,-1
 870 1505 l 1,23,-1
 870 303 l 2,24,25
 870 228 870 228 930 228 c 0,26,27
 948 228 948 228 971 235 c 2,28,-1
 1020 250 l 1,29,-1
 1020 207 l 1,0,-1
733 295 m 1,30,-1
 733 754 l 1,31,32
 628 907 628 907 489 907 c 0,33,34
 328 907 328 907 258 741 c 0,35,36
 225 663 225 663 225 569 c 0,37,38
 225 435 225 435 290 323 c 0,39,40
 367 192 367 192 492 192 c 0,41,42
 588 192 588 192 733 295 c 1,30,-1
EndSplineSet
Validated: 1
EndChar

StartChar: e
Encoding: 101 101 72
Width: 897
Flags: W
LayerCount: 2
Fore
SplineSet
831 649 m 1,0,-1
 233 649 l 1,1,2
 225 587 225 587 225 563 c 0,3,4
 225 353 225 353 384 253 c 0,5,6
 456 207 456 207 537 207 c 0,7,8
 684 207 684 207 797 340 c 1,9,-1
 819 315 l 1,10,11
 652 104 652 104 455 104 c 0,12,13
 247 104 247 104 146 311 c 0,14,15
 98 407 98 407 98 524 c 0,16,17
 98 769 98 769 284 900 c 0,18,19
 373 963 373 963 494 963 c 0,20,21
 667 963 667 963 735 865 c 1,22,23
 762 803 762 803 831 696 c 1,24,-1
 831 649 l 1,0,-1
659 702 m 1,25,26
 638 837 638 837 548 896 c 0,27,28
 504 924 504 924 457 924 c 0,29,30
 295 924 295 924 240 702 c 1,31,-1
 659 702 l 1,25,26
EndSplineSet
Validated: 1
EndChar

StartChar: f
Encoding: 102 102 73
Width: 555
Flags: W
LayerCount: 2
Fore
SplineSet
844 1409 m 256,0,1
 844 1394 844 1394 822 1352.5 c 128,-1,2
 800 1311 800 1311 788 1311 c 0,3,4
 782 1311 782 1311 711 1360 c 0,5,6
 635 1411 635 1411 549 1411 c 0,7,8
 322 1411 322 1411 322 1096 c 2,9,-1
 322 940 l 1,10,-1
 528 940 l 1,11,-1
 543 850 l 1,12,-1
 322 850 l 1,13,-1
 322 289 l 2,14,15
 322 215 322 215 362 189 c 0,16,17
 393 168 393 168 473 168 c 2,18,-1
 551 168 l 1,19,-1
 551 129 l 1,20,-1
 45 129 l 1,21,-1
 45 168 l 1,22,23
 156 168 156 168 174 220 c 0,24,25
 184 248 184 248 184 309 c 2,26,-1
 184 850 l 1,27,-1
 33 850 l 1,28,-1
 33 885 l 1,29,30
 117 903 117 903 184 940 c 1,31,32
 184 1073 184 1073 218 1169 c 0,33,34
 255 1273 255 1273 342 1360 c 0,35,36
 487 1505 487 1505 633 1505 c 0,37,38
 741 1505 741 1505 814 1448 c 0,39,40
 844 1424 844 1424 844 1409 c 256,0,1
EndSplineSet
Validated: 1
EndChar

StartChar: g
Encoding: 103 103 74
Width: 961
Flags: W
LayerCount: 2
Fore
SplineSet
967 772 m 1,0,1
 854 779 854 779 762 797 c 1,2,3
 797 730 797 730 797 666 c 0,4,5
 797 495 797 495 629 410 c 0,6,7
 548 369 548 369 438 369 c 0,8,9
 393 369 393 369 344 385 c 1,10,11
 337 377 337 377 270 338 c 0,12,13
 219 307 219 307 219 281 c 0,14,15
 219 210 219 210 512 207 c 0,16,17
 664 206 664 206 707 201 c 0,18,19
 832 186 832 186 885 133 c 0,20,21
 946 72 946 72 946 -10 c 0,22,23
 946 -128 946 -128 805 -232 c 0,24,25
 647 -348 647 -348 387 -348 c 0,26,27
 272 -348 272 -348 186 -308 c 0,28,29
 72 -256 72 -256 72 -154 c 0,30,31
 72 -101 72 -101 109 -60 c 0,32,33
 125 -42 125 -42 191.5 8 c 128,-1,34
 258 58 258 58 291 98 c 1,35,36
 224 105 224 105 166 141 c 0,37,38
 96 184 96 184 96 244 c 0,39,40
 96 303 96 303 178 336 c 0,41,42
 225 354 225 354 305 395 c 1,43,44
 109 474 109 474 109 649 c 0,45,46
 109 749 109 749 172 829 c 0,47,48
 231 904 231 904 328 939 c 0,49,50
 393 963 393 963 469 963 c 0,51,52
 613 963 613 963 698 881 c 1,53,54
 782 881 782 881 886 892 c 0,55,56
 923 896 923 896 967 901 c 1,57,-1
 967 772 l 1,0,1
659 647 m 0,58,59
 659 761 659 761 610 836 c 0,60,61
 553 924 553 924 444 924 c 0,62,63
 345 924 345 924 293 854 c 0,64,65
 246 792 246 792 246 690 c 0,66,67
 246 534 246 534 342 451 c 0,68,69
 391 408 391 408 463 408 c 0,70,71
 559 408 559 408 612 482 c 0,72,73
 659 547 659 547 659 647 c 0,58,59
840 -47 m 0,74,75
 840 61 840 61 702 74 c 0,76,77
 677 76 677 76 641 78 c 2,78,-1
 413 86 l 2,79,80
 338 89 338 89 332 90 c 1,81,82
 290 55 290 55 217 -24 c 0,83,84
 199 -49 199 -49 199 -86 c 0,85,86
 199 -194 199 -194 352 -261 c 0,87,88
 421 -291 421 -291 502 -291 c 0,89,90
 686 -291 686 -291 792 -167 c 0,91,92
 840 -110 840 -110 840 -47 c 0,74,75
EndSplineSet
Validated: 1
EndChar

StartChar: h
Encoding: 104 104 75
Width: 1067
Flags: W
LayerCount: 2
Fore
SplineSet
1038 129 m 1,0,-1
 596 129 l 1,1,-1
 596 168 l 1,2,3
 678 168 678 168 710 201 c 0,4,5
 739 231 739 231 747.5 315 c 128,-1,6
 756 399 756 399 756 631 c 0,7,8
 756 879 756 879 569 879 c 0,9,10
 480 879 480 879 328 782 c 1,11,-1
 328 291 l 2,12,13
 328 217 328 217 358 192 c 0,14,15
 385 168 385 168 461 168 c 1,16,-1
 461 129 l 1,17,-1
 51 129 l 1,18,-1
 51 168 l 1,19,20
 134 172 134 172 163 208 c 0,21,22
 190 240 190 240 190 326 c 2,23,-1
 190 1307 l 2,24,25
 190 1367 190 1367 139 1374 c 2,26,-1
 51 1386 l 1,27,-1
 51 1421 l 1,28,-1
 295 1505 l 1,29,-1
 328 1505 l 1,30,-1
 328 834 l 1,31,32
 547 963 547 963 666 963 c 0,33,34
 893 963 893 963 893 657 c 0,35,36
 893 429 893 429 883 246 c 1,37,38
 885 190 885 190 944 176 c 0,39,40
 975 168 975 168 1038 168 c 1,41,-1
 1038 129 l 1,0,-1
EndSplineSet
Validated: 1
EndChar

StartChar: i
Encoding: 105 105 76
Width: 532
Flags: W
LayerCount: 2
Fore
SplineSet
350 1356 m 256,0,1
 350 1321 350 1321 323 1299.5 c 128,-1,2
 296 1278 296 1278 260 1278 c 0,3,4
 226 1278 226 1278 199 1300 c 128,-1,5
 172 1322 172 1322 172 1356 c 256,6,7
 172 1390 172 1390 199 1412 c 128,-1,8
 226 1434 226 1434 260 1434 c 0,9,10
 296 1434 296 1434 323 1412.5 c 128,-1,11
 350 1391 350 1391 350 1356 c 256,0,1
492 129 m 1,12,-1
 37 129 l 1,13,-1
 37 168 l 1,14,15
 125 168 125 168 164 198 c 0,16,17
 207 232 207 232 207 317 c 2,18,-1
 207 729 l 2,19,20
 207 803 207 803 184 816 c 0,21,22
 171 823 171 823 143 829 c 2,23,-1
 47 848 l 1,24,-1
 47 881 l 1,25,-1
 313 973 l 1,26,-1
 344 973 l 1,27,-1
 344 285 l 2,28,29
 344 168 344 168 492 168 c 1,30,-1
 492 129 l 1,12,-1
EndSplineSet
Validated: 1
EndChar

StartChar: j
Encoding: 106 106 77
Width: 512
Flags: W
LayerCount: 2
Fore
SplineSet
346 1356 m 256,0,1
 346 1321 346 1321 319 1299.5 c 128,-1,2
 292 1278 292 1278 256 1278 c 0,3,4
 222 1278 222 1278 195 1300 c 128,-1,5
 168 1322 168 1322 168 1356 c 256,6,7
 168 1390 168 1390 195 1412 c 128,-1,8
 222 1434 222 1434 256 1434 c 0,9,10
 292 1434 292 1434 319 1412.5 c 128,-1,11
 346 1391 346 1391 346 1356 c 256,0,1
344 92 m 2,12,13
 344 -113 344 -113 247.5 -230.5 c 128,-1,14
 151 -348 151 -348 4 -348 c 0,15,16
 -64 -348 -64 -348 -128 -326 c 0,17,18
 -215 -297 -215 -297 -215 -242 c 0,19,20
 -215 -212 -215 -212 -200 -182 c 0,21,22
 -181 -147 -181 -147 -154 -147 c 0,23,24
 -125 -147 -125 -147 -53 -208.5 c 128,-1,25
 19 -270 19 -270 70 -270 c 0,26,27
 207 -270 207 -270 207 -47 c 2,28,-1
 207 747 l 2,29,30
 207 792 207 792 194.5 807.5 c 128,-1,31
 182 823 182 823 139 831 c 2,32,-1
 47 848 l 1,33,-1
 47 881 l 1,34,-1
 315 973 l 1,35,-1
 344 973 l 1,36,-1
 344 92 l 2,12,13
EndSplineSet
Validated: 1
EndChar

StartChar: k
Encoding: 107 107 78
Width: 1024
Flags: W
LayerCount: 2
Fore
SplineSet
1016 129 m 1,0,-1
 575 129 l 1,1,-1
 575 168 l 1,2,3
 668 168 668 168 668 205 c 0,4,5
 668 226 668 226 637 258 c 2,6,-1
 326 582 l 1,7,-1
 326 268 l 2,8,9
 326 209 326 209 356 187 c 0,10,11
 382 168 382 168 444 168 c 2,12,-1
 465 168 l 1,13,-1
 465 129 l 1,14,-1
 45 129 l 1,15,-1
 45 168 l 1,16,17
 188 168 188 168 188 305 c 2,18,-1
 188 1294 l 2,19,20
 188 1336 188 1336 179 1351 c 0,21,22
 167 1369 167 1369 129 1374 c 2,23,-1
 45 1386 l 1,24,-1
 45 1421 l 1,25,-1
 295 1505 l 1,26,-1
 326 1505 l 1,27,-1
 326 616 l 1,28,-1
 621 827 l 2,29,30
 662 856 662 856 648 879 c 0,31,32
 634 901 634 901 578 901 c 2,33,-1
 543 901 l 1,34,-1
 543 940 l 1,35,-1
 948 940 l 1,36,-1
 948 901 l 1,37,38
 851 897 851 897 780 864 c 0,39,40
 732 843 732 843 633 772 c 2,41,-1
 444 637 l 1,42,-1
 772 303 l 2,43,44
 840 234 840 234 880 208 c 0,45,46
 942 169 942 169 1016 168 c 1,47,-1
 1016 129 l 1,0,-1
EndSplineSet
Validated: 1
EndChar

StartChar: l
Encoding: 108 108 79
Width: 492
Flags: W
LayerCount: 2
Fore
SplineSet
473 129 m 1,0,-1
 12 129 l 1,1,-1
 12 168 l 1,2,3
 99 168 99 168 136 193 c 0,4,5
 182 224 182 224 182 305 c 2,6,-1
 182 1294 l 2,7,8
 182 1339 182 1339 172 1353 c 0,9,10
 160 1372 160 1372 119 1376 c 2,11,-1
 27 1386 l 1,12,-1
 27 1421 l 1,13,-1
 289 1505 l 1,14,-1
 319 1505 l 1,15,-1
 319 291 l 2,16,17
 319 168 319 168 438 168 c 2,18,-1
 473 168 l 1,19,-1
 473 129 l 1,0,-1
EndSplineSet
Validated: 1
EndChar

StartChar: m
Encoding: 109 109 80
Width: 1622
Flags: W
LayerCount: 2
Fore
SplineSet
1620 129 m 1,0,-1
 1159 129 l 1,1,-1
 1159 168 l 1,2,-1
 1178 168 l 2,3,4
 1253 168 1253 168 1282 197 c 0,5,6
 1315 230 1315 230 1315 487 c 2,7,-1
 1315 647 l 2,8,9
 1315 881 1315 881 1161 881 c 0,10,11
 1063 881 1063 881 889 766 c 1,12,-1
 889 295 l 2,13,14
 889 219 889 219 914.5 193.5 c 128,-1,15
 940 168 940 168 1016 168 c 1,16,-1
 1016 129 l 1,17,-1
 596 129 l 1,18,-1
 596 168 l 1,19,20
 709 168 709 168 737 234 c 0,21,22
 752 269 752 269 752 326 c 2,23,-1
 752 704 l 2,24,25
 752 780 752 780 715 828 c 0,26,27
 674 881 674 881 600 881 c 0,28,29
 506 881 506 881 326 762 c 1,30,-1
 326 295 l 2,31,32
 326 194 326 194 379 178 c 0,33,34
 408 168 408 168 469 168 c 1,35,-1
 469 129 l 1,36,-1
 43 129 l 1,37,-1
 43 168 l 1,38,39
 127 168 127 168 159 206 c 0,40,41
 188 240 188 240 188 326 c 2,42,-1
 188 727 l 2,43,44
 188 778 188 778 181 796 c 0,45,46
 170 825 170 825 129 831 c 2,47,-1
 49 842 l 1,48,-1
 49 877 l 1,49,-1
 295 963 l 1,50,-1
 326 963 l 1,51,-1
 326 799 l 1,52,53
 559 963 559 963 690 963 c 0,54,55
 765 963 765 963 817.5 918 c 128,-1,56
 870 873 870 873 885 799 c 1,57,58
 969 853 969 853 1011 876 c 0,59,60
 1084 918 1084 918 1145 941 c 0,61,62
 1202 963 1202 963 1247 963 c 0,63,64
 1452 963 1452 963 1452 653 c 0,65,66
 1452 423 1452 423 1446 260 c 0,67,68
 1443 168 1443 168 1554 168 c 2,69,-1
 1620 168 l 1,70,-1
 1620 129 l 1,0,-1
EndSplineSet
Validated: 33
EndChar

StartChar: n
Encoding: 110 110 81
Width: 1067
Flags: W
LayerCount: 2
Fore
SplineSet
1042 129 m 1,0,-1
 602 129 l 1,1,-1
 602 168 l 1,2,3
 683 171 683 171 719 207 c 0,4,5
 762 250 762 250 762 668 c 0,6,7
 762 816 762 816 681 862 c 0,8,9
 643 883 643 883 600 883 c 0,10,11
 518 883 518 883 328 752 c 1,12,-1
 328 307 l 2,13,14
 328 200 328 200 380 180 c 0,15,16
 409 168 409 168 465 168 c 1,17,-1
 465 129 l 1,18,-1
 53 129 l 1,19,-1
 53 168 l 1,20,21
 190 168 190 168 190 297 c 2,22,-1
 190 727 l 2,23,24
 190 780 190 780 183 795 c 0,25,26
 173 818 173 818 129 827 c 2,27,-1
 59 842 l 1,28,-1
 59 874 l 1,29,-1
 295 960 l 1,30,-1
 328 960 l 1,31,-1
 328 801 l 1,32,33
 477 894 477 894 496 904 c 0,34,35
 606 963 606 963 680 963 c 0,36,37
 899 963 899 963 899 655 c 0,38,39
 899 478 899 478 888 322 c 0,40,41
 884 273 884 273 883 250 c 0,42,43
 880 168 880 168 997 168 c 2,44,-1
 1042 168 l 1,45,-1
 1042 129 l 1,0,-1
EndSplineSet
Validated: 33
EndChar

StartChar: o
Encoding: 111 111 82
Width: 1067
Flags: W
LayerCount: 2
Fore
SplineSet
975 532 m 0,0,1
 975 353 975 353 850 230 c 0,2,3
 722 104 722 104 541 104 c 0,4,5
 280 104 280 104 152 312 c 0,6,7
 92 408 92 408 92 528 c 0,8,9
 92 727 92 727 231 849 c 0,10,11
 360 963 360 963 535 963 c 0,12,13
 724 963 724 963 848 841 c 0,14,15
 975 716 975 716 975 532 c 0,0,1
821 481 m 0,16,17
 821 658 821 658 729.5 785.5 c 128,-1,18
 638 913 638 913 506 913 c 0,19,20
 405 913 405 913 325.5 821 c 128,-1,21
 246 729 246 729 246 598 c 0,22,23
 246 341 246 341 404 214 c 0,24,25
 477 154 477 154 563 154 c 0,26,27
 704 154 704 154 783 309 c 0,28,29
 821 383 821 383 821 481 c 0,16,17
EndSplineSet
Validated: 1
EndChar

StartChar: p
Encoding: 112 112 83
Width: 1024
Flags: W
LayerCount: 2
Fore
SplineSet
928 575 m 0,0,1
 928 455 928 455 869.5 349 c 128,-1,2
 811 243 811 243 710 179 c 128,-1,3
 609 115 609 115 494 115 c 0,4,5
 417 115 417 115 307 156 c 1,6,-1
 307 -176 l 2,7,8
 307 -309 307 -309 444 -309 c 2,9,-1
 496 -309 l 1,10,-1
 496 -348 l 1,11,-1
 12 -348 l 1,12,-1
 12 -309 l 1,13,-1
 33 -309 l 2,14,15
 114 -309 114 -309 143 -274 c 0,16,17
 170 -242 170 -242 170 -158 c 2,18,-1
 170 745 l 2,19,20
 170 799 170 799 113 813 c 2,21,-1
 47 829 l 1,22,-1
 47 868 l 1,23,-1
 266 1003 l 1,24,-1
 307 1003 l 1,25,-1
 307 807 l 1,26,27
 504 956 504 956 625 956 c 0,28,29
 793 956 793 956 886 761 c 0,30,31
 928 673 928 673 928 575 c 0,0,1
791 483 m 0,32,33
 791 726 791 726 644 818 c 0,34,35
 582 856 582 856 522 856 c 0,36,37
 424 856 424 856 307 756 c 1,38,-1
 307 289 l 1,39,40
 431 178 431 178 549 178 c 0,41,42
 692 178 692 178 760 329 c 0,43,44
 791 399 791 399 791 483 c 0,32,33
EndSplineSet
Validated: 1
EndChar

StartChar: q
Encoding: 113 113 84
Width: 1024
Flags: W
LayerCount: 2
Fore
SplineSet
1016 -348 m 1,0,-1
 520 -348 l 1,1,-1
 520 -309 l 1,2,-1
 600 -309 l 2,3,4
 682 -309 682 -309 711 -271 c 0,5,6
 737 -237 737 -237 737 -152 c 2,7,-1
 737 256 l 1,8,9
 574 113 574 113 428 113 c 0,10,11
 273 113 273 113 179 239 c 0,12,13
 94 354 94 354 94 514 c 0,14,15
 94 773 94 773 308 903 c 0,16,17
 407 963 407 963 526 963 c 0,18,19
 647 963 647 963 784 893 c 1,20,21
 818 938 818 938 852 958 c 1,22,-1
 887 958 l 1,23,24
 874 900 874 900 874 854 c 2,25,-1
 874 -184 l 2,26,27
 874 -309 874 -309 993 -309 c 2,28,-1
 1016 -309 l 1,29,-1
 1016 -348 l 1,0,-1
737 303 m 1,30,-1
 737 668 l 2,31,32
 737 815 737 815 624 881 c 0,33,34
 571 911 571 911 506 911 c 0,35,36
 368 911 368 911 294 802 c 0,37,38
 231 709 231 709 231 567 c 0,39,40
 231 427 231 427 301 321 c 0,41,42
 381 199 381 199 514 199 c 0,43,44
 633 199 633 199 737 303 c 1,30,-1
EndSplineSet
Validated: 1
EndChar

StartChar: r
Encoding: 114 114 85
Width: 682
Flags: W
LayerCount: 2
Fore
SplineSet
702 901 m 1,0,-1
 653 778 l 1,1,2
 604 785 604 785 545 811 c 0,3,4
 500 831 500 831 473 831 c 0,5,6
 431 831 431 831 393 778 c 0,7,8
 346 713 346 713 328 676 c 1,9,-1
 328 279 l 2,10,11
 328 212 328 212 362 188 c 0,12,13
 390 168 390 168 461 168 c 2,14,-1
 539 168 l 1,15,-1
 539 129 l 1,16,-1
 53 129 l 1,17,-1
 53 168 l 1,18,19
 131 169 131 169 162 207 c 0,20,21
 190 241 190 241 190 322 c 2,22,-1
 190 795 l 1,23,-1
 53 844 l 1,24,-1
 53 879 l 1,25,-1
 287 960 l 1,26,-1
 328 960 l 1,27,-1
 332 743 l 1,28,29
 390 838 390 838 394 844 c 0,30,31
 440 914 440 914 468 934 c 0,32,33
 492 950 492 950 526 950 c 0,34,35
 551 950 551 950 596 932 c 1,36,-1
 702 901 l 1,0,-1
EndSplineSet
Validated: 1
EndChar

StartChar: s
Encoding: 115 115 86
Width: 618
Flags: W
LayerCount: 2
Fore
SplineSet
553 338 m 0,0,1
 553 235 553 235 478.5 169.5 c 128,-1,2
 404 104 404 104 299 104 c 0,3,4
 250 104 250 104 209 119 c 1,5,6
 163 131 163 131 154 131 c 0,7,8
 134 131 134 131 119 106 c 1,9,-1
 88 106 l 1,10,-1
 66 336 l 1,11,-1
 98 336 l 1,12,13
 116 255 116 255 162 203 c 0,14,15
 216 143 216 143 293 143 c 0,16,17
 377 143 377 143 419 211 c 0,18,19
 438 243 438 243 438 279 c 0,20,21
 438 339 438 339 373 403 c 0,22,23
 335 441 335 441 234 510 c 0,24,25
 140 574 140 574 103 615.5 c 128,-1,26
 66 657 66 657 66 733 c 0,27,28
 66 840 66 840 145 904 c 0,29,30
 219 963 219 963 328 963 c 0,31,32
 406 963 406 963 492 930 c 1,33,-1
 496 743 l 1,34,-1
 461 743 l 1,35,36
 446 848 446 848 374 892 c 0,37,38
 339 913 339 913 297 913 c 0,39,40
 246 913 246 913 209 881 c 128,-1,41
 172 849 172 849 172 799 c 0,42,43
 172 736 172 736 236 680 c 0,44,45
 256 663 256 663 353 601 c 128,-1,46
 450 539 450 539 490 494 c 0,47,48
 553 424 553 424 553 338 c 0,0,1
EndSplineSet
Validated: 1
EndChar

StartChar: t
Encoding: 116 116 87
Width: 598
Flags: W
LayerCount: 2
Fore
SplineSet
584 272 m 1,0,1
 507 104 507 104 360 104 c 0,2,3
 266 104 266 104 208 177 c 0,4,5
 154 245 154 245 154 342 c 2,6,-1
 154 850 l 1,7,-1
 59 850 l 1,8,-1
 59 883 l 1,9,10
 139 922 139 922 201 1026 c 0,11,12
 231 1077 231 1077 256 1143 c 1,13,-1
 291 1143 l 1,14,-1
 291 940 l 1,15,-1
 584 940 l 1,16,-1
 551 850 l 1,17,-1
 291 850 l 1,18,-1
 291 373 l 2,19,20
 291 309 291 309 325 259 c 0,21,22
 365 201 365 201 426 201 c 0,23,24
 493 201 493 201 551 303 c 1,25,-1
 584 272 l 1,0,1
EndSplineSet
Validated: 1
EndChar

StartChar: u
Encoding: 117 117 88
Width: 1067
Flags: W
LayerCount: 2
Fore
SplineSet
1018 188 m 1,0,-1
 743 104 l 1,1,-1
 743 268 l 1,2,3
 515 104 515 104 395 104 c 0,4,5
 304 104 304 104 241 163 c 128,-1,6
 178 222 178 222 178 313 c 2,7,-1
 178 768 l 2,8,9
 178 837 178 837 123 852 c 2,10,-1
 51 872 l 1,11,-1
 51 903 l 1,12,-1
 315 960 l 1,13,-1
 315 387 l 2,14,15
 315 304 315 304 366 253.5 c 128,-1,16
 417 203 417 203 500 203 c 0,17,18
 607 203 607 203 743 315 c 1,19,-1
 743 756 l 2,20,21
 743 812 743 812 732 831 c 0,22,23
 718 855 718 855 668 864 c 2,24,-1
 565 883 l 1,25,-1
 565 911 l 1,26,-1
 881 960 l 1,27,-1
 881 270 l 2,28,29
 881 216 881 216 917 212 c 0,30,31
 934 209 934 209 975 217 c 2,32,-1
 1018 225 l 1,33,-1
 1018 188 l 1,0,-1
EndSplineSet
Validated: 1
EndChar

StartChar: v
Encoding: 118 118 89
Width: 981
Flags: W
LayerCount: 2
Fore
SplineSet
969 903 m 1,0,1
 865 885 865 885 807 754 c 2,2,-1
 524 111 l 1,3,-1
 465 111 l 1,4,-1
 168 791 l 2,5,6
 127 885 127 885 78 893 c 2,7,-1
 14 903 l 1,8,-1
 14 940 l 1,9,-1
 432 940 l 1,10,-1
 432 903 l 1,11,12
 333 900 333 900 308 879 c 0,13,14
 285 860 285 860 317 786 c 2,15,-1
 535 276 l 1,16,-1
 743 750 l 2,17,18
 773 818 773 818 746 857 c 256,19,20
 719 896 719 896 612 903 c 1,21,-1
 612 940 l 1,22,-1
 969 940 l 1,23,-1
 969 903 l 1,0,1
EndSplineSet
Validated: 33
EndChar

StartChar: w
Encoding: 119 119 90
Width: 1516
Flags: W
LayerCount: 2
Fore
SplineSet
1507 903 m 1,0,1
 1429 895 1429 895 1384 838 c 0,2,3
 1359 806 1359 806 1339 756 c 2,4,-1
 1075 111 l 1,5,-1
 1020 111 l 1,6,-1
 776 688 l 1,7,-1
 530 111 l 1,8,-1
 473 111 l 1,9,-1
 168 799 l 2,10,11
 127 891 127 891 16 903 c 1,12,-1
 16 940 l 1,13,-1
 414 940 l 1,14,-1
 414 903 l 1,15,16
 302 897 302 897 304 845 c 0,17,18
 305 817 305 817 328 766 c 2,19,-1
 549 272 l 1,20,-1
 750 747 l 1,21,22
 692 885 692 885 598 897 c 2,23,-1
 549 903 l 1,24,-1
 549 940 l 1,25,-1
 973 940 l 1,26,-1
 973 903 l 1,27,28
 895 901 895 901 875 872 c 0,29,30
 854 843 854 843 885 768 c 2,31,-1
 1085 281 l 1,32,-1
 1282 760 l 2,33,34
 1315 841 1315 841 1289 872 c 0,35,36
 1261 903 1261 903 1163 903 c 1,37,-1
 1163 940 l 1,38,-1
 1507 940 l 1,39,-1
 1507 903 l 1,0,1
EndSplineSet
Validated: 33
EndChar

StartChar: x
Encoding: 120 120 91
Width: 1004
Flags: W
LayerCount: 2
Fore
SplineSet
991 129 m 1,0,-1
 582 129 l 1,1,-1
 582 170 l 1,2,3
 658 170 658 170 676 189 c 0,4,5
 693 208 693 208 655 256 c 2,6,-1
 473 489 l 1,7,-1
 293 287 l 2,8,9
 267 257 267 257 267 233 c 0,10,11
 267 170 267 170 397 170 c 1,12,-1
 397 129 l 1,13,-1
 16 129 l 1,14,-1
 16 170 l 1,15,16
 90 170 90 170 134 195 c 0,17,18
 170 214 170 214 225 276 c 2,19,-1
 444 522 l 1,20,-1
 246 782 l 2,21,22
 158 898 158 898 31 903 c 1,23,-1
 31 940 l 1,24,-1
 444 940 l 1,25,-1
 444 903 l 1,26,27
 375 903 375 903 361 884 c 0,28,29
 345 861 345 861 377 819 c 2,30,-1
 530 616 l 1,31,-1
 664 766 l 2,32,33
 702 809 702 809 702 841 c 0,34,35
 702 903 702 903 596 903 c 1,36,-1
 596 940 l 1,37,-1
 991 940 l 1,38,-1
 991 903 l 1,39,-1
 932 897 l 2,40,41
 831 887 831 887 731 776 c 2,42,-1
 557 584 l 1,43,-1
 803 276 l 2,44,45
 847 221 847 221 889 194 c 0,46,47
 925 170 925 170 991 170 c 1,48,-1
 991 129 l 1,0,-1
EndSplineSet
Validated: 33
EndChar

StartChar: y
Encoding: 121 121 92
Width: 961
Flags: W
LayerCount: 2
Fore
SplineSet
950 903 m 1,0,1
 872 895 872 895 824 824 c 0,2,3
 800 788 800 788 780 739 c 2,4,-1
 432 -129 l 2,5,6
 344 -348 344 -348 252 -348 c 0,7,8
 219 -348 219 -348 195 -329 c 0,9,10
 168 -309 168 -309 168 -277 c 0,11,12
 168 -240 168 -240 201 -221 c 0,13,14
 214 -213 214 -213 267 -197 c 128,-1,15
 320 -181 320 -181 338 -162 c 0,16,17
 378 -121 378 -121 408 -45 c 2,18,-1
 469 109 l 1,19,-1
 152 782 l 2,20,21
 122 847 122 847 91 871 c 0,22,23
 55 902 55 902 -10 903 c 1,24,-1
 -10 940 l 1,25,-1
 401 940 l 1,26,-1
 401 903 l 1,27,28
 311 902 311 902 292 874 c 0,29,30
 272 845 272 845 303 778 c 2,31,-1
 535 279 l 1,32,-1
 709 713 l 2,33,34
 738 785 738 785 738 826 c 0,35,36
 738 849 738 849 730 862 c 0,37,38
 706 900 706 900 610 903 c 1,39,-1
 610 940 l 1,40,-1
 950 940 l 1,41,-1
 950 903 l 1,0,1
EndSplineSet
Validated: 33
EndChar

StartChar: z
Encoding: 122 122 93
Width: 831
Flags: W
LayerCount: 2
Fore
SplineSet
807 352 m 1,0,-1
 723 129 l 1,1,-1
 63 129 l 1,2,-1
 63 168 l 1,3,-1
 582 866 l 1,4,-1
 236 866 l 2,5,6
 200 866 200 866 180 825 c 0,7,8
 167 798 167 798 127 670 c 1,9,-1
 88 670 l 1,10,-1
 152 995 l 1,11,-1
 186 995 l 1,12,13
 186 957 186 957 218 946 c 0,14,15
 234 940 234 940 283 940 c 2,16,-1
 770 940 l 1,17,-1
 770 903 l 1,18,-1
 254 203 l 1,19,-1
 629 203 l 2,20,21
 684 203 684 203 721 253 c 0,22,23
 741 280 741 280 770 352 c 1,24,-1
 807 352 l 1,0,-1
EndSplineSet
Validated: 1
EndChar

StartChar: braceleft
Encoding: 123 123 94
Width: 981
Flags: W
LayerCount: 2
Fore
SplineSet
768 -348 m 1,0,1
 617 -334 617 -334 506 -225 c 0,2,3
 391 -112 391 -112 391 37 c 0,4,5
 391 113 391 113 414 209 c 0,6,7
 438 309 438 309 438 356 c 0,8,9
 438 438 438 438 363 496 c 0,10,11
 300 545 300 545 211 561 c 1,12,-1
 211 596 l 1,13,14
 347 621 347 621 409 711 c 0,15,16
 438 752 438 752 438 801 c 0,17,18
 438 848 438 848 414 948 c 0,19,20
 391 1044 391 1044 391 1120 c 0,21,22
 391 1269 391 1269 506 1382 c 0,23,24
 617 1491 617 1491 768 1505 c 1,25,-1
 768 1468 l 1,26,27
 626 1454 626 1454 565 1338 c 0,28,29
 537 1285 537 1285 537 1231 c 0,30,31
 537 1174 537 1174 556 1068.5 c 128,-1,32
 575 963 575 963 575 909 c 0,33,34
 575 770 575 770 443 661 c 0,35,36
 378 608 378 608 291 578 c 1,37,38
 466 522 466 522 541 379 c 0,39,40
 575 314 575 314 575 248 c 0,41,42
 575 194 575 194 556 87.5 c 128,-1,43
 537 -19 537 -19 537 -74 c 0,44,45
 537 -170 537 -170 604 -236 c 128,-1,46
 671 -302 671 -302 768 -311 c 1,47,-1
 768 -348 l 1,0,1
EndSplineSet
Validated: 1
EndChar

StartChar: bar
Encoding: 124 124 95
Width: 1044
Flags: W
LayerCount: 2
Fore
SplineSet
567 -348 m 1,0,-1
 479 -348 l 1,1,-1
 479 1434 l 1,2,-1
 567 1434 l 1,3,-1
 567 -348 l 1,0,-1
EndSplineSet
Validated: 1
EndChar

StartChar: braceright
Encoding: 125 125 96
Width: 981
Flags: W
LayerCount: 2
Fore
SplineSet
770 561 m 1,0,1
 682 545 682 545 619 496 c 0,2,3
 543 437 543 437 543 356 c 0,4,5
 543 298 543 298 565 209 c 0,6,7
 590 108 590 108 590 37 c 0,8,9
 590 -158 590 -158 407 -281 c 0,10,11
 321 -338 321 -338 213 -348 c 1,12,-1
 213 -311 l 1,13,14
 353 -297 353 -297 416 -181 c 0,15,16
 444 -129 444 -129 444 -74 c 0,17,18
 444 -20 444 -20 425 86.5 c 128,-1,19
 406 193 406 193 406 248 c 0,20,21
 406 362 406 362 494 457 c 0,22,23
 575 542 575 542 690 582 c 1,24,25
 515 634 515 634 440 780 c 0,26,27
 406 845 406 845 406 909 c 0,28,29
 406 964 406 964 425 1070.5 c 128,-1,30
 444 1177 444 1177 444 1231 c 0,31,32
 444 1351 444 1351 337 1426 c 0,33,34
 285 1461 285 1461 213 1468 c 1,35,-1
 213 1505 l 1,36,37
 328 1495 328 1495 422.5 1426.5 c 128,-1,38
 517 1358 517 1358 562 1253 c 0,39,40
 590 1187 590 1187 590 1120 c 0,41,42
 590 1065 590 1065 566.5 960 c 128,-1,43
 543 855 543 855 543 801 c 0,44,45
 543 720 543 720 619 662 c 0,46,47
 682 613 682 613 770 596 c 1,48,-1
 770 561 l 1,0,1
EndSplineSet
Validated: 1
EndChar

StartChar: asciitilde
Encoding: 126 126 97
Width: 1203
Flags: W
LayerCount: 2
Fore
SplineSet
282 193 m 1,1,-1
 -56 194 l 1,2,-1
 55 1 l 1,3,-1
 1117 1 l 1,4,5
 1299 231 1299 231 1220.5 421 c 128,-1,6
 1142 611 1142 611 928.5 647 c 128,-1,7
 715 683 715 683 605.5 467.5 c 128,-1,0
 496 252 496 252 282 193 c 1,1,-1
1034 406.5 m 128,-1,9
 1111 290 1111 290 985 204 c 1,10,-1
 594 204 l 1,11,12
 723 284 723 284 801 427 c 1,13,8
 957 523 957 523 1034 406.5 c 128,-1,9
EndSplineSet
Validated: 41
EndChar

StartChar: delete
Encoding: 127 127 98
Width: 1600
Flags: W
LayerCount: 2
Fore
SplineSet
1520 129 m 1,0,-1
 1154 129 l 1,1,-1
 1154 715 l 1,2,-1
 1232 715 l 1,3,-1
 1232 198 l 1,4,-1
 1520 198 l 1,5,-1
 1520 129 l 1,0,-1
1080 129 m 1,6,-1
 642 129 l 1,7,-1
 642 715 l 1,8,-1
 1066 715 l 1,9,-1
 1066 646 l 1,10,-1
 720 646 l 1,11,-1
 720 467 l 1,12,-1
 1044 467 l 1,13,-1
 1044 398 l 1,14,-1
 720 398 l 1,15,-1
 720 198 l 1,16,-1
 1080 198 l 1,17,-1
 1080 129 l 1,6,-1
572 425 m 0,18,19
 572 299 572 299 516 222 c 0,20,21
 470 158 470 158 393 139 c 0,22,23
 352 129 352 129 298 129 c 2,24,-1
 87 129 l 1,25,-1
 87 715 l 1,26,-1
 289 715 l 2,27,28
 357 715 357 715 393 707 c 0,29,30
 505 681 505 681 549 565 c 0,31,32
 572 504 572 504 572 425 c 0,18,19
492 427 m 0,33,34
 492 594 492 594 388 634 c 0,35,36
 357 646 357 646 288 646 c 2,37,-1
 164 646 l 1,38,-1
 164 198 l 1,39,-1
 290 198 l 2,40,41
 392 198 392 198 433 239 c 0,42,43
 492 298 492 298 492 427 c 0,33,34
EndSplineSet
Validated: 1
EndChar

StartChar: exclamdown
Encoding: 161 161 100
Width: 569
Flags: W
LayerCount: 2
Fore
SplineSet
379 986 m 0,0,1
 379 948 379 948 352.5 921 c 128,-1,2
 326 894 326 894 289 894 c 256,3,4
 252 894 252 894 226 921 c 128,-1,5
 200 948 200 948 201 986 c 0,6,7
 202 1022 202 1022 227.5 1047 c 128,-1,8
 253 1072 253 1072 289 1072 c 0,9,10
 326 1072 326 1072 352.5 1046.5 c 128,-1,11
 379 1021 379 1021 379 986 c 0,0,1
375 136 m 0,12,13
 375 -18 375 -18 287 -18 c 0,14,15
 197 -18 197 -18 197 138 c 0,16,17
 197 201 197 201 230 389.5 c 128,-1,18
 263 578 263 578 264 707 c 2,19,-1
 265 824 l 1,20,-1
 306 824 l 1,21,-1
 307 709 l 2,22,23
 308 581 308 581 342 391 c 0,24,25
 375 205 375 205 375 136 c 0,12,13
EndSplineSet
Validated: 33
EndChar

StartChar: cent
Encoding: 162 162 101
Width: 874
Flags: W
LayerCount: 2
Fore
SplineSet
801 317 m 1,0,1
 693 147 693 147 531 113 c 0,2,3
 493 104 493 104 452 104 c 0,4,5
 402 104 402 104 348 117 c 1,6,-1
 213 -215 l 1,7,-1
 147 -215 l 1,8,-1
 291 137 l 1,9,10
 94 250 94 250 94 500 c 0,11,12
 94 631 94 631 163.5 742 c 128,-1,13
 233 853 233 853 351 913 c 0,14,15
 450 963 450 963 565 963 c 0,16,17
 591 963 591 963 618 960 c 1,18,-1
 725 1221 l 1,19,-1
 791 1221 l 1,20,-1
 680 946 l 1,21,22
 795 912 795 912 795 846 c 0,23,24
 795 784 795 784 735 784 c 0,25,26
 686 784 686 784 633 834 c 1,27,-1
 389 221 l 1,28,29
 465 188 465 188 522 188 c 0,30,31
 658 188 658 188 772 336 c 1,32,-1
 801 317 l 1,0,1
586 874 m 1,33,34
 533 909 533 909 496 909 c 0,35,36
 347 909 347 909 268 724 c 0,37,38
 231 639 231 639 231 545 c 0,39,40
 231 381 231 381 338 262 c 1,41,-1
 586 874 l 1,33,34
EndSplineSet
Validated: 1
EndChar

StartChar: sterling
Encoding: 163 163 102
Width: 1556
Flags: W
LayerCount: 2
Fore
SplineSet
1507 1335 m 0,0,1
 1507 1272 1507 1272 1442 1272 c 0,2,3
 1410 1272 1410 1272 1354 1320 c 0,4,5
 1313 1357 1313 1357 1272 1393 c 0,6,7
 1248 1411 1248 1411 1188 1411 c 0,8,9
 1112 1411 1112 1411 1037.5 1336.5 c 128,-1,10
 963 1262 963 1262 807 880 c 0,11,12
 697 611 697 611 688 591 c 0,13,14
 618 427 618 427 555 309 c 1,15,-1
 907 309 l 1,16,-1
 897 260 l 1,17,-1
 532 260 l 1,18,19
 463 112 463 112 358 -16 c 1,20,-1
 362 -21 l 1,21,22
 465 35 465 35 586 35 c 0,23,24
 728 35 728 35 911 -99 c 0,25,26
 1000 -164 1000 -164 1030 -181 c 0,27,28
 1101 -221 1101 -221 1167 -221 c 0,29,30
 1239 -221 1239 -221 1292 -182 c 0,31,32
 1352 -139 1352 -139 1352 -70 c 0,33,34
 1352 -36 1352 -36 1323 15 c 128,-1,35
 1294 66 1294 66 1294 80 c 0,36,37
 1294 111 1294 111 1314.5 133.5 c 128,-1,38
 1335 156 1335 156 1366 156 c 0,39,40
 1412 156 1412 156 1436 108 c 0,41,42
 1456 70 1456 70 1456 20 c 0,43,44
 1456 -70 1456 -70 1398 -153 c 0,45,46
 1344 -228 1344 -228 1259 -274 c 0,47,48
 1171 -322 1171 -322 1075 -322 c 0,49,50
 930 -322 930 -322 756 -175 c 0,51,52
 670 -103 670 -103 631 -79 c 0,53,54
 556 -33 556 -33 483 -33 c 0,55,56
 414 -33 414 -33 317 -80 c 1,57,58
 277 -162 277 -162 223 -227 c 0,59,60
 148 -317 148 -317 84 -317 c 0,61,62
 65 -317 65 -317 47 -303 c 128,-1,63
 29 -289 29 -289 29 -270 c 0,64,65
 29 -208 29 -208 121 -134 c 0,66,67
 196 -75 196 -75 270 -47 c 1,68,69
 330 56 330 56 406 260 c 1,70,-1
 104 260 l 1,71,-1
 115 309 l 1,72,-1
 426 309 l 1,73,-1
 586 723 l 2,74,75
 747 1140 747 1140 936 1329 c 0,76,77
 1043 1436 1043 1436 1152 1466 c 0,78,79
 1208 1481 1208 1481 1266 1481 c 0,80,81
 1403 1481 1403 1481 1475 1408 c 0,82,83
 1507 1374 1507 1374 1507 1335 c 0,0,1
EndSplineSet
Validated: 1
EndChar

StartChar: currency
Encoding: 164 164 103
Width: 1366
Flags: W
LayerCount: 2
Fore
SplineSet
1153 379 m 1,0,-1
 1092 317 l 1,1,-1
 967 442 l 1,2,3
 826 340 826 340 684 340 c 0,4,5
 545 340 545 340 401 440 c 1,6,-1
 276 317 l 1,7,-1
 215 379 l 1,8,-1
 340 502 l 1,9,10
 240 640 240 640 240 784 c 0,11,12
 240 932 240 932 340 1067 c 1,13,-1
 215 1190 l 1,14,-1
 276 1253 l 1,15,-1
 401 1130 l 1,16,17
 541 1229 541 1229 684 1229 c 0,18,19
 828 1229 828 1229 967 1128 c 1,20,-1
 1092 1253 l 1,21,-1
 1153 1190 l 1,22,-1
 1028 1067 l 1,23,24
 1128 933 1128 933 1128 784 c 0,25,26
 1128 642 1128 642 1028 504 c 1,27,-1
 1153 379 l 1,0,-1
1040 784 m 0,28,29
 1040 990 1040 990 861 1094 c 0,30,31
 779 1141 779 1141 684 1141 c 0,32,33
 479 1141 479 1141 376 963 c 0,34,35
 328 880 328 880 328 784 c 0,36,37
 328 582 328 582 506 477 c 0,38,39
 587 428 587 428 684 428 c 0,40,41
 831 428 831 428 935.5 533.5 c 128,-1,42
 1040 639 1040 639 1040 784 c 0,28,29
EndSplineSet
Validated: 1
EndChar

StartChar: yen
Encoding: 165 165 104
Width: 1024
Flags: W
LayerCount: 2
Fore
SplineSet
1194 1364 m 1,0,1
 1026 1352 1026 1352 938 1202 c 2,2,-1
 858 1065 l 1,3,-1
 1085 1065 l 1,4,-1
 1085 997 l 1,5,-1
 817 997 l 1,6,-1
 627 676 l 1,7,-1
 1085 676 l 1,8,-1
 1085 608 l 1,9,-1
 598 608 l 1,10,-1
 598 319 l 2,11,12
 598 234 598 234 638 200 c 0,13,14
 675 168 675 168 762 168 c 2,15,-1
 788 168 l 1,16,-1
 788 129 l 1,17,-1
 225 129 l 1,18,-1
 225 168 l 1,19,-1
 264 168 l 2,20,21
 350 168 350 168 387 198 c 0,22,23
 428 231 428 231 428 315 c 2,24,-1
 428 608 l 1,25,-1
 -121 608 l 1,26,-1
 -121 676 l 1,27,-1
 383 676 l 1,28,-1
 176 997 l 1,29,-1
 -121 997 l 1,30,-1
 -121 1065 l 1,31,-1
 133 1065 l 1,32,-1
 63 1173 l 2,33,34
 17 1245 17 1245 -8 1274 c 0,35,36
 -56 1331 -56 1331 -105 1348 c 0,37,38
 -147 1362 -147 1362 -217 1364 c 1,39,-1
 -217 1403 l 1,40,-1
 328 1403 l 1,41,-1
 328 1364 l 1,42,43
 180 1364 180 1364 184 1310 c 0,44,45
 186 1281 186 1281 219 1231 c 2,46,-1
 328 1065 l 1,47,-1
 748 1065 l 1,48,-1
 836 1216 l 2,49,50
 867 1268 867 1268 867 1301 c 0,51,52
 867 1364 867 1364 731 1364 c 1,53,-1
 731 1403 l 1,54,-1
 1194 1403 l 1,55,-1
 1194 1364 l 1,0,1
707 997 m 1,56,-1
 371 997 l 1,57,-1
 547 725 l 1,58,-1
 707 997 l 1,56,-1
EndSplineSet
Validated: 33
EndChar

StartChar: brokenbar
Encoding: 166 166 105
Width: 1044
Flags: W
LayerCount: 2
Fore
SplineSet
567 678 m 1,0,-1
 479 678 l 1,1,-1
 479 1434 l 1,2,-1
 567 1434 l 1,3,-1
 567 678 l 1,0,-1
567 -348 m 1,4,-1
 479 -348 l 1,5,-1
 479 408 l 1,6,-1
 567 408 l 1,7,-1
 567 -348 l 1,4,-1
EndSplineSet
Validated: 1
EndChar

StartChar: section
Encoding: 167 167 106
Width: 961
Flags: W
LayerCount: 2
Fore
SplineSet
852 166 m 0,0,1
 852 -54 852 -54 695 -193 c 0,2,3
 547 -324 547 -324 385 -324 c 0,4,5
 312 -324 312 -324 234 -294 c 0,6,7
 133 -256 133 -256 133 -195 c 0,8,9
 133 -169 133 -169 153 -149 c 128,-1,10
 173 -129 173 -129 199 -129 c 0,11,12
 231 -129 231 -129 284 -175 c 0,13,14
 324 -209 324 -209 363 -244 c 0,15,16
 391 -264 391 -264 455 -264 c 0,17,18
 558 -264 558 -264 615 -183 c 0,19,20
 641 -146 641 -146 641 -104 c 0,21,22
 641 -30 641 -30 541 122 c 1,23,-1
 393 328 l 2,24,25
 259 519 259 519 203 626 c 0,26,27
 106 811 106 811 106 960 c 0,28,29
 106 1169 106 1169 241.5 1325 c 128,-1,30
 377 1481 377 1481 567 1481 c 0,31,32
 706 1481 706 1481 791 1411 c 0,33,34
 829 1379 829 1379 829 1348 c 0,35,36
 829 1282 829 1282 756 1282 c 0,37,38
 721 1282 721 1282 657 1345 c 0,39,40
 580 1419 580 1419 506 1419 c 0,41,42
 400 1419 400 1419 345 1336 c 0,43,44
 319 1298 319 1298 319 1253 c 0,45,46
 319 1186 319 1186 427 1024 c 1,47,48
 503 919 503 919 578 815 c 0,49,50
 715 625 715 625 769 511 c 0,51,52
 852 339 852 339 852 166 c 0,0,1
774 145 m 0,53,54
 774 307 774 307 707 450 c 0,55,56
 666 539 666 539 541 719 c 2,57,-1
 445 858 l 2,58,59
 332 1022 332 1022 284 1131 c 0,60,61
 257 1192 257 1192 250 1237 c 1,62,63
 182 1126 182 1126 182 981 c 0,64,65
 182 865 182 865 237 740 c 0,66,67
 268 670 268 670 358 522 c 1,68,69
 457 383 457 383 641 95 c 1,70,71
 693 2 693 2 707 -82 c 1,72,73
 774 18 774 18 774 145 c 0,53,54
EndSplineSet
Validated: 1
EndChar

StartChar: dieresis
Encoding: 168 168 107
Width: 682
Flags: W
LayerCount: 2
Fore
SplineSet
631 1274 m 256,0,1
 631 1236 631 1236 605 1210 c 128,-1,2
 579 1184 579 1184 541 1184 c 256,3,4
 503 1184 503 1184 477 1210 c 128,-1,5
 451 1236 451 1236 451 1274 c 256,6,7
 451 1312 451 1312 477 1338 c 128,-1,8
 503 1364 503 1364 541 1364 c 256,9,10
 579 1364 579 1364 605 1338 c 128,-1,11
 631 1312 631 1312 631 1274 c 256,0,1
233 1274 m 256,12,13
 233 1236 233 1236 207 1210 c 128,-1,14
 181 1184 181 1184 143 1184 c 256,15,16
 105 1184 105 1184 79 1210 c 128,-1,17
 53 1236 53 1236 53 1274 c 256,18,19
 53 1312 53 1312 79 1338 c 128,-1,20
 105 1364 105 1364 143 1364 c 256,21,22
 181 1364 181 1364 207 1338 c 128,-1,23
 233 1312 233 1312 233 1274 c 256,12,13
EndSplineSet
Validated: 1
EndChar

StartChar: copyright
Encoding: 169 169 108
Width: 1556
Flags: W
LayerCount: 2
Fore
SplineSet
1487 807 m 256,0,1
 1487 616 1487 616 1392.5 453 c 128,-1,2
 1298 290 1298 290 1134 194 c 128,-1,3
 970 98 970 98 778 98 c 0,4,5
 588 98 588 98 425 192.5 c 128,-1,6
 262 287 262 287 166 451 c 128,-1,7
 70 615 70 615 70 807 c 0,8,9
 70 997 70 997 164.5 1160.5 c 128,-1,10
 259 1324 259 1324 423 1419.5 c 128,-1,11
 587 1515 587 1515 778 1515 c 256,12,13
 969 1515 969 1515 1132.5 1420.5 c 128,-1,14
 1296 1326 1296 1326 1391.5 1162 c 128,-1,15
 1487 998 1487 998 1487 807 c 256,0,1
1425 807 m 0,16,17
 1425 981 1425 981 1339.5 1129.5 c 128,-1,18
 1254 1278 1254 1278 1104.5 1366 c 128,-1,19
 955 1454 955 1454 778 1454 c 0,20,21
 604 1454 604 1454 455 1368 c 128,-1,22
 306 1282 306 1282 218.5 1132 c 128,-1,23
 131 982 131 982 131 807 c 0,24,25
 131 539 131 539 320.5 349.5 c 128,-1,26
 510 160 510 160 778 160 c 0,27,28
 953 160 953 160 1102 245.5 c 128,-1,29
 1251 331 1251 331 1338 481 c 128,-1,30
 1425 631 1425 631 1425 807 c 0,16,17
1165 561 m 1,31,32
 1024 358 1024 358 780 358 c 0,33,34
 509 358 509 358 378 577 c 0,35,36
 317 678 317 678 317 801 c 0,37,38
 317 930 317 930 382.5 1036.5 c 128,-1,39
 448 1143 448 1143 562.5 1203.5 c 128,-1,40
 677 1264 677 1264 815 1264 c 0,41,42
 893 1264 893 1264 986 1232 c 0,43,44
 1023 1219 1023 1219 1040 1219 c 0,45,46
 1074 1219 1074 1219 1087 1264 c 1,47,-1
 1126 1264 l 1,48,-1
 1147 983 l 1,49,-1
 1108 983 l 1,50,51
 1038 1221 1038 1221 805 1221 c 0,52,53
 604 1221 604 1221 523 1037 c 0,54,55
 483 948 483 948 483 831 c 0,56,57
 483 648 483 648 556 542 c 0,58,59
 641 418 641 418 815 418 c 0,60,61
 1012 418 1012 418 1126 580 c 1,62,-1
 1165 561 l 1,31,32
EndSplineSet
Validated: 1
EndChar

StartChar: ordfeminine
Encoding: 170 170 109
Width: 532
Flags: W
LayerCount: 2
Fore
SplineSet
530 987 m 1,0,1
 443 915 443 915 387 915 c 256,2,3
 331 915 331 915 317 979 c 1,4,5
 232 915 232 915 172 915 c 0,6,7
 119 915 119 915 83 941 c 0,8,9
 43 971 43 971 43 1022 c 0,10,11
 43 1076 43 1076 96 1107 c 0,12,13
 119 1120 119 1120 199.5 1144.5 c 128,-1,14
 280 1169 280 1169 313 1188 c 1,15,-1
 313 1300 l 2,16,17
 313 1335 313 1335 288.5 1360.5 c 128,-1,18
 264 1386 264 1386 229 1386 c 0,19,20
 199 1386 199 1386 175 1363 c 0,21,22
 162 1349 162 1349 162 1334 c 0,23,24
 162 1322 162 1322 170 1309 c 1,25,-1
 59 1259 l 1,26,27
 51 1270 51 1270 51 1283 c 0,28,29
 51 1303 51 1303 68 1328 c 0,30,31
 97 1369 97 1369 152.5 1401.5 c 128,-1,32
 208 1434 208 1434 256 1434 c 0,33,34
 350 1434 350 1434 401 1372 c 0,35,36
 426 1341 426 1341 426 1305 c 2,37,-1
 426 1042 l 2,38,39
 426 987 426 987 449 987 c 0,40,41
 485 987 485 987 518 1022 c 1,42,-1
 530 987 l 1,0,1
313 1018 m 1,43,-1
 313 1147 l 1,44,45
 256 1128 256 1128 170 1083 c 1,46,47
 152 1067 152 1067 152 1036 c 0,48,49
 152 971 152 971 215 971 c 0,50,51
 236 971 236 971 313 1018 c 1,43,-1
EndSplineSet
Validated: 1
EndChar

StartChar: guillemotleft
Encoding: 171 171 110
Width: 834
Flags: W
LayerCount: 2
Fore
SplineSet
778 10 m 1,0,-1
 725 10 l 1,1,-1
 385 410 l 1,2,-1
 725 803 l 1,3,-1
 772 803 l 1,4,-1
 526 410 l 1,5,-1
 778 10 l 1,0,-1
471 10 m 1,6,-1
 422 10 l 1,7,-1
 84 410 l 1,8,-1
 424 803 l 1,9,-1
 471 803 l 1,10,-1
 225 410 l 1,11,-1
 471 10 l 1,6,-1
EndSplineSet
Validated: 1
EndChar

StartChar: logicalnot
Encoding: 172 172 111
Width: 1366
Flags: W
LayerCount: 2
Fore
SplineSet
1221 498 m 1,0,-1
 1128 498 l 1,1,-1
 1128 985 l 1,2,-1
 145 985 l 1,3,-1
 145 1075 l 1,4,-1
 1221 1075 l 1,5,-1
 1221 498 l 1,0,-1
EndSplineSet
Validated: 1
EndChar

StartChar: sfthyphen
Encoding: 173 173 112
Width: 1366
Flags: W
LayerCount: 2
Fore
SplineSet
1221 739 m 1,0,-1
 145 739 l 1,1,-1
 145 829 l 1,2,-1
 1221 829 l 1,3,-1
 1221 739 l 1,0,-1
EndSplineSet
Validated: 1
EndChar

StartChar: registered
Encoding: 174 174 113
Width: 650
Flags: W
LayerCount: 2
Fore
SplineSet
206 339 m 1,1,-1
 206 217 l 1,2,3
 181 161 181 161 75 144 c 1,4,-1
 -22 142 l 1,5,6
 22 42 22 42 59 3 c 1,7,8
 225 13 225 13 258 38 c 1,9,-1
 299 122 l 1,10,-1
 351 38 l 1,11,12
 360 13 360 13 497 3 c 1,13,-1
 652 2 l 1,14,-1
 652 143 l 1,15,-1
 552 143 l 1,16,17
 457 150 457 150 406 211 c 1,18,-1
 406 346 l 1,19,0
 311 571 311 571 206 339 c 1,1,-1
EndSplineSet
Validated: 41
EndChar

StartChar: macron
Encoding: 175 175 114
Width: 682
Flags: W
LayerCount: 2
Fore
SplineSet
623 1216 m 1,0,-1
 59 1216 l 1,1,-1
 59 1335 l 1,2,-1
 623 1335 l 1,3,-1
 623 1216 l 1,0,-1
EndSplineSet
Validated: 1
EndChar

StartChar: degree
Encoding: 176 176 115
Width: 811
Flags: W
LayerCount: 2
Fore
SplineSet
713 1130 m 0,0,1
 713 954 713 954 561 865 c 0,2,3
 490 823 490 823 406 823 c 0,4,5
 278 823 278 823 188 912.5 c 128,-1,6
 98 1002 98 1002 98 1130 c 0,7,8
 98 1306 98 1306 252 1397 c 0,9,10
 323 1438 323 1438 406 1438 c 0,11,12
 533 1438 533 1438 623 1348 c 128,-1,13
 713 1258 713 1258 713 1130 c 0,0,1
629 1130 m 0,14,15
 629 1259 629 1259 518 1324 c 0,16,17
 467 1354 467 1354 406 1354 c 0,18,19
 312 1354 312 1354 247 1288.5 c 128,-1,20
 182 1223 182 1223 182 1130 c 256,21,22
 182 1037 182 1037 247.5 972 c 128,-1,23
 313 907 313 907 406 907 c 0,24,25
 534 907 534 907 599 1019 c 0,26,27
 629 1070 629 1070 629 1130 c 0,14,15
EndSplineSet
Validated: 1
EndChar

StartChar: plusminus
Encoding: 177 177 116
Width: 946
Flags: W
LayerCount: 2
Fore
SplineSet
835 581 m 1,0,-1
 514 581 l 1,1,-1
 514 328 l 1,2,-1
 430 328 l 1,3,-1
 430 581 l 1,4,-1
 105 581 l 1,5,-1
 105 664 l 1,6,-1
 430 664 l 1,7,-1
 430 992 l 1,8,-1
 514 992 l 1,9,-1
 514 664 l 1,10,-1
 835 664 l 1,11,-1
 835 581 l 1,0,-1
835 175 m 1,12,-1
 105 175 l 1,13,-1
 105 258 l 1,14,-1
 835 258 l 1,15,-1
 835 175 l 1,12,-1
EndSplineSet
Validated: 1
EndChar

StartChar: twosuperior
Encoding: 178 178 117
Width: 618
Flags: W
LayerCount: 2
Fore
SplineSet
578 915 m 1,0,-1
 553 756 l 1,1,-1
 47 756 l 1,2,-1
 47 780 l 1,3,4
 76 809 76 809 223 939 c 0,5,6
 335 1038 335 1038 387 1104 c 0,7,8
 432 1161 432 1161 432 1229 c 0,9,10
 432 1288 432 1288 388.5 1325 c 128,-1,11
 345 1362 345 1362 285 1362 c 0,12,13
 150 1362 150 1362 104 1221 c 1,14,-1
 61 1221 l 1,15,16
 73 1320 73 1320 146 1378 c 0,17,18
 215 1434 215 1434 317 1434 c 0,19,20
 410 1434 410 1434 478 1386 c 0,21,22
 553 1333 553 1333 553 1243 c 0,23,24
 553 1139 553 1139 441 1056 c 2,25,-1
 308 958 l 2,26,27
 229 899 229 899 162 829 c 1,28,-1
 442 829 l 2,29,30
 493 829 493 829 510 846 c 128,-1,31
 527 863 527 863 535 915 c 1,32,-1
 578 915 l 1,0,-1
EndSplineSet
Validated: 1
EndChar

StartChar: threesuperior
Encoding: 179 179 118
Width: 618
Flags: W
LayerCount: 2
Fore
SplineSet
578 991 m 0,0,1
 578 851 578 851 415 776 c 0,2,3
 341 741 341 741 258 741 c 0,4,5
 204 741 204 741 146 758 c 0,6,7
 66 780 66 780 66 821 c 0,8,9
 66 864 66 864 115 864 c 0,10,11
 147 864 147 864 203.5 823 c 128,-1,12
 260 782 260 782 301 782 c 0,13,14
 370 782 370 782 418 840 c 0,15,16
 463 894 463 894 463 965 c 0,17,18
 463 1020 463 1020 431 1061 c 0,19,20
 396 1104 396 1104 342 1104 c 0,21,22
 301 1104 301 1104 256 1069 c 1,23,-1
 231 1098 l 1,24,25
 401 1209 401 1209 401 1278 c 0,26,27
 401 1318 401 1318 367 1344 c 0,28,29
 337 1368 337 1368 295 1368 c 0,30,31
 198 1368 198 1368 139 1262 c 1,32,-1
 98 1276 l 1,33,34
 143 1376 143 1376 240 1415 c 0,35,36
 287 1434 287 1434 336 1434 c 0,37,38
 400 1434 400 1434 449 1405 c 0,39,40
 506 1371 506 1371 506 1311 c 0,41,42
 506 1236 506 1236 395 1167 c 1,43,44
 509 1159 509 1159 556 1078 c 0,45,46
 578 1039 578 1039 578 991 c 0,0,1
EndSplineSet
Validated: 1
EndChar

StartChar: acute
Encoding: 180 180 119
Width: 682
Flags: W
LayerCount: 2
Fore
SplineSet
526 1419 m 0,0,1
 526 1368 526 1368 387 1274 c 2,2,-1
 170 1128 l 1,3,-1
 143 1128 l 1,4,-1
 332 1389 l 2,5,6
 397 1479 397 1479 463 1479 c 0,7,8
 526 1479 526 1479 526 1419 c 0,0,1
EndSplineSet
Validated: 1
EndChar

StartChar: micro
Encoding: 181 181 120
Width: 1024
Flags: W
LayerCount: 2
Fore
SplineSet
1016 332 m 1,0,1
 1012 240 1012 240 973 177 c 0,2,3
 925 100 925 100 840 100 c 0,4,5
 751 100 751 100 708 189 c 0,6,7
 687 232 687 232 686 291 c 1,8,9
 495 100 495 100 346 100 c 0,10,11
 255 100 255 100 190 186 c 1,12,13
 187 155 187 155 187 127 c 0,14,15
 187 95 187 95 191 67 c 0,16,17
 193 52 193 52 219 -69 c 0,18,19
 236 -153 236 -153 236 -205 c 0,20,21
 236 -247 236 -247 210 -280 c 128,-1,22
 184 -313 184 -313 143 -313 c 0,23,24
 55 -313 55 -313 55 -205 c 0,25,26
 55 -156 55 -156 76 -68 c 0,27,28
 106 58 106 58 109 71 c 0,29,30
 117 118 117 118 117 203 c 2,31,-1
 117 940 l 1,32,-1
 254 940 l 1,33,-1
 254 498 l 2,34,35
 254 338 254 338 289 278 c 0,36,37
 327 213 327 213 420 213 c 0,38,39
 562 213 562 213 686 356 c 1,40,-1
 686 940 l 1,41,-1
 823 940 l 1,42,-1
 823 324 l 2,43,44
 823 209 823 209 893 209 c 0,45,46
 955 209 955 209 973 332 c 1,47,-1
 1016 332 l 1,0,1
EndSplineSet
Validated: 1
EndChar

StartChar: paragraph
Encoding: 182 182 121
Width: 918
Flags: W
LayerCount: 2
Fore
SplineSet
930 1348 m 1,0,-1
 799 1348 l 1,1,-1
 799 -348 l 1,2,-1
 725 -348 l 1,3,-1
 725 1348 l 1,4,-1
 539 1348 l 1,5,-1
 539 -348 l 1,6,-1
 465 -348 l 1,7,-1
 465 647 l 1,8,9
 143 647 143 647 37 826 c 0,10,11
 -14 911 -14 911 -14 1026 c 0,12,13
 -14 1266 -14 1266 195 1358 c 0,14,15
 297 1403 297 1403 436 1403 c 2,16,-1
 930 1403 l 1,17,-1
 930 1348 l 1,0,-1
EndSplineSet
Validated: 1
EndChar

StartChar: periodcentered
Encoding: 183 183 122
Width: 532
Flags: W
LayerCount: 2
Fore
SplineSet
371 791 m 0,0,1
 371 747 371 747 341 720.5 c 128,-1,2
 311 694 311 694 266 694 c 0,3,4
 222 694 222 694 192 721 c 128,-1,5
 162 748 162 748 162 791 c 0,6,7
 162 887 162 887 266 887 c 0,8,9
 371 887 371 887 371 791 c 0,0,1
EndSplineSet
Validated: 1
EndChar

StartChar: cedilla
Encoding: 184 184 123
Width: 682
Flags: W
LayerCount: 2
Fore
SplineSet
492 -123 m 0,0,1
 492 -196 492 -196 441 -247.5 c 128,-1,2
 390 -299 390 -299 317 -299 c 0,3,4
 279 -299 279 -299 229 -283 c 1,5,-1
 244 -254 l 1,6,7
 271 -262 271 -262 297 -262 c 0,8,9
 341 -262 341 -262 373.5 -232 c 128,-1,10
 406 -202 406 -202 406 -158 c 0,11,12
 406 -84 406 -84 340 -84 c 0,13,14
 293 -84 293 -84 209 -125 c 1,15,-1
 369 139 l 1,16,-1
 399 139 l 1,17,-1
 334 29 l 1,18,19
 345 31 345 31 355 31 c 0,20,21
 430 31 430 31 471 -44 c 0,22,23
 492 -82 492 -82 492 -123 c 0,0,1
EndSplineSet
Validated: 1
EndChar

StartChar: onesuperior
Encoding: 185 185 124
Width: 618
Flags: W
LayerCount: 2
Fore
SplineSet
487 756 m 1,0,-1
 160 756 l 1,1,-1
 160 788 l 1,2,-1
 244 788 l 2,3,4
 270 788 270 788 270 821 c 2,5,-1
 270 1325 l 1,6,7
 188 1272 188 1272 127 1247 c 1,8,-1
 109 1274 l 1,9,10
 238 1348 238 1348 313 1434 c 1,11,-1
 375 1434 l 1,12,-1
 375 823 l 2,13,14
 375 788 375 788 414 788 c 2,15,-1
 487 788 l 1,16,-1
 487 756 l 1,0,-1
EndSplineSet
Validated: 1
EndChar

StartChar: ordmasculine
Encoding: 186 186 125
Width: 705
Flags: W
LayerCount: 2
Fore
SplineSet
643 1176 m 0,0,1
 643 1034 643 1034 501 953 c 0,2,3
 434 915 434 915 348 915 c 0,4,5
 196 915 196 915 117 1016 c 0,6,7
 53 1098 53 1098 53 1176 c 0,8,9
 53 1312 53 1312 190 1394 c 0,10,11
 256 1434 256 1434 348 1434 c 0,12,13
 500 1434 500 1434 579 1338 c 0,14,15
 643 1260 643 1260 643 1176 c 0,0,1
522 1145 m 0,16,17
 522 1284 522 1284 427 1358 c 0,18,19
 383 1391 383 1391 332 1391 c 0,20,21
 263 1391 263 1391 219 1336 c 0,22,23
 178 1285 178 1285 178 1214 c 0,24,25
 178 1121 178 1121 226 1045 c 0,26,27
 281 958 281 958 369 958 c 0,28,29
 441 958 441 958 484 1017 c 0,30,31
 522 1070 522 1070 522 1145 c 0,16,17
EndSplineSet
Validated: 1
EndChar

StartChar: guillemotright
Encoding: 187 187 126
Width: 834
Flags: W
LayerCount: 2
Fore
SplineSet
762 399 m 1,0,-1
 424 10 l 1,1,-1
 375 10 l 1,2,-1
 621 399 l 1,3,-1
 367 803 l 1,4,-1
 412 803 l 1,5,-1
 762 399 l 1,0,-1
459 399 m 1,6,-1
 123 10 l 1,7,-1
 74 10 l 1,8,-1
 317 399 l 1,9,-1
 66 803 l 1,10,-1
 111 803 l 1,11,-1
 459 399 l 1,6,-1
EndSplineSet
Validated: 1
EndChar

StartChar: onequarter
Encoding: 188 188 127
Width: 1473
Flags: W
LayerCount: 2
Fore
SplineSet
1282 319 m 1,0,-1
 1161 319 l 1,1,-1
 1161 115 l 1,2,-1
 1057 115 l 1,3,-1
 1057 319 l 1,4,-1
 748 319 l 1,5,-1
 748 350 l 1,6,-1
 1108 807 l 1,7,-1
 1161 807 l 1,8,-1
 1161 383 l 1,9,-1
 1282 383 l 1,10,-1
 1282 319 l 1,0,-1
1235 1468 m 1,11,-1
 240 74 l 1,12,-1
 156 74 l 1,13,-1
 1151 1468 l 1,14,-1
 1235 1468 l 1,11,-1
487 756 m 1,15,-1
 160 756 l 1,16,-1
 160 788 l 1,17,-1
 244 788 l 2,18,19
 270 788 270 788 270 821 c 2,20,-1
 270 1325 l 1,21,22
 188 1272 188 1272 127 1247 c 1,23,-1
 109 1274 l 1,24,25
 238 1348 238 1348 313 1434 c 1,26,-1
 375 1434 l 1,27,-1
 375 823 l 2,28,29
 375 788 375 788 414 788 c 2,30,-1
 487 788 l 1,31,-1
 487 756 l 1,15,-1
1057 383 m 1,32,-1
 1053 670 l 1,33,-1
 834 383 l 1,34,-1
 1057 383 l 1,32,-1
EndSplineSet
Validated: 1
EndChar

StartChar: onehalf
Encoding: 189 189 128
Width: 1473
Flags: W
LayerCount: 2
Fore
SplineSet
1358 289 m 1,0,-1
 1333 129 l 1,1,-1
 827 129 l 1,2,-1
 827 154 l 1,3,4
 922 239 922 239 1109 412 c 0,5,6
 1212 510 1212 510 1212 602 c 0,7,8
 1212 661 1212 661 1168.5 698 c 128,-1,9
 1125 735 1125 735 1065 735 c 0,10,11
 1002 735 1002 735 952.5 695.5 c 128,-1,12
 903 656 903 656 885 594 c 1,13,-1
 842 594 l 1,14,15
 853 693 853 693 926 751 c 0,16,17
 996 807 996 807 1098 807 c 0,18,19
 1191 807 1191 807 1258 759 c 0,20,21
 1333 705 1333 705 1333 616 c 0,22,23
 1333 534 1333 534 1268 468 c 0,24,25
 1245 445 1245 445 1134 366 c 0,26,27
 1019 284 1019 284 942 203 c 1,28,-1
 1223 203 l 2,29,30
 1286 203 1286 203 1302 234 c 0,31,32
 1311 252 1311 252 1315 289 c 1,33,-1
 1358 289 l 1,0,-1
1235 1468 m 1,34,-1
 240 74 l 1,35,-1
 156 74 l 1,36,-1
 1151 1468 l 1,37,-1
 1235 1468 l 1,34,-1
487 756 m 1,38,-1
 160 756 l 1,39,-1
 160 788 l 1,40,-1
 244 788 l 2,41,42
 270 788 270 788 270 821 c 2,43,-1
 270 1325 l 1,44,45
 188 1272 188 1272 127 1247 c 1,46,-1
 109 1274 l 1,47,48
 238 1348 238 1348 313 1434 c 1,49,-1
 375 1434 l 1,50,-1
 375 823 l 2,51,52
 375 788 375 788 414 788 c 2,53,-1
 487 788 l 1,54,-1
 487 756 l 1,38,-1
EndSplineSet
Validated: 1
EndChar

StartChar: threequarters
Encoding: 190 190 129
Width: 1473
Flags: W
LayerCount: 2
Fore
SplineSet
1317 319 m 1,0,-1
 1196 319 l 1,1,-1
 1196 115 l 1,2,-1
 1092 115 l 1,3,-1
 1092 319 l 1,4,-1
 782 319 l 1,5,-1
 782 350 l 1,6,-1
 1143 807 l 1,7,-1
 1196 807 l 1,8,-1
 1196 383 l 1,9,-1
 1317 383 l 1,10,-1
 1317 319 l 1,0,-1
1270 1468 m 1,11,-1
 274 74 l 1,12,-1
 190 74 l 1,13,-1
 1186 1468 l 1,14,-1
 1270 1468 l 1,11,-1
567 991 m 0,15,16
 567 850 567 850 405 775 c 0,17,18
 331 741 331 741 248 741 c 0,19,20
 194 741 194 741 136 757 c 0,21,22
 55 780 55 780 55 821 c 0,23,24
 55 864 55 864 104 864 c 0,25,26
 137 864 137 864 193.5 823 c 128,-1,27
 250 782 250 782 291 782 c 0,28,29
 360 782 360 782 408 840 c 0,30,31
 453 894 453 894 453 965 c 0,32,33
 453 1020 453 1020 421 1061 c 0,34,35
 386 1104 386 1104 332 1104 c 0,36,37
 291 1104 291 1104 246 1069 c 1,38,-1
 221 1098 l 1,39,40
 391 1209 391 1209 391 1278 c 0,41,42
 391 1318 391 1318 357 1344 c 0,43,44
 327 1368 327 1368 285 1368 c 0,45,46
 190 1368 190 1368 129 1262 c 1,47,-1
 88 1276 l 1,48,49
 133 1376 133 1376 230 1415 c 0,50,51
 277 1434 277 1434 326 1434 c 0,52,53
 390 1434 390 1434 439 1405 c 0,54,55
 496 1371 496 1371 496 1311 c 0,56,57
 496 1236 496 1236 385 1167 c 1,58,59
 465 1161 465 1161 514 1117 c 0,60,61
 567 1069 567 1069 567 991 c 0,15,16
1092 383 m 1,62,-1
 1092 670 l 1,63,-1
 1087 670 l 1,64,-1
 868 383 l 1,65,-1
 1092 383 l 1,62,-1
EndSplineSet
Validated: 1
EndChar

StartChar: questiondown
Encoding: 191 191 130
Width: 725
Flags: W
LayerCount: 2
Fore
SplineSet
512 877 m 0,0,1
 512 833 512 833 482 806.5 c 128,-1,2
 452 780 452 780 408 780 c 256,3,4
 364 780 364 780 333.5 806.5 c 128,-1,5
 303 833 303 833 303 877 c 0,6,7
 303 973 303 973 408 973 c 0,8,9
 512 973 512 973 512 877 c 0,0,1
621 -252 m 0,10,11
 621 -348 621 -348 442 -348 c 0,12,13
 235 -348 235 -348 136 -177 c 0,14,15
 88 -95 88 -95 88 14 c 0,16,17
 88 241 88 241 261 321 c 0,18,19
 320 347 320 347 378 373 c 1,20,21
 457 415 457 415 457 457 c 0,22,23
 457 526 457 526 379 604 c 1,24,-1
 424 604 l 1,25,26
 524 502 524 502 524 393 c 0,27,28
 524 314 524 314 465 269 c 0,29,30
 433 244 433 244 334 206.5 c 128,-1,31
 235 169 235 169 194 132 c 0,32,33
 137 79 137 79 137 -10 c 0,34,35
 137 -100 137 -100 198 -148 c 0,36,37
 254 -193 254 -193 346 -193 c 0,38,39
 373 -193 373 -193 425.5 -185.5 c 128,-1,40
 478 -178 478 -178 504 -178 c 0,41,42
 621 -178 621 -178 621 -252 c 0,10,11
EndSplineSet
Validated: 1
EndChar

StartChar: multiply
Encoding: 215 215 132
Width: 946
Flags: W
LayerCount: 2
Fore
SplineSet
802 219 m 1,0,-1
 744 162 l 1,1,-1
 467 437 l 1,2,-1
 190 162 l 1,3,-1
 131 219 l 1,4,-1
 406 497 l 1,5,-1
 131 775 l 1,6,-1
 193 831 l 1,7,-1
 467 555 l 1,8,-1
 744 831 l 1,9,-1
 802 775 l 1,10,-1
 523 497 l 1,11,-1
 802 219 l 1,0,-1
EndSplineSet
Validated: 1
EndChar

StartChar: ccedilla
Encoding: 231 231 135
Width: 874
Flags: W
LayerCount: 2
Fore
SplineSet
801 317 m 1,0,1
 671 112 671 112 451 104 c 1,2,-1
 406 29 l 1,3,4
 418 31 418 31 429 31 c 0,5,6
 478 31 478 31 516 -9 c 0,7,8
 563 -57 563 -57 563 -123 c 0,9,10
 563 -197 563 -197 512.5 -248 c 128,-1,11
 462 -299 462 -299 389 -299 c 0,12,13
 351 -299 351 -299 301 -283 c 1,14,-1
 315 -254 l 1,15,16
 343 -262 343 -262 369 -262 c 0,17,18
 413 -262 413 -262 445 -232 c 128,-1,19
 477 -202 477 -202 477 -158 c 0,20,21
 477 -84 477 -84 412 -84 c 0,22,23
 365 -84 365 -84 281 -125 c 1,24,-1
 420 106 l 1,25,26
 211 118 211 118 129 325 c 0,27,28
 94 414 94 414 94 500 c 0,29,30
 94 766 94 766 330 901 c 0,31,32
 438 963 438 963 565 963 c 0,33,34
 698 963 698 963 765 906 c 0,35,36
 795 879 795 879 795 846 c 0,37,38
 795 784 795 784 735 784 c 0,39,40
 690 784 690 784 627 843 c 0,41,42
 556 909 556 909 496 909 c 0,43,44
 347 909 347 909 268 724 c 0,45,46
 231 639 231 639 231 545 c 0,47,48
 231 333 231 333 373 235 c 0,49,50
 439 188 439 188 520 188 c 0,51,52
 664 188 664 188 770 336 c 1,53,-1
 801 317 l 1,0,1
EndSplineSet
Validated: 1
EndChar

StartChar: divide
Encoding: 247 247 143
Width: 946
Flags: W
LayerCount: 2
Fore
SplineSet
549 772 m 0,0,1
 549 736 549 736 525 710.5 c 128,-1,2
 501 685 501 685 466 685 c 256,3,4
 431 685 431 685 405.5 711 c 128,-1,5
 380 737 380 737 380 772 c 256,6,7
 380 807 380 807 405 831 c 128,-1,8
 430 855 430 855 466 855 c 0,9,10
 501 855 501 855 525 831 c 128,-1,11
 549 807 549 807 549 772 c 0,0,1
835 452 m 1,12,-1
 105 452 l 1,13,-1
 105 535 l 1,14,-1
 835 535 l 1,15,-1
 835 452 l 1,12,-1
549 215 m 256,16,17
 549 179 549 179 525 154 c 128,-1,18
 501 129 501 129 466 129 c 256,19,20
 431 129 431 129 405.5 154.5 c 128,-1,21
 380 180 380 180 380 215 c 0,22,23
 380 251 380 251 405 275.5 c 128,-1,24
 430 300 430 300 466 300 c 0,25,26
 501 300 501 300 525 275.5 c 128,-1,27
 549 251 549 251 549 215 c 256,16,17
EndSplineSet
Validated: 1
EndChar

StartChar: dotlessi
Encoding: 305 305 148
Width: 532
Flags: W
LayerCount: 2
Fore
SplineSet
492 129 m 1,0,-1
 37 129 l 1,1,-1
 37 168 l 1,2,3
 125 168 125 168 164 198 c 0,4,5
 207 232 207 232 207 317 c 2,6,-1
 207 729 l 2,7,8
 207 803 207 803 184 816 c 0,9,10
 171 823 171 823 143 829 c 2,11,-1
 47 848 l 1,12,-1
 47 881 l 1,13,-1
 313 973 l 1,14,-1
 344 973 l 1,15,-1
 344 285 l 2,16,17
 344 168 344 168 492 168 c 1,18,-1
 492 129 l 1,0,-1
EndSplineSet
Validated: 1
EndChar

StartChar: OE
Encoding: 338 338 149
Width: 2028
Flags: W
LayerCount: 2
Fore
SplineSet
1931 434 m 1,0,-1
 1898 129 l 1,1,-1
 1081 129 l 2,2,3
 1075 129 1075 129 978 126 c 0,4,5
 954 125 954 125 901 123 c 2,6,-1
 750 115 l 1,7,8
 587 115 587 115 442.5 197.5 c 128,-1,9
 298 280 298 280 210 420 c 0,10,11
 117 567 117 567 117 758 c 0,12,13
 117 996 117 996 274 1189 c 0,14,15
 459 1417 459 1417 813 1417 c 0,16,17
 831 1417 831 1417 1004 1409 c 0,18,19
 1134 1403 1134 1403 1225 1403 c 2,20,-1
 1835 1403 l 1,21,-1
 1851 1118 l 1,22,-1
 1815 1118 l 1,23,24
 1801 1217 1801 1217 1779 1260 c 0,25,26
 1743 1329 1743 1329 1663 1329 c 2,27,-1
 1247 1329 l 1,28,-1
 1247 825 l 1,29,-1
 1599 825 l 2,30,31
 1665 825 1665 825 1692 871 c 0,32,33
 1712 904 1712 904 1718 979 c 1,34,-1
 1757 979 l 1,35,-1
 1757 590 l 1,36,-1
 1718 590 l 1,37,38
 1708 678 1708 678 1687 709 c 0,39,40
 1658 752 1658 752 1579 752 c 2,41,-1
 1247 752 l 1,42,-1
 1247 203 l 1,43,-1
 1657 203 l 2,44,45
 1768 203 1768 203 1821 266 c 0,46,47
 1859 310 1859 310 1894 434 c 1,48,-1
 1931 434 l 1,0,-1
1077 448 m 2,49,-1
 1077 1141 l 2,50,51
 1077 1366 1077 1366 786 1366 c 0,52,53
 459 1366 459 1366 347 1087 c 0,54,55
 295 957 295 957 295 791 c 0,56,57
 295 626 295 626 355 487 c 0,58,59
 422 333 422 333 548 247 c 0,60,61
 665 166 665 166 805 166 c 0,62,63
 957 166 957 166 1033 274 c 0,64,65
 1077 337 1077 337 1077 448 c 2,49,-1
EndSplineSet
Validated: 1
EndChar

StartChar: oe
Encoding: 339 339 150
Width: 1516
Flags: W
LayerCount: 2
Fore
SplineSet
1452 649 m 1,0,-1
 897 649 l 1,1,2
 896 628 896 628 896 608 c 0,3,4
 896 367 896 367 1031 250 c 0,5,6
 1097 192 1097 192 1174 192 c 0,7,8
 1256 192 1256 192 1415 338 c 1,9,-1
 1436 315 l 1,10,11
 1242 104 1242 104 1083 104 c 0,12,13
 939 104 939 104 846 254 c 1,14,15
 734 104 734 104 535 104 c 0,16,17
 275 104 275 104 152 317 c 0,18,19
 94 416 94 416 94 537 c 0,20,21
 94 667 94 667 168.5 775 c 128,-1,22
 243 883 243 883 364 931 c 0,23,24
 444 963 444 963 530 963 c 0,25,26
 726 963 726 963 823 811 c 1,27,28
 948 963 948 963 1122 963 c 0,29,30
 1284 963 1284 963 1350 871 c 1,31,32
 1385 801 1385 801 1452 696 c 1,33,-1
 1452 649 l 1,0,-1
1264 702 m 1,34,35
 1264 843 1264 843 1181 899 c 0,36,37
 1142 924 1142 924 1092 924 c 0,38,39
 1018 924 1018 924 956 846 c 0,40,41
 912 790 912 790 901 702 c 1,42,-1
 1264 702 l 1,34,35
772 483 m 0,43,44
 772 742 772 742 637 859 c 0,45,46
 573 913 573 913 494 913 c 0,47,48
 369 913 369 913 288 761 c 0,49,50
 248 687 248 687 248 586 c 0,51,52
 248 337 248 337 411 210 c 0,53,54
 482 154 482 154 553 154 c 0,55,56
 692 154 692 154 746 306 c 0,57,58
 772 380 772 380 772 483 c 0,43,44
EndSplineSet
Validated: 1
EndChar

StartChar: florin
Encoding: 402 402 154
Width: 1024
Flags: W
LayerCount: 2
Fore
SplineSet
1020 1409 m 0,0,1
 1020 1350 1020 1350 963 1350 c 0,2,3
 929 1350 929 1350 875 1389 c 0,4,5
 811 1434 811 1434 780 1434 c 0,6,7
 711 1434 711 1434 661 1352 c 0,8,9
 623 1290 623 1290 606 1208 c 2,10,-1
 551 940 l 1,11,-1
 727 940 l 1,12,-1
 707 872 l 1,13,-1
 539 872 l 1,14,-1
 434 274 l 2,15,16
 361 -144 361 -144 134 -285 c 0,17,18
 32 -348 32 -348 -72 -348 c 0,19,20
 -123 -348 -123 -348 -170 -326 c 0,21,22
 -229 -299 -229 -299 -229 -254 c 0,23,24
 -229 -229 -229 -229 -208.5 -211 c 128,-1,25
 -188 -193 -188 -193 -162 -193 c 0,26,27
 -124 -193 -124 -193 -62 -240 c 0,28,29
 -4 -283 -4 -283 33 -283 c 0,30,31
 98 -283 98 -283 159 -222 c 128,-1,32
 220 -161 220 -161 262 21 c 1,33,-1
 307 279 l 1,34,-1
 412 872 l 1,35,-1
 270 872 l 1,36,-1
 276 911 l 1,37,38
 348 920 348 920 426 938 c 1,39,40
 483 1247 483 1247 633 1397 c 0,41,42
 743 1507 743 1507 874 1507 c 0,43,44
 925 1507 925 1507 968 1484 c 0,45,46
 1020 1456 1020 1456 1020 1409 c 0,0,1
EndSplineSet
Validated: 1
EndChar

StartChar: circumflex
Encoding: 710 710 155
Width: 682
Flags: W
LayerCount: 2
Fore
SplineSet
590 1124 m 1,0,-1
 336 1380 l 1,1,-1
 94 1124 l 1,2,-1
 94 1159 l 1,3,-1
 315 1528 l 1,4,-1
 373 1528 l 1,5,-1
 590 1159 l 1,6,-1
 590 1124 l 1,0,-1
EndSplineSet
Validated: 1
EndChar

StartChar: caron
Encoding: 711 711 156
Width: 682
Flags: W
LayerCount: 2
Fore
SplineSet
588 1493 m 1,0,-1
 367 1124 l 1,1,-1
 309 1124 l 1,2,-1
 92 1493 l 1,3,-1
 92 1528 l 1,4,-1
 346 1272 l 1,5,-1
 588 1528 l 1,6,-1
 588 1493 l 1,0,-1
EndSplineSet
Validated: 1
EndChar

StartChar: arabiccomma
Encoding: 1548 1548 157
Width: 569
Flags: W
LayerCount: 2
Fore
SplineSet
428 158 m 0,0,1
 428 114 428 114 397.5 84.5 c 128,-1,2
 367 55 367 55 324 55 c 0,3,4
 252 55 252 55 205 123.5 c 128,-1,5
 158 192 158 192 158 295 c 0,6,7
 158 495 158 495 332 627 c 1,8,-1
 356 594 l 1,9,10
 225 454 225 454 225 332 c 0,11,12
 225 263 225 263 252 240 c 1,13,14
 300 264 300 264 326 264 c 0,15,16
 367 264 367 264 397.5 232 c 128,-1,17
 428 200 428 200 428 158 c 0,0,1
EndSplineSet
Validated: 1
EndChar

StartChar: arabicsemicolon
Encoding: 1563 1563 158
Width: 569
Flags: W
LayerCount: 2
Fore
SplineSet
428 445 m 0,0,1
 428 401 428 401 397.5 371.5 c 128,-1,2
 367 342 367 342 324 342 c 0,3,4
 252 342 252 342 205 410.5 c 128,-1,5
 158 479 158 479 158 582 c 0,6,7
 158 782 158 782 332 914 c 1,8,-1
 356 881 l 1,9,10
 225 741 225 741 225 619 c 0,11,12
 225 550 225 550 252 527 c 1,13,14
 300 551 300 551 326 551 c 0,15,16
 367 551 367 551 397.5 519 c 128,-1,17
 428 487 428 487 428 445 c 0,0,1
397 141 m 256,18,19
 397 104 397 104 371.5 78.5 c 128,-1,20
 346 53 346 53 311 53 c 0,21,22
 274 53 274 53 248.5 78.5 c 128,-1,23
 223 104 223 104 223 141 c 256,24,25
 223 178 223 178 247 204.5 c 128,-1,26
 271 231 271 231 305 231 c 0,27,28
 344 231 344 231 370.5 204.5 c 128,-1,29
 397 178 397 178 397 141 c 256,18,19
EndSplineSet
Validated: 1
EndChar

StartChar: arabicquestionmark
Encoding: 1567 1567 159
Width: 643
Flags: W
LayerCount: 2
Fore
SplineSet
578 913 m 0,0,1
 578 846 578 846 542 801 c 128,-1,2
 506 756 506 756 455 756 c 0,3,4
 418 756 418 756 392.5 782.5 c 128,-1,5
 367 809 367 809 367 846 c 0,6,7
 367 900 367 900 412 926 c 2,8,-1
 453 950 l 2,9,10
 479 969 479 969 479 1001 c 0,11,12
 479 1041 479 1041 445.5 1067.5 c 128,-1,13
 412 1094 412 1094 362 1094 c 0,14,15
 298 1094 298 1094 256.5 1053 c 128,-1,16
 215 1012 215 1012 215 950 c 0,17,18
 215 893 215 893 244 846 c 1,19,-1
 307 719 l 2,20,21
 385 562 385 562 385 424 c 0,22,23
 385 395 385 395 373 311 c 1,24,-1
 342 311 l 1,25,26
 343 335 343 335 346 360 c 0,27,28
 348 381 348 381 348 387 c 0,29,30
 348 471 348 471 306 509 c 2,31,-1
 209 596 l 2,32,33
 80 712 80 712 80 858 c 0,34,35
 80 973 80 973 158.5 1054 c 128,-1,36
 237 1135 237 1135 348 1135 c 0,37,38
 446 1135 446 1135 512 1071 c 128,-1,39
 578 1007 578 1007 578 913 c 0,0,1
434 141 m 256,40,41
 434 104 434 104 409.5 78.5 c 128,-1,42
 385 53 385 53 348 53 c 256,43,44
 311 53 311 53 283.5 79 c 128,-1,45
 256 105 256 105 256 141 c 0,46,47
 256 178 256 178 281.5 204.5 c 128,-1,48
 307 231 307 231 344 231 c 256,49,50
 381 231 381 231 407.5 204.5 c 128,-1,51
 434 178 434 178 434 141 c 256,40,41
EndSplineSet
Validated: 1
EndChar

StartChar: hamza
Encoding: 1569 68893 160
Width: 717
Flags: W
LayerCount: 2
Fore
SplineSet
515 -250 m 1,0,-1
 677 -248 l 1,1,-1
 677 -424 l 1,2,-1
 328 -425 l 1,3,-1
 329 -312 l 1,4,-1
 329 -95 l 1,5,6
 422 -95 422 -95 515 -95 c 1,7,-1
 515 -250 l 1,0,-1
476 501 m 1,9,-1
 463 328 l 1,10,11
 443 206 443 206 279 215 c 1,12,-1
 -31 215 l 1,13,14
 26 110 26 110 101 3 c 1,15,-1
 605 3 l 1,16,-1
 727 147 l 1,17,-1
 726 382 l 1,18,-1
 723 496 l 1,19,8
 595 707 595 707 476 501 c 1,9,-1
EndSplineSet
Validated: 41
Substitution2: "'isol' Isolated Forms in Arabic lookup 0 subtable" hamzaisolated
EndChar

StartChar: alefwithmaddaabove
Encoding: 1570 68864 161
Width: 809
Flags: W
LayerCount: 2
Fore
SplineSet
275 1248 m 1,1,-1
 275 424 l 1,2,3
 362 297 362 297 426 199 c 1,4,-1
 -100 199 l 1,5,-1
 125 0 l 1,6,-1
 599 0 l 1,7,8
 827 -12 827 -12 806 266 c 1,9,-1
 807 1221 l 1,10,11
 799 1572 799 1572 528.5 1574 c 128,-1,0
 258 1576 258 1576 275 1248 c 1,1,-1
590 1260 m 1,13,-1
 593 335 l 1,14,15
 515 476 515 476 483 545 c 1,16,-1
 481 1254 l 1,17,12
 537 1416 537 1416 590 1260 c 1,13,-1
EndSplineSet
Validated: 41
Substitution2: "'fina' Terminal Forms in Arabic lookup 3 subtable" alefwithmaddaabovefinal
Substitution2: "'isol' Isolated Forms in Arabic lookup 0 subtable" alefwithmaddaaboveisolated
EndChar

StartChar: alefwithhamzaabove
Encoding: 1571 1571 162
Width: 815
Flags: W
LayerCount: 2
Fore
SplineSet
281 1248 m 1,1,-1
 281 424 l 1,2,3
 368 297 368 297 432 199 c 1,4,-1
 -94 199 l 1,5,-1
 131 0 l 1,6,-1
 605 0 l 1,7,8
 833 -12 833 -12 812 266 c 1,9,-1
 813 1221 l 1,10,11
 805 1572 805 1572 534.5 1574 c 128,-1,0
 264 1576 264 1576 281 1248 c 1,1,-1
596 1260 m 1,13,-1
 599 335 l 1,14,15
 521 476 521 476 489 545 c 1,16,-1
 487 1254 l 1,17,12
 543 1416 543 1416 596 1260 c 1,13,-1
EndSplineSet
Validated: 41
Substitution2: "'isol' Isolated Forms in Arabic lookup 0 subtable" alefwithhamzaaboveisolated
Substitution2: "'fina' Terminal Forms in Arabic lookup 3 subtable" alefwithhamzaabovefinal
EndChar

StartChar: wawwithhamzaabove
Encoding: 1572 1572 163
Width: 717
Flags: W
LayerCount: 2
Fore
SplineSet
492 -254 m 1,0,-1
 331 -255 l 1,1,-1
 331 -431 l 1,2,-1
 682 -429 l 1,3,-1
 681 -316 l 1,4,-1
 681 -99 l 1,5,6
 587 -99 587 -99 492 -99 c 1,7,-1
 492 -254 l 1,0,-1
479 501 m 1,9,-1
 466 328 l 1,10,11
 446 206 446 206 282 215 c 1,12,-1
 -28 215 l 1,13,14
 29 110 29 110 104 3 c 1,15,-1
 608 3 l 1,16,-1
 730 147 l 1,17,-1
 729 382 l 1,18,-1
 726 496 l 1,19,8
 598 707 598 707 479 501 c 1,9,-1
EndSplineSet
Validated: 41
Substitution2: "'isol' Isolated Forms in Arabic lookup 0 subtable" wawwithhamzaaboveisolated
Substitution2: "'fina' Terminal Forms in Arabic lookup 3 subtable" wawwithhamzaabovefinal
EndChar

StartChar: alefwithhamzabelow
Encoding: 1573 1573 164
Width: 799
Flags: W
LayerCount: 2
Fore
SplineSet
271 1248 m 1,1,-1
 271 424 l 1,2,3
 358 297 358 297 422 199 c 1,4,-1
 -104 199 l 1,5,-1
 121 0 l 1,6,-1
 595 0 l 1,7,8
 823 -12 823 -12 802 266 c 1,9,-1
 803 1221 l 1,10,11
 795 1572 795 1572 524.5 1574 c 128,-1,0
 254 1576 254 1576 271 1248 c 1,1,-1
586 1260 m 1,13,-1
 589 335 l 1,14,15
 511 476 511 476 479 545 c 1,16,-1
 477 1254 l 1,17,12
 533 1416 533 1416 586 1260 c 1,13,-1
EndSplineSet
Validated: 41
Substitution2: "'isol' Isolated Forms in Arabic lookup 0 subtable" alefwithhamzabelowisolated
Substitution2: "'fina' Terminal Forms in Arabic lookup 3 subtable" alefwithhamzabelowfinal
EndChar

StartChar: yehwithhamzaabove
Encoding: 1574 68897 165
Width: 723
Flags: W
LayerCount: 2
Fore
SplineSet
482 501 m 1,1,-1
 469 328 l 1,2,3
 449 206 449 206 285 215 c 1,4,-1
 -25 215 l 1,5,6
 32 110 32 110 107 3 c 1,7,-1
 611 3 l 1,8,-1
 733 147 l 1,9,-1
 732 382 l 1,10,-1
 729 496 l 1,11,0
 601 707 601 707 482 501 c 1,1,-1
EndSplineSet
Validated: 41
Substitution2: "'isol' Isolated Forms in Arabic lookup 0 subtable" yehwithhamzaaboveisolated
Substitution2: "'init' Initial Forms in Arabic lookup 1 subtable" yehwithhamzaaboveinitial
Substitution2: "'medi' Medial Forms in Arabic lookup 2 subtable" yehwithhamzaabovemedial
Substitution2: "'fina' Terminal Forms in Arabic lookup 3 subtable" yehwithhamzaabovefinal
EndChar

StartChar: arabicalef
Encoding: 1575 1575 166
Width: 823
Flags: W
LayerCount: 2
Fore
SplineSet
292 1248 m 1,1,-1
 292 424 l 1,2,3
 379 297 379 297 443 199 c 1,4,-1
 -83 199 l 1,5,-1
 142 0 l 1,6,-1
 616 0 l 1,7,8
 844 -12 844 -12 823 266 c 1,9,-1
 824 1221 l 1,10,11
 816 1572 816 1572 545.5 1574 c 128,-1,0
 275 1576 275 1576 292 1248 c 1,1,-1
607 1260 m 1,13,-1
 610 335 l 1,14,15
 532 476 532 476 500 545 c 1,16,-1
 498 1254 l 1,17,12
 554 1416 554 1416 607 1260 c 1,13,-1
EndSplineSet
Validated: 41
Substitution2: "'isol' Isolated Forms in Arabic lookup 0 subtable" A
Substitution2: "'fina' Terminal Forms in Arabic lookup 3 subtable" aleffinal
EndChar

StartChar: beh
Encoding: 1576 68865 167
Width: 843
Flags: W
LayerCount: 2
Fore
SplineSet
292 1201 m 1,1,-1
 448 1202 l 1,2,3
 658 1221 658 1221 630 1035 c 1,4,-1
 629 422 l 1,5,6
 597 259 597 259 435 245 c 1,7,-1
 -70 245 l 1,8,-1
 162 -2 l 1,9,-1
 684 0 l 1,10,11
 847 44 847 44 839 281 c 1,12,-1
 839 1234 l 1,13,14
 849 1397 849 1397 664 1395 c 2,15,-1
 188 1395 l 1,16,0
 246 1287 246 1287 292 1201 c 1,1,-1
EndSplineSet
Validated: 41
Substitution2: "'fina' Terminal Forms in Arabic lookup 3 subtable" behfinal
Substitution2: "'medi' Medial Forms in Arabic lookup 2 subtable" behmedial
Substitution2: "'init' Initial Forms in Arabic lookup 1 subtable" behinitial
Substitution2: "'isol' Isolated Forms in Arabic lookup 0 subtable" B
EndChar

StartChar: tehmarbuta
Encoding: 1577 68887 168
Width: 936
Flags: W
LayerCount: 2
Fore
SplineSet
84 1246 m 128,-1,1
 104 1114 104 1114 237 1083 c 1,2,3
 399 1066 399 1066 424 1240 c 1,4,-1
 759 1294 l 1,5,-1
 760 253 l 1,6,-1
 -77 256 l 1,7,8
 -57 175 -57 175 138 -1 c 1,9,10
 257 0 257 0 467 -2.5 c 128,-1,11
 677 -5 677 -5 764 4.5 c 128,-1,12
 851 14 851 14 910 91 c 1,13,14
 955 221 955 221 948 571 c 1,15,-1
 948 1507 l 1,16,-1
 294 1426 l 1,17,0
 64 1378 64 1378 84 1246 c 128,-1,1
288 1189 m 1,19,20
 95 1194 95 1194 224 1309 c 1,21,18
 400 1320 400 1320 288 1189 c 1,19,20
EndSplineSet
Validated: 41
Substitution2: "'fina' Terminal Forms in Arabic lookup 3 subtable" tehmarbutafinal
Substitution2: "'isol' Isolated Forms in Arabic lookup 0 subtable" kinna ya
EndChar

StartChar: teh
Encoding: 1578 68867 169
Width: 843
Flags: W
LayerCount: 2
Fore
SplineSet
194 833 m 1,0,1
 272 681 272 681 379 838 c 1,2,-1
 382 1194 l 1,3,4
 581 1430 581 1430 729 1131 c 1,5,-1
 729 307 l 1,6,7
 656 163 656 163 496 188 c 1,8,-1
 -84 189 l 1,9,-1
 51 0 l 1,10,-1
 731 0 l 1,11,12
 907 -17 907 -17 916 151 c 1,13,-1
 916 987 l 2,14,15
 919 1389 919 1389 710 1455 c 1,16,17
 281 1564 281 1564 193 1211 c 1,18,-1
 194 833 l 1,0,1
EndSplineSet
Validated: 41
Substitution2: "'fina' Terminal Forms in Arabic lookup 3 subtable" tehfinal
Substitution2: "'medi' Medial Forms in Arabic lookup 2 subtable" tehmedial
Substitution2: "'init' Initial Forms in Arabic lookup 1 subtable" tehinitial
Substitution2: "'isol' Isolated Forms in Arabic lookup 0 subtable" T
EndChar

StartChar: theh
Encoding: 1579 68866 170
Width: 1003
Flags: W
LayerCount: 2
Fore
SplineSet
826 0 m 1,0,-1
 60 -1 l 1,1,-1
 -56 246 l 1,2,-1
 721 246 l 1,3,4
 931 330 931 330 850 720 c 1,5,6
 778 643 778 643 702 643 c 128,-1,7
 626 643 626 643 560 663 c 128,-1,8
 494 683 494 683 451 723.5 c 128,-1,9
 408 764 408 764 379 850 c 1,10,11
 354 972 354 972 412 1098 c 1,12,13
 483 1230 483 1230 656 1256 c 1,14,15
 865 1267 865 1267 1015 1055 c 1,16,17
 1101 817 1101 817 1093 441 c 1,18,-1
 1082 268 l 1,19,-1
 1021 126 l 1,20,-1
 944 44 l 1,21,-1
 826 0 l 1,0,-1
814 896 m 0,22,23
 820 934 820 934 807 1015 c 1,24,25
 739 1098 739 1098 655 1087 c 1,26,27
 615 1087 615 1087 589 1047.5 c 128,-1,28
 563 1008 563 1008 563 953 c 0,29,30
 563 813 563 813 694 813 c 0,31,32
 728 813 728 813 766.5 829 c 128,-1,33
 805 845 805 845 814 896 c 0,22,23
EndSplineSet
Validated: 33
Substitution2: "'fina' Terminal Forms in Arabic lookup 3 subtable" thehfinal
Substitution2: "'medi' Medial Forms in Arabic lookup 2 subtable" thehmedial
Substitution2: "'init' Initial Forms in Arabic lookup 1 subtable" thehinitial
Substitution2: "'isol' Isolated Forms in Arabic lookup 0 subtable" PA
EndChar

StartChar: jeem
Encoding: 1580 68869 171
Width: 1248
Flags: W
LayerCount: 2
Fore
SplineSet
816 938 m 1,1,-1
 816 1093 l 1,2,3
 768 1224 768 1224 940 1290 c 1,4,-1
 1026 1183 l 1,5,-1
 1026 539 l 1,6,7
 534 793 534 793 467 206 c 1,8,9
 143 206 143 206 -28 209 c 1,10,-1
 -103 221 l 1,11,12
 32 90 32 90 108 2 c 1,13,14
 484 -10 484 -10 597 93 c 1,15,16
 783 -19 783 -19 919 -3 c 1,17,18
 1142 -21 1142 -21 1183 90 c 1,19,-1
 1247 232 l 1,20,-1
 1268 316 l 1,21,-1
 1268 358 l 1,22,-1
 1264 421 l 1,23,-1
 1264 482 l 1,24,25
 1268 617 1268 617 1268 685 c 2,26,-1
 1268 723 l 1,27,-1
 1268 761 l 1,28,-1
 1268 800 l 1,29,-1
 1268 864 l 1,30,-1
 1268 902 l 1,31,-1
 1268 953 l 1,32,-1
 1268 992 l 1,33,-1
 1268 1242 l 1,34,-1
 1222 1299 l 1,35,36
 943 1708 943 1708 587 1306 c 1,37,0
 490 815 490 815 816 938 c 1,1,-1
983 427 m 1,38,39
 1075 81 1075 81 758 140 c 1,40,41
 556 388 556 388 866 466 c 1,42,-1
 983 427 l 1,38,39
EndSplineSet
Validated: 41
Substitution2: "'fina' Terminal Forms in Arabic lookup 3 subtable" jeemfinal
Substitution2: "'medi' Medial Forms in Arabic lookup 2 subtable" jeemmedial
Substitution2: "'init' Initial Forms in Arabic lookup 1 subtable" jeeminitial
Substitution2: "'isol' Isolated Forms in Arabic lookup 0 subtable" JA
EndChar

StartChar: hah
Encoding: 1581 68870 172
Width: 1138
Flags: W
LayerCount: 2
Fore
SplineSet
341 4 m 1,1,-1
 448 107 l 1,2,3
 487 -16 487 -16 695 2 c 1,4,-1
 1033 1 l 1,5,-1
 1141 226 l 1,6,-1
 1141 1378 l 1,7,8
 1057 1553 1057 1553 936 1408 c 1,9,-1
 935 559 l 1,10,11
 465 702 465 702 395 209 c 1,12,-1
 -52 207 l 1,13,-1
 87 8 l 1,14,0
 211 -1 211 -1 341 4 c 1,1,-1
868 186 m 1,16,17
 718 82 718 82 643 229 c 1,18,19
 607 372 607 372 777 394 c 1,20,15
 945 302 945 302 868 186 c 1,16,17
EndSplineSet
Validated: 41
Substitution2: "'isol' Isolated Forms in Arabic lookup 0 subtable" CHA
Substitution2: "'init' Initial Forms in Arabic lookup 1 subtable" hahinitial
Substitution2: "'medi' Medial Forms in Arabic lookup 2 subtable" hahmedial
Substitution2: "'fina' Terminal Forms in Arabic lookup 3 subtable" hahfinal
EndChar

StartChar: khah
Encoding: 1582 68872 173
Width: 1050
Flags: W
LayerCount: 2
Fore
SplineSet
190 858 m 1,0,1
 753 750 753 750 795 471 c 128,-1,2
 837 192 837 192 489 198 c 0,3,4
 -126 207 -126 207 -50 201 c 1,5,-1
 140 -3 l 1,6,-1
 591 -4 l 2,7,8
 820 -5 820 -5 945 169 c 1,9,10
 1168 682 1168 682 517 905 c 1,11,-1
 940 1194 l 1,12,-1
 1065 1506 l 1,13,-1
 190 858 l 1,0,1
EndSplineSet
Validated: 41
Substitution2: "'isol' Isolated Forms in Arabic lookup 0 subtable" KHA
Substitution2: "'init' Initial Forms in Arabic lookup 1 subtable" khahinitial
Substitution2: "'medi' Medial Forms in Arabic lookup 2 subtable" khahmedial
Substitution2: "'fina' Terminal Forms in Arabic lookup 3 subtable" khahfinal
EndChar

StartChar: dal
Encoding: 1583 68874 174
Width: 1122
Flags: W
LayerCount: 2
Fore
SplineSet
555 638 m 1,1,-1
 749 659 l 1,2,-1
 958 640 l 1,3,-1
 1042 599 l 1,4,5
 1158 347 1158 347 1014 212 c 1,6,-1
 930 196 l 1,7,-1
 -65 197 l 1,8,-1
 50 2 l 1,9,-1
 1054 2 l 1,10,11
 1194 9 1194 9 1227 158 c 1,12,13
 1307 364 1307 364 1255 590 c 0,14,15
 1183 919 1183 919 560 812 c 1,16,0
 423 740 423 740 555 638 c 1,1,-1
EndSplineSet
Validated: 41
Substitution2: "'isol' Isolated Forms in Arabic lookup 0 subtable" dalisolated
Substitution2: "'fina' Terminal Forms in Arabic lookup 3 subtable" dalfinal
EndChar

StartChar: thal
Encoding: 1584 1101856 175
Width: 806
Flags: W
LayerCount: 2
Fore
SplineSet
-34 197 m 1,1,-1
 59 -3 l 1,2,-1
 708 -3 l 1,3,-1
 754 33 l 1,4,-1
 793 97 l 1,5,6
 843 219 843 219 763 335 c 1,7,-1
 699 385 l 1,8,-1
 762 522 l 1,9,10
 798 716 798 716 545 727 c 1,11,-1
 443 706 l 1,12,-1
 441 688 l 1,13,0
 512 31 512 31 -34 197 c 1,1,-1
650 474 m 1,15,16
 455 476 455 476 534 621 c 1,17,14
 694 617 694 617 650 474 c 1,15,16
674 130 m 1,19,20
 463 132 463 132 549 315 c 1,21,18
 721 309 721 309 674 130 c 1,19,20
EndSplineSet
Validated: 41
Substitution2: "'isol' Isolated Forms in Arabic lookup 0 subtable" thalisolated
Substitution2: "'fina' Terminal Forms in Arabic lookup 3 subtable" thalfinal
EndChar

StartChar: reh
Encoding: 1585 68876 176
Width: 851
Flags: W
LayerCount: 2
Fore
SplineSet
674 1106 m 1,1,-1
 478 1108 l 1,2,3
 305 1012 305 1012 470 912 c 1,4,-1
 649 909 l 1,5,-1
 650 339 l 1,6,7
 595 193 595 193 470 190 c 2,8,-1
 -44 192 l 1,9,-1
 69 -4 l 1,10,-1
 617 -4 l 1,11,12
 833 0 833 0 859 167 c 1,13,-1
 857 917 l 1,14,15
 1064 893 1064 893 1176 944 c 1,16,17
 1410 1145 1410 1145 1174 1450 c 1,18,0
 635 1603 635 1603 674 1106 c 1,1,-1
1136 1171 m 1,20,21
 1035 1040 1035 1040 880 1119 c 1,22,23
 812 1208 812 1208 880 1297 c 1,24,19
 1113 1327 1113 1327 1136 1171 c 1,20,21
EndSplineSet
Validated: 41
Substitution2: "'isol' Isolated Forms in Arabic lookup 0 subtable" rehisolated
Substitution2: "'fina' Terminal Forms in Arabic lookup 3 subtable" rehfinal
EndChar

StartChar: zain
Encoding: 1586 68878 177
Width: 1201
Flags: W
LayerCount: 2
Fore
SplineSet
378 289 m 1,0,1
 351 187 351 187 -74 261 c 1,2,-1
 65 29 l 1,3,4
 260 -13 260 -13 373 39 c 1,5,6
 616 -60 616 -60 809 47 c 1,7,8
 1038 -50 1038 -50 1150 43 c 128,-1,9
 1262 136 1262 136 1219 473 c 1,10,11
 1131 594 1131 594 1065 478 c 1,12,13
 1079 136 1079 136 919 249 c 1,14,15
 878 197 878 197 897 1216 c 1,16,-1
 876 1276 l 1,17,18
 616 1543 616 1543 379 1261 c 1,19,-1
 378 289 l 1,0,1
708 1134 m 1,21,-1
 708 291 l 1,22,23
 630 181 630 181 549 281 c 1,24,-1
 550 1140 l 1,25,20
 629 1233 629 1233 708 1134 c 1,21,-1
EndSplineSet
Validated: 41
Substitution2: "'isol' Isolated Forms in Arabic lookup 0 subtable" zainisolated
Substitution2: "'fina' Terminal Forms in Arabic lookup 3 subtable" zainfinal
EndChar

StartChar: seen
Encoding: 1587 68879 178
Width: 975
Flags: W
LayerCount: 2
Fore
SplineSet
293 656 m 1,1,2
 315 413 315 413 691 495 c 1,3,4
 835 632 835 632 601 669 c 1,5,6
 372 588 372 588 506 786 c 1,7,8
 792 894 792 894 865 691 c 1,9,10
 965 459 965 459 905 326 c 128,-1,11
 845 193 845 193 779 194 c 2,12,-1
 -51 193 l 1,13,-1
 86 7 l 1,14,-1
 765 0 l 1,15,16
 959 34 959 34 1020 112 c 1,17,18
 1061 182 1061 182 1103 310 c 1,19,-1
 1118 430 l 1,20,21
 1078 1015 1078 1015 580 990 c 1,22,0
 260 889 260 889 293 656 c 1,1,2
EndSplineSet
Validated: 41
Substitution2: "'isol' Isolated Forms in Arabic lookup 0 subtable" SA
Substitution2: "'init' Initial Forms in Arabic lookup 1 subtable" seeninitial
Substitution2: "'medi' Medial Forms in Arabic lookup 2 subtable" seenmedial
Substitution2: "'fina' Terminal Forms in Arabic lookup 3 subtable" seenfinal
EndChar

StartChar: sheen
Encoding: 1588 68880 179
Width: 1016
Flags: W
LayerCount: 2
Fore
SplineSet
419 800 m 1,0,1
 333 456 333 456 767 481 c 1,2,3
 911 609 911 609 755 661 c 1,4,5
 577 611 577 611 594 754 c 1,6,7
 735 949 735 949 903 757 c 1,8,-1
 954 678 l 1,9,-1
 974 590 l 1,10,-1
 974 475 l 1,11,-1
 952 364 l 1,12,13
 921 251 921 251 839 201 c 1,14,-1
 738 199 l 1,15,16
 672 255 672 255 724 313 c 1,17,18
 621 421 621 421 545 316 c 1,19,20
 582 267 582 267 527 207 c 1,21,22
 375 205 375 205 -66 210 c 1,23,-1
 100 -2 l 1,24,25
 372 2 372 2 518 1 c 1,26,-1
 602 115 l 1,27,-1
 714 2 l 1,28,-1
 940 1 l 1,29,30
 1006 53 1006 53 1067 146 c 1,31,-1
 1110 232 l 1,32,-1
 1128 263 l 1,33,-1
 1148 321 l 1,34,-1
 1163 372 l 1,35,-1
 1172 412 l 1,36,-1
 1180 489 l 1,37,-1
 1176 541 l 1,38,-1
 1175 603 l 1,39,-1
 1161 648 l 1,40,-1
 1131 736 l 1,41,-1
 1073 831 l 1,42,43
 784 1175 784 1175 469 872 c 1,44,-1
 419 800 l 1,0,1
EndSplineSet
Validated: 41
Substitution2: "'isol' Isolated Forms in Arabic lookup 0 subtable" SHA
Substitution2: "'init' Initial Forms in Arabic lookup 1 subtable" sheeninitial
Substitution2: "'medi' Medial Forms in Arabic lookup 2 subtable" sheenmedial
Substitution2: "'fina' Terminal Forms in Arabic lookup 3 subtable" sheenfinal
EndChar

StartChar: sad
Encoding: 1589 68877 180
Width: 1423
Flags: W
LayerCount: 2
Fore
SplineSet
344 1110 m 1,1,-1
 27 1061 l 1,2,-1
 145 967 l 1,3,-1
 355 997 l 1,4,-1
 354 253 l 1,5,-1
 -82 256 l 1,6,-1
 97 -2 l 1,7,8
 275 -1 275 -1 1203 0 c 1,9,10
 1622 409 1622 409 1210 742 c 1,11,12
 707 775 707 775 549 365 c 1,13,-1
 549 1041 l 1,14,15
 787 1049 787 1049 809 1207 c 1,16,17
 807 1411 807 1411 636 1415 c 1,18,0
 335 1398 335 1398 344 1110 c 1,1,-1
683 1217 m 1,20,21
 623 1130 623 1130 527 1171 c 1,22,23
 457 1255 457 1255 556 1309 c 1,24,19
 680 1330 680 1330 683 1217 c 1,20,21
1105 570 m 1,25,26
 1334 393 1334 393 1083 257 c 1,27,-1
 565 256 l 1,28,29
 776 561 776 561 1105 570 c 1,25,26
EndSplineSet
Validated: 41
Substitution2: "'isol' Isolated Forms in Arabic lookup 0 subtable" RRA
Substitution2: "'init' Initial Forms in Arabic lookup 1 subtable" sadinitial
Substitution2: "'medi' Medial Forms in Arabic lookup 2 subtable" sadmedial
Substitution2: "'fina' Terminal Forms in Arabic lookup 3 subtable" sadfinal
EndChar

StartChar: dad
Encoding: 1590 68875 181
Width: 1646
Flags: W
LayerCount: 2
Fore
SplineSet
661 1236 m 1,0,-1
 663 451 l 1,1,2
 690 210 690 210 292 235 c 1,3,-1
 -52 235 l 1,4,-1
 216 14 l 1,5,-1
 1504 0 l 1,6,7
 1847 371 1847 371 1472 655 c 1,8,9
 1026 705 1026 705 878 428 c 1,10,-1
 878 1252 l 1,11,12
 749 1510 749 1510 661 1236 c 1,0,-1
1055 407 m 1,13,14
 1194 396 1194 396 1083 317 c 1,15,16
 964 241 964 241 850 245 c 1,17,18
 939 346 939 346 1055 407 c 1,13,14
1410.5 525.5 m 128,-1,20
 1554 452 1554 452 1502 230 c 1,21,22
 949 225 949 225 1055 241.5 c 128,-1,23
 1161 258 1161 258 1208.5 324 c 128,-1,24
 1256 390 1256 390 1193.5 441 c 128,-1,25
 1131 492 1131 492 1028.5 451.5 c 128,-1,26
 926 411 926 411 1096.5 505 c 128,-1,19
 1267 599 1267 599 1410.5 525.5 c 128,-1,20
EndSplineSet
Validated: 41
Substitution2: "'isol' Isolated Forms in Arabic lookup 0 subtable" dda
Substitution2: "'init' Initial Forms in Arabic lookup 1 subtable" dadinitial
Substitution2: "'medi' Medial Forms in Arabic lookup 2 subtable" dadmedial
Substitution2: "'fina' Terminal Forms in Arabic lookup 3 subtable" dadfinal
EndChar

StartChar: tah
Encoding: 1591 68868 182
Width: 696
Flags: W
LayerCount: 2
Fore
SplineSet
518 1017 m 1,1,-1
 517 618 l 1,2,-1
 515 413 l 2,3,4
 511 206 511 206 368 204 c 2,5,-1
 -60 203 l 1,6,-1
 70 1 l 1,7,-1
 575 0 l 1,8,9
 709 34 709 34 734 175 c 1,10,-1
 733 997 l 1,11,-1
 1025 1166 l 1,12,13
 1063 1265 1063 1265 1120 1416 c 1,14,-1
 751 1260 l 1,15,0
 546 1182 546 1182 518 1017 c 1,1,-1
EndSplineSet
Validated: 9
Substitution2: "'isol' Isolated Forms in Arabic lookup 0 subtable" tahisolated
Substitution2: "'init' Initial Forms in Arabic lookup 1 subtable" tahinitial
Substitution2: "'medi' Medial Forms in Arabic lookup 2 subtable" tahmedial
Substitution2: "'fina' Terminal Forms in Arabic lookup 3 subtable" tahfinal
EndChar

StartChar: zah
Encoding: 1592 68873 183
Width: 1187
Flags: W
LayerCount: 2
Fore
SplineSet
375 1159 m 1,1,2
 296 1105 296 1105 256 1182 c 1,3,4
 237 1258 237 1258 327 1269 c 1,5,0
 415 1221 415 1221 375 1159 c 1,1,2
532 1184 m 1,7,8
 453 1130 453 1130 413 1207 c 1,9,10
 394 1282 394 1282 484 1294 c 1,11,6
 573 1245 573 1245 532 1184 c 1,7,8
457 1018 m 1,13,14
 379 964 379 964 339 1041 c 1,15,16
 320 1116 320 1116 409 1128 c 1,17,12
 498 1079 498 1079 457 1018 c 1,13,14
1029 4 m 1,18,-1
 55 3 l 1,19,-1
 -55 238 l 1,20,-1
 574 240 l 1,21,-1
 912 238 l 1,22,23
 1077 281 1077 281 1053 705 c 1,24,25
 973 648 973 648 917 634 c 128,-1,26
 861 620 861 620 781 630 c 128,-1,27
 701 640 701 640 641.5 692.5 c 128,-1,28
 582 745 582 745 545 879 c 1,29,30
 537 1041 537 1041 598 1138 c 0,31,32
 681 1262 681 1262 854 1275 c 1,33,34
 1088 1262 1088 1262 1219 1059 c 1,35,36
 1305 821 1305 821 1297 445 c 1,37,-1
 1286 272 l 1,38,-1
 1225 130 l 1,39,-1
 1147 48 l 1,40,-1
 1029 4 l 1,18,-1
997 898 m 0,41,42
 1004 937 1004 937 991 1021 c 1,43,44
 921 1105 921 1105 835 1094 c 1,45,46
 793 1094 793 1094 766 1053.5 c 128,-1,47
 739 1013 739 1013 739 957 c 0,48,49
 739 813 739 813 874 813 c 0,50,51
 910 813 910 813 949.5 829 c 128,-1,52
 989 845 989 845 997 898 c 0,41,42
EndSplineSet
Validated: 33
Substitution2: "'fina' Terminal Forms in Arabic lookup 3 subtable" zahfinal
Substitution2: "'medi' Medial Forms in Arabic lookup 2 subtable" zahmedial
Substitution2: "'init' Initial Forms in Arabic lookup 1 subtable" zahinitial
Substitution2: "'isol' Isolated Forms in Arabic lookup 0 subtable" zahisolated
EndChar

StartChar: ain
Encoding: 1593 68891 184
Width: 826
Flags: W
LayerCount: 2
Fore
SplineSet
588 450 m 1,0,1
 580 219 580 219 350 250 c 1,2,-1
 -67 249 l 1,3,-1
 56 -6 l 1,4,-1
 563 -5 l 1,5,6
 849 -32 849 -32 844 273 c 1,7,-1
 846 871 l 1,8,-1
 1155 869 l 1,9,10
 1283 979 1283 979 1155 1097 c 1,11,-1
 854 1096 l 1,12,-1
 854 1311 l 1,13,14
 686 1512 686 1512 590 1307 c 1,15,-1
 588 450 l 1,0,1
EndSplineSet
Validated: 41
Substitution2: "'isol' Isolated Forms in Arabic lookup 0 subtable" NAYA
Substitution2: "'init' Initial Forms in Arabic lookup 1 subtable" aininitial
Substitution2: "'medi' Medial Forms in Arabic lookup 2 subtable" ainmedial
Substitution2: "'fina' Terminal Forms in Arabic lookup 3 subtable" ainfinal
EndChar

StartChar: ghain
Encoding: 1594 68882 185
Width: 1248
Flags: W
LayerCount: 2
Fore
SplineSet
469 200 m 1,1,2
 225 199 225 199 -70 199 c 1,3,4
 -38 99 -38 99 84 2 c 1,5,6
 214 2 214 2 517 2 c 1,7,-1
 651 85 l 1,8,-1
 785 2 l 1,9,10
 1083 4 1083 4 1233 3 c 1,11,12
 1376 94 1376 94 1243 199 c 1,13,-1
 1054 197 l 1,14,15
 692 181 692 181 670 279 c 1,16,17
 504 565 504 565 702 743 c 1,18,19
 1124 819 1124 819 1084 555 c 1,20,-1
 939 564 l 1,21,-1
 857 550 l 1,22,-1
 817 523 l 1,23,-1
 789 490 l 1,24,-1
 789 426 l 1,25,-1
 808 388 l 1,26,-1
 845 348 l 1,27,-1
 881 338 l 1,28,-1
 930 333 l 1,29,-1
 1142 334 l 1,30,-1
 1176 349 l 1,31,-1
 1201 364 l 1,32,-1
 1222 389 l 1,33,-1
 1254 427 l 1,34,-1
 1276 490 l 1,35,-1
 1295 531 l 1,36,37
 1241 1026 1241 1026 732 942 c 1,38,0
 275 842 275 842 469 200 c 1,1,2
EndSplineSet
Validated: 41
Substitution2: "'isol' Isolated Forms in Arabic lookup 0 subtable" ghainisolated
Substitution2: "'init' Initial Forms in Arabic lookup 1 subtable" ghaininitial
Substitution2: "'medi' Medial Forms in Arabic lookup 2 subtable" ghainmedial
Substitution2: "'fina' Terminal Forms in Arabic lookup 3 subtable" ghainfinal
EndChar

StartChar: tatweel
Encoding: 1600 1600 186
Width: 450
Flags: W
LayerCount: 2
Fore
SplineSet
503 2 m 1,0,-1
 -50 2 l 1,1,-1
 -50 198 l 1,2,-1
 503 198 l 1,3,-1
 503 2 l 1,0,-1
EndSplineSet
Validated: 1
EndChar

StartChar: feh
Encoding: 1601 1601 187
Width: 1025
Flags: W
LayerCount: 2
Fore
SplineSet
166 1191 m 1,0,1
 265 969 265 969 381 1180 c 1,2,3
 359 1373 359 1373 182 1264 c 1,4,-1
 166 1191 l 1,0,1
890 0 m 1,5,-1
 115 -1 l 1,6,-1
 -66 222 l 1,7,-1
 790 222 l 1,8,9
 966 277 966 277 918 674 c 1,10,11
 835 616 835 616 771.5 606.5 c 128,-1,12
 708 597 708 597 634.5 614.5 c 128,-1,13
 561 632 561 632 490.5 682 c 128,-1,14
 420 732 420 732 396.5 872 c 128,-1,15
 373 1012 373 1012 452 1154 c 1,16,17
 545 1256 545 1256 699 1266 c 0,18,19
 951 1279 951 1279 1079 1055 c 1,20,21
 1165 817 1165 817 1157 441 c 1,22,-1
 1146 268 l 1,23,-1
 1085 126 l 1,24,-1
 1008 44 l 1,25,-1
 890 0 l 1,5,-1
852 872 m 0,26,27
 859 914 859 914 844 1003 c 1,28,29
 770 1094 770 1094 677 1082 c 1,30,31
 632 1082 632 1082 603.5 1038.5 c 128,-1,32
 575 995 575 995 575 935 c 0,33,34
 575 780 575 780 719 780 c 0,35,36
 758 780 758 780 800.5 797.5 c 128,-1,37
 843 815 843 815 852 872 c 0,26,27
EndSplineSet
Validated: 41
Substitution2: "'isol' Isolated Forms in Arabic lookup 0 subtable" fehisolated
Substitution2: "'init' Initial Forms in Arabic lookup 1 subtable" fehinitial
Substitution2: "'medi' Medial Forms in Arabic lookup 2 subtable" fehmedial
Substitution2: "'fina' Terminal Forms in Arabic lookup 3 subtable" fehfinal
EndChar

StartChar: qaf
Encoding: 1602 1602 188
Width: 1003
Flags: W
LayerCount: 2
Fore
SplineSet
825 1313 m 1,0,1
 821 981 821 981 825 588 c 1,2,3
 291 674 291 674 351 200 c 1,4,5
 72 199 72 199 -75 200 c 1,6,-1
 34 2 l 1,7,-1
 227 0 l 1,8,9
 376 3 376 3 427 100 c 1,10,11
 474 -21 474 -21 743 0 c 1,12,-1
 870 -1 l 1,13,14
 1054 17 1054 17 1030 388 c 1,15,-1
 1031 905 l 1,16,17
 1294 887 1294 887 1299.5 984.5 c 128,-1,18
 1305 1082 1305 1082 1033 1070 c 1,19,-1
 1033 1316 l 1,20,21
 925 1461 925 1461 825 1313 c 1,0,1
836 252 m 1,23,24
 673 37 673 37 537 252 c 1,25,26
 501 360 501 360 619 421 c 1,27,22
 828 475 828 475 836 252 c 1,23,24
EndSplineSet
Validated: 41
Substitution2: "'isol' Isolated Forms in Arabic lookup 0 subtable" gna
Substitution2: "'init' Initial Forms in Arabic lookup 1 subtable" qafinitial
Substitution2: "'medi' Medial Forms in Arabic lookup 2 subtable" qafmedial
Substitution2: "'fina' Terminal Forms in Arabic lookup 3 subtable" qaffinal
EndChar

StartChar: arabickaf
Encoding: 1603 68881 189
Width: 1509
Flags: W
LayerCount: 2
Fore
SplineSet
395 1374 m 1,1,2
 388 1161 388 1161 387 258 c 1,3,-1
 -109 260 l 1,4,-1
 167 2 l 1,5,-1
 625 -2 l 1,6,-1
 1184 2 l 1,7,-1
 1349 64 l 1,8,9
 1715 441 1715 441 1356 768 c 1,10,11
 858 870 858 870 860 379 c 1,12,13
 862 1119 862 1119 865 1386 c 1,14,0
 595 1817 595 1817 395 1374 c 1,1,2
671 1260 m 1,15,-1
 670 259 l 1,16,-1
 564 261 l 1,17,-1
 563 1279 l 1,18,19
 615 1470 615 1470 671 1260 c 1,15,-1
710 270 m 1,20,-1
 884 432 l 1,21,-1
 1138 600 l 1,22,23
 1454 487 1454 487 1209 270 c 1,24,-1
 710 270 l 1,20,-1
EndSplineSet
Validated: 37
Substitution2: "'isol' Isolated Forms in Arabic lookup 0 subtable" kafisolated
Substitution2: "'init' Initial Forms in Arabic lookup 1 subtable" kafinitial
Substitution2: "'medi' Medial Forms in Arabic lookup 2 subtable" kafmedial
Substitution2: "'fina' Terminal Forms in Arabic lookup 3 subtable" arabickaffinal
EndChar

StartChar: lam
Encoding: 1604 68883 190
Width: 950
Flags: W
LayerCount: 2
Fore
SplineSet
711 490 m 1,1,2
 697 351 697 351 596 253 c 1,3,-1
 486 216 l 1,4,-1
 360 222 l 1,5,-1
 220 262 l 1,6,-1
 84 321 l 1,7,8
 -69 210 -69 210 99 50 c 1,9,10
 453 -46 453 -46 749 49 c 1,11,12
 914 186 914 186 945 344 c 1,13,-1
 944 816 l 1,14,-1
 945 1339 l 1,15,16
 849 1578 849 1578 706 1363 c 1,17,0
 715 915 715 915 711 490 c 1,1,2
EndSplineSet
Validated: 41
Substitution2: "'isol' Isolated Forms in Arabic lookup 0 subtable" lamisolated
Substitution2: "'init' Initial Forms in Arabic lookup 1 subtable" laminitial
Substitution2: "'medi' Medial Forms in Arabic lookup 2 subtable" lammedial
Substitution2: "'fina' Terminal Forms in Arabic lookup 3 subtable" lamfinal
EndChar

StartChar: meem
Encoding: 1605 68892 191
Width: 1047
Flags: W
LayerCount: 2
Fore
SplineSet
992 -10 m 1,0,-1
 943 -44 l 1,1,-1
 900 -56 l 1,2,-1
 849 -67 l 1,3,-1
 770 -58 l 1,4,-1
 722 -41 l 1,5,-1
 646 1 l 1,6,-1
 563 145 l 1,7,-1
 462 1 l 1,8,9
 361 2 361 2 225 0 c 2,10,-1
 70 0 l 1,11,-1
 -39 191 l 1,12,13
 407 149 407 149 493 238.5 c 128,-1,14
 579 328 579 328 603 416.5 c 128,-1,15
 627 505 627 505 663.5 550.5 c 128,-1,16
 700 596 700 596 769.5 629 c 128,-1,17
 839 662 839 662 914 654.5 c 128,-1,18
 989 647 989 647 1041 567 c 0,19,20
 1245 238 1245 238 992 -10 c 1,0,-1
965.5 380 m 128,-1,22
 925 481 925 481 877 480 c 128,-1,23
 829 479 829 479 769 403.5 c 128,-1,24
 709 328 709 328 685 208 c 1,25,26
 760 150 760 150 794 139.5 c 128,-1,27
 828 129 828 129 873 150 c 1,28,-1
 918 179 l 1,29,21
 1006 279 1006 279 965.5 380 c 128,-1,22
EndSplineSet
Validated: 33
Substitution2: "'isol' Isolated Forms in Arabic lookup 0 subtable" meemisolated
Substitution2: "'init' Initial Forms in Arabic lookup 1 subtable" meeminitial
Substitution2: "'medi' Medial Forms in Arabic lookup 2 subtable" meemmedial
Substitution2: "'fina' Terminal Forms in Arabic lookup 3 subtable" meemfinal
EndChar

StartChar: noon
Encoding: 1606 68885 192
Width: 1373
Flags: W
LayerCount: 2
Fore
SplineSet
534 789 m 1,1,-1
 535 454 l 1,2,3
 529 273 529 273 412 228 c 1,4,-1
 -44 228 l 1,5,6
 0 137 0 137 186 -1 c 1,7,-1
 571 0 l 1,8,-1
 681 127 l 1,9,-1
 772 -2 l 1,10,11
 1055 14 1055 14 1079 171 c 1,12,13
 1118 526 1118 526 870 532 c 1,14,-1
 715 454 l 1,15,16
 672 1066 672 1066 909 1081 c 1,17,18
 1172 1107 1172 1107 1221 740 c 1,19,-1
 1220 147 l 1,20,21
 1303 14 1303 14 1366 152 c 1,22,23
 1363 663 1363 663 1367 913 c 1,24,25
 1348 1290 1348 1290 869 1270 c 1,26,0
 516 1225 516 1225 534 789 c 1,1,-1
930 255.5 m 128,-1,28
 920 207 920 207 848 187.5 c 128,-1,29
 776 168 776 168 732.5 197.5 c 128,-1,30
 689 227 689 227 672.5 264.5 c 128,-1,31
 656 302 656 302 710 353.5 c 128,-1,32
 764 405 764 405 821 397 c 128,-1,33
 878 389 878 389 909 346.5 c 128,-1,27
 940 304 940 304 930 255.5 c 128,-1,28
EndSplineSet
Validated: 41
Substitution2: "'isol' Isolated Forms in Arabic lookup 0 subtable" noonisolated
Substitution2: "'init' Initial Forms in Arabic lookup 1 subtable" nooninitial
Substitution2: "'medi' Medial Forms in Arabic lookup 2 subtable" noonmedial
Substitution2: "'fina' Terminal Forms in Arabic lookup 3 subtable" noonfinal
EndChar

StartChar: heh
Encoding: 1607 1607 193
Width: 1503
Flags: W
LayerCount: 2
Fore
SplineSet
941 588 m 1,1,2
 473 823 473 823 495 240 c 1,3,-1
 -63 239 l 1,4,-1
 80 6 l 1,5,6
 517 -6 517 -6 528 91 c 1,7,8
 703 -109 703 -109 909 141 c 1,9,-1
 933 92 l 1,10,11
 973 -12 973 -12 1320 4 c 1,12,13
 1461 2 1461 2 1518 187 c 1,14,-1
 1518 771 l 1,15,16
 1392 975 1392 975 1145 913 c 1,17,0
 936 834 936 834 941 588 c 1,1,2
1102 705 m 1,18,19
 1274 776 1274 776 1323 655 c 1,20,21
 1331 445 1331 445 1325 183 c 1,22,23
 1212 113 1212 113 1104 185 c 1,24,25
 1099 453 1099 453 1102 705 c 1,18,19
772 203 m 1,27,28
 581 88 581 88 583 330 c 1,29,30
 600 561 600 561 768 467 c 1,31,26
 783 392 783 392 772 203 c 1,27,28
EndSplineSet
Validated: 41
Substitution2: "'isol' Isolated Forms in Arabic lookup 0 subtable" hehisolated
Substitution2: "'init' Initial Forms in Arabic lookup 1 subtable" hehinitial
Substitution2: "'medi' Medial Forms in Arabic lookup 2 subtable" hehmedial
Substitution2: "'fina' Terminal Forms in Arabic lookup 3 subtable" hehfinal
EndChar

StartChar: waw
Encoding: 1608 68886 194
Width: 1027
Flags: W
LayerCount: 2
Fore
SplineSet
562 1095.5 m 128,-1,1
 572 921 572 921 786 980 c 1,2,3
 771 859 771 859 650 703 c 1,4,5
 551 561 551 561 715 540 c 1,6,7
 926 476 926 476 900 262 c 1,8,9
 827 138 827 138 278 171 c 1,10,-1
 -54 171 l 1,11,-1
 158 0 l 1,12,-1
 853 0 l 1,13,-1
 943 44 l 1,14,-1
 990 105 l 1,15,-1
 1033 186 l 1,16,-1
 1057 275 l 1,17,-1
 1047 398 l 1,18,19
 986 590 986 590 747 644 c 1,20,-1
 782 688 l 1,21,22
 1013 997 1013 997 853 1197 c 1,23,-1
 782 1240 l 1,24,0
 552 1270 552 1270 562 1095.5 c 128,-1,1
774 1057 m 1,26,27
 698 1027 698 1027 660 1082 c 1,28,29
 640 1163 640 1163 731 1178 c 1,30,25
 836 1157 836 1157 774 1057 c 1,26,27
EndSplineSet
Validated: 41
Substitution2: "'isol' Isolated Forms in Arabic lookup 0 subtable" wa
Substitution2: "'fina' Terminal Forms in Arabic lookup 3 subtable" wawfinal
EndChar

StartChar: alefmaksura
Encoding: 1609 68889 195
Width: 803
Flags: W
LayerCount: 2
Fore
SplineSet
703 465 m 1,1,2
 691 199 691 199 492 206 c 1,3,-1
 -99 206 l 1,4,5
 -17 133 -17 133 80 4 c 1,6,7
 546 5 546 5 670 4 c 0,8,9
 921 2 921 2 953 263 c 1,10,11
 955 1073 955 1073 953 1382 c 1,12,13
 807 1573 807 1573 707 1387 c 1,14,0
 714 842 714 842 703 465 c 1,1,2
576 -268 m 1,16,17
 410 -487 410 -487 271 -268 c 1,18,19
 234 -158 234 -158 355 -95 c 1,20,15
 560 -40 560 -40 576 -268 c 1,16,17
EndSplineSet
Validated: 41
Substitution2: "'isol' Isolated Forms in Arabic lookup 0 subtable" alefmaksuraisolated
Substitution2: "'fina' Terminal Forms in Arabic lookup 3 subtable" alefmaksura.fina
EndChar

StartChar: yeh
Encoding: 1610 68888 196
Width: 798
Flags: W
LayerCount: 2
Fore
SplineSet
212 1074 m 1,1,2
 291 808 291 808 593 892 c 1,3,-1
 594 433 l 1,4,5
 599 156 599 156 299 198 c 1,6,-1
 -54 197 l 1,7,-1
 69 1 l 1,8,-1
 668 0 l 1,9,10
 784 61 784 61 804 182 c 0,11,12
 806 215 806 215 805 892 c 1,13,-1
 1175 892 l 1,14,15
 1282 1018 1282 1018 1154 1081 c 1,16,-1
 814 1079 l 1,17,18
 841 1435 841 1435 483 1419 c 1,19,0
 186 1401 186 1401 212 1074 c 1,1,2
645 1194 m 1,21,22
 646 975 646 975 399 1066 c 1,23,24
 308 1166 308 1166 405 1258 c 1,25,20
 565 1341 565 1341 645 1194 c 1,21,22
EndSplineSet
Validated: 41
Substitution2: "'isol' Isolated Forms in Arabic lookup 0 subtable" yehisolated
Substitution2: "'init' Initial Forms in Arabic lookup 1 subtable" yehinitial
Substitution2: "'medi' Medial Forms in Arabic lookup 2 subtable" yehmedial
Substitution2: "'fina' Terminal Forms in Arabic lookup 3 subtable" yehfinal
EndChar

StartChar: fathatan
Encoding: 1611 68899 197
Width: 408
Flags: W
LayerCount: 2
Fore
SplineSet
70 1370 m 1,0,1
 195 1395 195 1395 195 1520 c 1,2,3
 470 1495 470 1495 395 1820 c 1,4,-1
 320 1820 l 1,5,6
 370 1620 370 1620 195 1595 c 1,7,8
 195 1795 195 1795 70 1820 c 1,9,-1
 70 1370 l 1,0,1
EndSplineSet
Validated: 41
Substitution2: "Single Substitution lookup 8 subtable" fathatanlow
Substitution2: "Single Substitution lookup 7 subtable" fathatanisolated
EndChar

StartChar: dammatan
Encoding: 1612 68898 198
Width: 651
Flags: W
LayerCount: 2
Fore
SplineSet
286 567 m 1,0,1
 587 642 587 642 286 717 c 1,2,-1
 197 642 l 1,3,-1
 286 567 l 1,0,1
510 526 m 1,5,-1
 507 216 l 1,6,-1
 -30 216 l 1,7,-1
 52 16 l 1,8,-1
 653 16 l 1,9,-1
 653 457 l 1,10,-1
 652 528 l 1,11,4
 568 620 568 620 510 526 c 1,5,-1
EndSplineSet
Validated: 41
Substitution2: "Single Substitution lookup 7 subtable" dammatanisolated
Substitution2: "Single Substitution lookup 8 subtable" dammatanlow
EndChar

StartChar: kasratan
Encoding: 1613 68900 199
Width: 330
Flags: W
LayerCount: 2
Fore
SplineSet
341 1958 m 1,0,1
 314 1945 314 1945 263 1905 c 1,2,-1
 225 1863 l 2,3,4
 208 1843 208 1843 208 1836 c 0,5,6
 208 1821 208 1821 227 1805 c 2,7,-1
 294 1747 l 2,8,9
 323 1722 323 1722 323 1690 c 0,10,11
 323 1657 323 1657 301 1637 c 2,12,-1
 196 1544 l 2,13,14
 149 1503 149 1503 68 1503 c 0,15,16
 31 1503 31 1503 8 1514 c 1,17,18
 44 1520 44 1520 78 1555 c 2,19,-1
 116 1595 l 2,20,21
 144 1624 144 1624 144 1640 c 0,22,23
 144 1650 144 1650 117 1674 c 2,24,-1
 63 1723 l 2,25,26
 27 1756 27 1756 27 1786 c 0,27,28
 27 1817 27 1817 65 1851 c 2,29,-1
 154 1928 l 2,30,31
 193 1962 193 1962 284 1962 c 0,32,33
 308 1962 308 1962 341 1958 c 1,0,1
EndSplineSet
Validated: 1
Substitution2: "Single Substitution lookup 10 subtable" kasratanisolated
Substitution2: "Single Substitution lookup 11 subtable" kasratanlow
EndChar

StartChar: fatha
Encoding: 1614 68901 200
Width: 915
Flags: W
LayerCount: 2
Fore
SplineSet
895 2080 m 1,0,-1
 695 1880 l 1,1,-1
 220 1905 l 1,2,-1
 195 1830 l 1,3,4
 70 1705 70 1705 -5 1580 c 1,5,6
 395 1730 395 1730 745 1705 c 1,7,8
 870 1905 870 1905 920 2080 c 1,9,-1
 895 2080 l 1,0,-1
EndSplineSet
Validated: 41
Substitution2: "Single Substitution lookup 7 subtable" fathaisolated
Substitution2: "Single Substitution lookup 8 subtable" fathalow
EndChar

StartChar: damma
Encoding: 1615 1615 201
Width: 951
Flags: WO
LayerCount: 2
Fore
SplineSet
750 550 m 1,1,-1
 750 251 l 1,2,3
 663 116 663 116 552 242 c 1,4,-1
 553 548 l 1,5,6
 425 703 425 703 337 546 c 1,7,8
 335 372 335 372 336 186 c 1,9,10
 99 190 99 190 -48 184 c 1,11,-1
 -48 -2 l 1,12,-1
 227 -4 l 1,13,14
 303 8 303 8 337 92 c 1,15,-1
 385 26 l 1,16,-1
 460 -3 l 1,17,-1
 740 -2 l 1,18,19
 957 -18 957 -18 973 210 c 1,20,-1
 971 557 l 1,21,0
 834 705 834 705 750 550 c 1,1,-1
EndSplineSet
Validated: 41
Substitution2: "Single Substitution lookup 8 subtable" dammalow
Substitution2: "Single Substitution lookup 7 subtable" dammaisolated
EndChar

StartChar: kasra
Encoding: 1616 1616 202
Width: 577
Flags: W
LayerCount: 2
Fore
SplineSet
39 75 m 1,0,-1
 94 24 l 1,1,-1
 208 0 l 1,2,-1
 911 -4 l 1,3,-1
 911 221 l 1,4,-1
 298 221 l 1,5,-1
 205 242 l 1,6,-1
 221 335 l 1,7,-1
 225 1238 l 1,8,-1
 -280 772 l 1,9,-1
 483 1058 l 1,10,11
 611 1298 611 1298 404 1400 c 128,-1,12
 197 1502 197 1502 -5 1246 c 1,13,-1
 -3 229 l 1,14,-1
 12 134 l 1,15,-1
 39 75 l 1,0,-1
361 1150 m 128,-1,17
 336 1140 336 1140 313 1140 c 0,18,19
 229 1140 229 1140 229 1230 c 0,20,21
 229 1266 229 1266 246 1291.5 c 128,-1,22
 263 1317 263 1317 289 1317 c 0,23,24
 343 1323 343 1323 387 1271 c 1,25,26
 395 1218 395 1218 391 1193 c 0,27,16
 386 1160 386 1160 361 1150 c 128,-1,17
EndSplineSet
Validated: 37
Substitution2: "Single Substitution lookup 11 subtable" kasralow
Substitution2: "Single Substitution lookup 10 subtable" kasraisolated
EndChar

StartChar: shadda
Encoding: 1617 1617 203
Width: 1284
Flags: W
LayerCount: 2
Fore
SplineSet
0 1550 m 1,0,-1
 450 1550 l 1,1,-1
 450 1912 l 1,2,-1
 372 1904 l 1,3,4
 375 1463 375 1463 254 1776 c 1,5,-1
 195 1776 l 1,6,7
 195 1620 195 1620 78 1679 c 1,8,9
 137 1873 137 1873 0 1912 c 1,10,-1
 0 1550 l 1,0,-1
EndSplineSet
Validated: 41
Substitution2: "Single Substitution lookup 8 subtable" shaddalow
Substitution2: "Single Substitution lookup 7 subtable" shaddaisolated
EndChar

StartChar: sukun
Encoding: 1618 1618 204
Width: 646
Flags: W
LayerCount: 2
Fore
SplineSet
281 567 m 1,0,1
 582 642 582 642 281 717 c 1,2,-1
 192 642 l 1,3,-1
 281 567 l 1,0,1
505 526 m 1,5,-1
 502 216 l 1,6,-1
 -35 216 l 1,7,-1
 47 16 l 1,8,-1
 648 16 l 1,9,-1
 648 457 l 1,10,-1
 647 528 l 1,11,4
 563 620 563 620 505 526 c 1,5,-1
EndSplineSet
Validated: 41
Substitution2: "Single Substitution lookup 8 subtable" sukunlow
Substitution2: "Single Substitution lookup 7 subtable" sukunisolated
EndChar

StartChar: arabicindicdigitzero
Encoding: 1632 68912 205
Width: 994
Flags: W
LayerCount: 2
Fore
SplineSet
70 1086 m 1,1,2
 63 527 63 527 70 400 c 1,3,4
 130 -9 130 -9 536.5 4 c 128,-1,5
 943 17 943 17 946 417 c 2,6,-1
 947 931 l 1,7,8
 979 1367 979 1367 508 1386 c 1,9,0
 132 1368 132 1368 70 1086 c 1,1,2
660 1005 m 1,11,-1
 660 418 l 2,12,13
 657 241 657 241 516.5 237 c 128,-1,14
 376 233 376 233 366 403 c 1,15,-1
 363 992 l 1,16,17
 380 1151 380 1151 504 1148.5 c 128,-1,10
 628 1146 628 1146 660 1005 c 1,11,-1
EndSplineSet
Validated: 41
EndChar

StartChar: arabicindicdigitone
Encoding: 1633 68913 206
Width: 499
Flags: W
LayerCount: 2
Fore
SplineSet
127 1198 m 1,0,-1
 127 79 l 1,1,2
 273 -74 273 -74 396 88 c 1,3,-1
 396 1198 l 1,4,5
 247 1348 247 1348 127 1198 c 1,0,-1
EndSplineSet
Validated: 41
EndChar

StartChar: arabicindicdigittwo
Encoding: 1634 68914 207
Width: 1024
Flags: W
LayerCount: 2
Fore
SplineSet
150 1068 m 1,1,2
 102 858 102 858 305 905 c 1,3,4
 545 1149 545 1149 648.5 1005.5 c 128,-1,5
 752 862 752 862 589 716 c 1,6,7
 364 531 364 531 335 154 c 0,8,9
 323 28 323 28 416 10.5 c 128,-1,10
 509 -7 509 -7 565 130 c 1,11,12
 589 424 589 424 747 537.5 c 128,-1,13
 905 651 905 651 940 893 c 1,14,15
 834 1351 834 1351 446 1304 c 1,16,0
 245 1212 245 1212 150 1068 c 1,1,2
EndSplineSet
Validated: 41
EndChar

StartChar: arabicindicdigitthree
Encoding: 1635 68915 208
Width: 1429
Flags: W
LayerCount: 2
Fore
SplineSet
313 993 m 1,1,-1
 696 993 l 1,2,-1
 696 757 l 1,3,4
 311 804 311 804 199 493 c 1,5,6
 163 -4 163 -4 550.5 -9.5 c 128,-1,7
 938 -15 938 -15 961 272 c 1,8,-1
 961 981 l 1,9,-1
 1219 983 l 1,10,11
 1441 1117 1441 1117 1232 1244 c 1,12,-1
 312 1245 l 1,13,0
 105 1130 105 1130 313 993 c 1,1,-1
715 392 m 1,15,16
 714 238 714 238 584 218 c 1,17,18
 456 220 456 220 423 338 c 1,19,20
 395 495 395 495 544 545 c 1,21,14
 697 541 697 541 715 392 c 1,15,16
EndSplineSet
Validated: 41
EndChar

StartChar: arabicindicdigitfour
Encoding: 1636 68916 209
Width: 1384
Flags: W
LayerCount: 2
Fore
SplineSet
1050 1328 m 1,1,-1
 1050 1169 l 1,2,-1
 1050 959 l 1,3,4
 982 1058 982 1058 884 1104 c 1,5,6
 265 1239 265 1239 117 663 c 1,7,8
 101 439 101 439 187 232 c 128,-1,9
 273 25 273 25 550 14 c 1,10,11
 830 41 830 41 904 333 c 1,12,13
 926 693 926 693 658 760 c 1,14,15
 505 779 505 779 414 679 c 1,16,17
 422 804 422 804 555 867 c 1,18,19
 799 914 799 914 934 734 c 1,20,21
 1065 659 1065 659 1029 96 c 1,22,23
 1161 -90 1161 -90 1234 109 c 1,24,-1
 1234 1359 l 1,25,26
 1217 1436 1217 1436 1137 1430.5 c 128,-1,0
 1057 1425 1057 1425 1050 1328 c 1,1,-1
665 401 m 1,28,29
 688 293 688 293 595 246 c 1,30,31
 408 185 408 185 359 356 c 1,32,33
 365 505 365 505 500 556 c 1,34,27
 659 535 659 535 665 401 c 1,28,29
EndSplineSet
Validated: 41
EndChar

StartChar: arabicindicdigitfive
Encoding: 1637 68917 210
Width: 1478
Flags: W
LayerCount: 2
Fore
SplineSet
851 1312 m 1,1,2
 607 1031 607 1031 953 850 c 1,3,4
 646 787 646 787 647 345 c 1,5,6
 569 399 569 399 470 524 c 1,7,8
 231 863 231 863 568 1102 c 1,9,10
 535 1300 535 1300 362 1222 c 1,11,12
 67 981 67 981 167 717 c 1,13,14
 276 412 276 412 505 201 c 1,15,16
 616 115 616 115 714 42 c 1,17,18
 1138 -93 1138 -93 1113 225 c 1,19,20
 1002 495 1002 495 748 311 c 1,21,22
 893 655 893 655 1302 761 c 1,23,24
 1480 1002 1480 1002 1299 1319 c 1,25,26
 1184 1396 1184 1396 1055 1402.5 c 128,-1,0
 926 1409 926 1409 851 1312 c 1,1,2
1002 236 m 1,28,29
 1015 182 1015 182 1002 132 c 1,30,31
 891 82 891 82 812 151 c 1,32,33
 776 235 776 235 868 273 c 1,34,27
 955 273 955 273 1002 236 c 1,28,29
1196 1163 m 1,36,37
 1212 1096 1212 1096 1196 1034 c 1,38,39
 1058 932 1058 932 960 1058 c 1,40,41
 915 1162 915 1162 1029 1210 c 1,42,35
 1137 1208 1137 1208 1196 1163 c 1,36,37
EndSplineSet
Validated: 41
EndChar

StartChar: arabicindicdigitsix
Encoding: 1638 68918 211
Width: 1328
Flags: W
LayerCount: 2
Fore
SplineSet
461 1377 m 128,-1,1
 336 1342 336 1342 222 1254 c 1,2,3
 132 1132 132 1132 233 1020 c 1,4,5
 540 1211 540 1211 770 1069 c 1,6,7
 1012 841 1012 841 922 552 c 1,8,9
 754 923 754 923 406 799 c 1,10,11
 147 670 147 670 185 376 c 1,12,13
 211 -67 211 -67 801 6 c 1,14,15
 1233 124 1233 124 1205 748 c 1,16,17
 1169 1272 1169 1272 792 1353 c 1,18,0
 586 1412 586 1412 461 1377 c 128,-1,1
765 449 m 1,20,21
 773 287 773 287 629 241 c 1,22,23
 479 200 479 200 413 318 c 1,24,25
 367 519 367 519 549 602 c 1,26,19
 701 570 701 570 765 449 c 1,20,21
EndSplineSet
Validated: 41
EndChar

StartChar: arabicindicdigitseven
Encoding: 1639 68919 212
Width: 1307
Flags: W
LayerCount: 2
Fore
SplineSet
217 1319 m 1,0,1
 91 1182 91 1182 226 1098 c 1,2,3
 954 1160 954 1160 958 948 c 1,4,5
 922 813 922 813 737 836.5 c 128,-1,6
 552 860 552 860 322 732 c 1,7,8
 118 483 118 483 230 173 c 0,9,10
 289 15 289 15 596 3 c 1,11,-1
 1108 3 l 1,12,13
 1265 152 1265 152 1090 261 c 1,14,15
 410 157 410 157 428 463 c 1,16,17
 559 645 559 645 1008 603 c 1,18,19
 1226 704 1226 704 1197 992 c 1,20,21
 1145 1267 1145 1267 959 1319 c 1,22,23
 551 1355 551 1355 217 1319 c 1,0,1
EndSplineSet
Validated: 41
EndChar

StartChar: arabicindicdigiteight
Encoding: 1640 68920 213
Width: 1296
Flags: W
LayerCount: 2
Fore
SplineSet
125 1257 m 1,1,-1
 127 98 l 1,2,3
 210 -91 210 -91 327 86 c 1,4,-1
 326 578 l 1,5,-1
 396 667 l 1,6,7
 743 882 743 882 944 618 c 1,8,-1
 980 540 l 1,9,10
 752 762 752 762 551 574 c 1,11,12
 345 302 345 302 592 38 c 1,13,14
 945 -102 945 -102 1130 228 c 1,15,16
 1287 583 1287 583 1060 837 c 1,17,18
 699 1169 699 1169 334 907 c 1,19,-1
 334 1267 l 1,20,21
 295 1330 295 1330 233.5 1338.5 c 128,-1,0
 172 1347 172 1347 125 1257 c 1,1,-1
908 354 m 1,23,24
 904 278 904 278 864 214 c 1,25,26
 689 120 689 120 652 274 c 1,27,28
 629 416 629 416 777 454 c 1,29,22
 862 430 862 430 908 354 c 1,23,24
EndSplineSet
Validated: 41
EndChar

StartChar: arabicindicdigitnine
Encoding: 1641 68921 214
Width: 1204
Flags: W
LayerCount: 2
Fore
SplineSet
195 1040 m 1,1,2
 167 812 167 812 329 692 c 1,3,4
 533 601 533 601 702 724 c 1,5,-1
 783 767 l 1,6,7
 512 414 512 414 274 291 c 1,8,9
 92 151 92 151 291 51 c 1,10,-1
 1007 53 l 1,11,12
 1075 111 1075 111 1085 189 c 128,-1,13
 1095 267 1095 267 997 293 c 1,14,15
 813 299 813 299 639 296 c 1,16,17
 1108 607 1108 607 981 1052 c 1,18,19
 854 1371 854 1371 496 1334 c 1,20,0
 247 1277 247 1277 195 1040 c 1,1,2
673 1058 m 1,22,23
 703 882 703 882 553 844 c 1,24,25
 398 868 398 868 393 1018 c 1,26,27
 442 1129 442 1129 553 1150 c 1,28,21
 630 1119 630 1119 673 1058 c 1,22,23
EndSplineSet
Validated: 41
EndChar

StartChar: arabicpercentsign
Encoding: 1642 1642 215
Width: 946
Flags: W
LayerCount: 2
Fore
SplineSet
293 1024 m 256,0,1
 293 988 293 988 267 961 c 128,-1,2
 241 934 241 934 207 934 c 0,3,4
 170 934 170 934 143.5 960.5 c 128,-1,5
 117 987 117 987 117 1024 c 256,6,7
 117 1061 117 1061 143.5 1086.5 c 128,-1,8
 170 1112 170 1112 207 1112 c 0,9,10
 241 1112 241 1112 267 1086 c 128,-1,11
 293 1060 293 1060 293 1024 c 256,0,1
760 1192 m 1,12,-1
 250 -133 l 1,13,-1
 182 -133 l 1,14,-1
 688 1192 l 1,15,-1
 760 1192 l 1,12,-1
834 47 m 0,16,17
 834 12 834 12 809.5 -12.5 c 128,-1,18
 785 -37 785 -37 748 -37 c 0,19,20
 710 -37 710 -37 683.5 -12.5 c 128,-1,21
 657 12 657 12 657 47 c 0,22,23
 657 84 657 84 684 109.5 c 128,-1,24
 711 135 711 135 750 135 c 0,25,26
 785 135 785 135 809.5 109.5 c 128,-1,27
 834 84 834 84 834 47 c 0,16,17
EndSplineSet
Validated: 1
EndChar

StartChar: arabicfivepointedstar
Encoding: 1645 1645 216
Width: 815
Flags: W
LayerCount: 2
Fore
SplineSet
765 1190 m 1,0,-1
 547 1029 l 1,1,-1
 629 770 l 1,2,-1
 408 928 l 1,3,-1
 187 770 l 1,4,-1
 269 1029 l 1,5,-1
 51 1190 l 1,6,-1
 322 1190 l 1,7,-1
 408 1450 l 1,8,-1
 494 1190 l 1,9,-1
 765 1190 l 1,0,-1
EndSplineSet
Validated: 1
EndChar

StartChar: superscriptalef
Encoding: 1648 1648 217
Width: 239
Flags: W
LayerCount: 2
Fore
SplineSet
170 1180 m 0,0,1
 170 1127 170 1127 128 1030 c 1,2,-1
 106 1033 l 1,3,4
 118 1110 118 1110 118 1099 c 1,5,6
 118 1151 118 1151 111 1198 c 2,7,-1
 76 1431 l 2,8,9
 70 1471 70 1471 70 1492 c 0,10,11
 70 1545 70 1545 120 1618 c 1,12,13
 124 1577 124 1577 138 1466 c 2,14,-1
 163 1269 l 2,15,16
 170 1214 170 1214 170 1180 c 0,0,1
EndSplineSet
Validated: 33
EndChar

StartChar: alefwasla
Encoding: 1649 1649 218
Width: 402
Flags: W
LayerCount: 2
Fore
SplineSet
270 379 m 0,0,1
 270 288 270 288 217 129 c 1,2,-1
 197 135 l 1,3,4
 209 215 209 215 209 244 c 0,5,6
 209 319 209 319 197 410 c 2,7,-1
 146 798 l 2,8,9
 137 866 137 866 137 899 c 0,10,11
 137 978 137 978 203 1110 c 1,12,13
 205 948 205 948 217 856 c 2,14,-1
 258 528 l 2,15,16
 270 432 270 432 270 379 c 0,0,1
402 1320 m 0,17,18
 402 1269 402 1269 356 1226 c 0,19,20
 306 1180 306 1180 236 1180 c 2,21,-1
 75 1180 l 2,22,23
 45 1180 45 1180 45 1137 c 0,24,25
 45 1132 45 1132 46.5 1119.5 c 128,-1,26
 48 1107 48 1107 47 1102 c 1,27,28
 0 1149 0 1149 0 1199 c 0,29,30
 0 1263 0 1263 74 1263 c 2,31,-1
 97 1263 l 1,32,33
 211 1417 211 1417 323 1417 c 0,34,35
 402 1417 402 1417 402 1320 c 0,17,18
315 1321 m 0,36,37
 315 1358 315 1358 284 1358 c 0,38,39
 231 1358 231 1358 149 1263 c 1,40,-1
 228 1263 l 2,41,42
 315 1263 315 1263 315 1321 c 0,36,37
EndSplineSet
Validated: 1
Substitution2: "'fina' Terminal Forms in Arabic lookup 3 subtable" alefwaslafinal
Substitution2: "'isol' Isolated Forms in Arabic lookup 0 subtable" alefwaslaisolated
EndChar

StartChar: highhamza
Encoding: 1652 1652 219
Width: 569
Flags: W
LayerCount: 2
Fore
SplineSet
349 1958 m 1,0,1
 322 1945 322 1945 271 1905 c 1,2,-1
 233 1863 l 2,3,4
 216 1843 216 1843 216 1836 c 0,5,6
 216 1821 216 1821 235 1805 c 2,7,-1
 302 1747 l 2,8,9
 331 1722 331 1722 331 1690 c 0,10,11
 331 1657 331 1657 309 1637 c 2,12,-1
 204 1544 l 2,13,14
 157 1503 157 1503 76 1503 c 0,15,16
 39 1503 39 1503 16 1514 c 1,17,18
 52 1520 52 1520 86 1555 c 2,19,-1
 124 1595 l 2,20,21
 152 1624 152 1624 152 1640 c 0,22,23
 152 1650 152 1650 125 1674 c 2,24,-1
 71 1723 l 2,25,26
 35 1756 35 1756 35 1786 c 0,27,28
 35 1817 35 1817 73 1851 c 2,29,-1
 162 1928 l 2,30,31
 201 1962 201 1962 292 1962 c 0,32,33
 316 1962 316 1962 349 1958 c 1,0,1
EndSplineSet
Validated: 1
EndChar

StartChar: peh
Encoding: 1662 1662 220
Width: 1399
Flags: W
LayerCount: 2
Fore
SplineSet
1315 471 m 0,0,1
 1315 290 1315 290 1153 215 c 0,2,3
 875 86 875 86 539 86 c 0,4,5
 323 86 323 86 204.5 148 c 128,-1,6
 86 210 86 210 86 324 c 0,7,8
 86 403 86 403 182 553 c 1,9,-1
 207 545 l 1,10,11
 154 460 154 460 154 412 c 0,12,13
 154 324 154 324 262.5 274.5 c 128,-1,14
 371 225 371 225 563 225 c 0,15,16
 822 225 822 225 1067 301 c 0,17,18
 1260 361 1260 361 1260 410 c 0,19,20
 1260 424 1260 424 1253 434 c 2,21,-1
 1210 510 l 2,22,23
 1202 524 1202 524 1202 547 c 0,24,25
 1202 566 1202 566 1217 600 c 2,26,-1
 1247 668 l 1,27,28
 1315 540 1315 540 1315 471 c 0,0,1
911 -91 m 1,29,-1
 849 -202 l 1,30,-1
 739 -134 l 1,31,-1
 684 -226 l 1,32,-1
 579 -159 l 1,33,-1
 641 -50 l 1,34,-1
 747 -116 l 1,35,-1
 802 -17 l 1,36,-1
 911 -91 l 1,29,-1
874 -290 m 1,37,-1
 813 -404 l 1,38,-1
 710 -337 l 1,39,-1
 772 -226 l 1,40,-1
 874 -290 l 1,37,-1
EndSplineSet
Validated: 1
Substitution2: "'fina' Terminal Forms in Arabic lookup 3 subtable" pehfinal
Substitution2: "'medi' Medial Forms in Arabic lookup 2 subtable" pehmedial
Substitution2: "'init' Initial Forms in Arabic lookup 1 subtable" pehinitial
Substitution2: "'isol' Isolated Forms in Arabic lookup 0 subtable" pehisolated
EndChar

StartChar: tcheh
Encoding: 1670 1670 221
Width: 1098
Flags: W
LayerCount: 2
Fore
SplineSet
1036 -510 m 1,0,-1
 700 -633 l 1,1,-1
 578 -633 l 2,2,3
 324 -633 324 -633 182.5 -517.5 c 128,-1,4
 41 -402 41 -402 41 -195 c 0,5,6
 41 159 41 159 416 385 c 1,7,8
 297 410 297 410 233 410 c 0,9,10
 175 410 175 410 102 391 c 1,11,-1
 123 492 l 1,12,13
 222 545 222 545 299 545 c 0,14,15
 338 545 338 545 455 523.5 c 128,-1,16
 572 502 572 502 717 502 c 0,17,18
 803 502 803 502 885 508 c 1,19,-1
 834 406 l 1,20,21
 500 379 500 379 295 228 c 0,22,23
 98 83 98 83 98 -117 c 0,24,25
 98 -304 98 -304 260.5 -407 c 128,-1,26
 423 -510 423 -510 717 -510 c 0,27,28
 809 -510 809 -510 1030 -489 c 1,29,-1
 1036 -510 l 1,0,-1
668 2 m 1,30,-1
 606 -109 l 1,31,-1
 496 -41 l 1,32,-1
 441 -133 l 1,33,-1
 336 -66 l 1,34,-1
 398 43 l 1,35,-1
 504 -23 l 1,36,-1
 559 76 l 1,37,-1
 668 2 l 1,30,-1
631 -197 m 1,38,-1
 570 -311 l 1,39,-1
 467 -244 l 1,40,-1
 529 -133 l 1,41,-1
 631 -197 l 1,38,-1
EndSplineSet
Validated: 1
Substitution2: "'fina' Terminal Forms in Arabic lookup 3 subtable" tchehfinal
Substitution2: "'medi' Medial Forms in Arabic lookup 2 subtable" tchehmedial
Substitution2: "'init' Initial Forms in Arabic lookup 1 subtable" tchehinitial
Substitution2: "'isol' Isolated Forms in Arabic lookup 0 subtable" tchehisolated
EndChar

StartChar: jeh
Encoding: 1688 1688 222
Width: 680
Flags: W
LayerCount: 2
Fore
SplineSet
608 203 m 0,0,1
 608 11 608 11 493.5 -139 c 128,-1,2
 379 -289 379 -289 233 -289 c 0,3,4
 150 -289 150 -289 12 -227 c 1,5,-1
 29 -209 l 1,6,7
 94 -225 94 -225 135 -225 c 0,8,9
 224 -225 224 -225 301 -176 c 0,10,11
 410 -106 410 -106 483.5 -19 c 128,-1,12
 557 68 557 68 557 129 c 0,13,14
 557 170 557 170 515 252 c 128,-1,15
 473 334 473 334 473 360 c 0,16,17
 473 379 473 379 489 410 c 2,18,-1
 528 485 l 1,19,20
 608 371 608 371 608 203 c 0,0,1
510 962 m 1,21,-1
 448 851 l 1,22,-1
 346 915 l 1,23,-1
 407 1029 l 1,24,-1
 510 962 l 1,21,-1
641 784 m 1,25,-1
 579 675 l 1,26,-1
 473 741 l 1,27,-1
 418 642 l 1,28,-1
 309 716 l 1,29,-1
 371 827 l 1,30,-1
 481 759 l 1,31,-1
 536 851 l 1,32,-1
 641 784 l 1,25,-1
EndSplineSet
Validated: 1
Substitution2: "'fina' Terminal Forms in Arabic lookup 3 subtable" jehfinal
Substitution2: "'isol' Isolated Forms in Arabic lookup 0 subtable" jehisolated
EndChar

StartChar: veh
Encoding: 1700 1700 223
Width: 1511
Flags: W
LayerCount: 2
Fore
SplineSet
1425 520 m 0,0,1
 1425 410 1425 410 1372.5 354.5 c 128,-1,2
 1320 299 1320 299 1153 233 c 0,3,4
 837 109 837 109 526 109 c 0,5,6
 96 109 96 109 96 360 c 0,7,8
 96 459 96 459 182 608 c 1,9,-1
 207 600 l 1,10,11
 147 510 147 510 147 436 c 0,12,13
 147 348 147 348 253 290.5 c 128,-1,14
 359 233 359 233 522 233 c 0,15,16
 876 233 876 233 1239 393 c 0,17,18
 1393 461 1393 461 1393 504 c 0,19,20
 1393 540 1393 540 1352 600 c 1,21,22
 1308 538 1308 538 1294 524 c 0,23,24
 1258 489 1258 489 1210 489 c 0,25,26
 1160 489 1160 489 1126 523.5 c 128,-1,27
 1092 558 1092 558 1092 608 c 0,28,29
 1092 660 1092 660 1149 766 c 0,30,31
 1209 877 1209 877 1264 877 c 0,32,33
 1317 877 1317 877 1368 777 c 0,34,35
 1425 666 1425 666 1425 520 c 0,0,1
1272 680 m 0,36,37
 1272 694 1272 694 1250.5 709.5 c 128,-1,38
 1229 725 1229 725 1202 725 c 0,39,40
 1159 725 1159 725 1159 686 c 0,41,42
 1159 673 1159 673 1177.5 655 c 128,-1,43
 1196 637 1196 637 1217 637 c 0,44,45
 1272 637 1272 637 1272 680 c 0,36,37
1147 1253 m 1,46,-1
 1082 1149 l 1,47,-1
 983 1212 l 1,48,-1
 1045 1323 l 1,49,-1
 1147 1253 l 1,46,-1
1272 1075 m 1,50,-1
 1211 964 l 1,51,-1
 1104 1038 l 1,52,-1
 1043 942 l 1,53,-1
 944 1013 l 1,54,-1
 1006 1120 l 1,55,-1
 1110 1050 l 1,56,-1
 1168 1145 l 1,57,-1
 1272 1075 l 1,50,-1
EndSplineSet
Validated: 1
Substitution2: "'fina' Terminal Forms in Arabic lookup 3 subtable" vehfinal
Substitution2: "'medi' Medial Forms in Arabic lookup 2 subtable" vehmedial
Substitution2: "'init' Initial Forms in Arabic lookup 1 subtable" vehinitial
Substitution2: "'isol' Isolated Forms in Arabic lookup 0 subtable" vehisolated
EndChar

StartChar: keheh
Encoding: 1705 1705 224
Width: 1702
Flags: W
LayerCount: 2
Fore
SplineSet
1706 1245 m 1,0,-1
 1651 1122 l 1,1,2
 1311 1010 1311 1010 1094 922 c 0,3,4
 846 822 846 822 846 784 c 0,5,6
 846 766 846 766 983 694 c 0,7,8
 1217 571 1217 571 1217 348 c 0,9,10
 1217 280 1217 280 1189 237 c 0,11,12
 1168 205 1168 205 1110 163 c 0,13,14
 1010 89 1010 89 799 41 c 0,15,16
 593 -6 593 -6 387 -6 c 0,17,18
 40 -6 40 -6 40 243 c 0,19,20
 40 329 40 329 90 459 c 1,21,-1
 111 453 l 1,22,23
 90 396 90 396 90 325 c 0,24,25
 90 245 90 245 186 192 c 128,-1,26
 282 139 282 139 430 139 c 0,27,28
 726 139 726 139 973 228 c 0,29,30
 1180 303 1180 303 1180 354 c 0,31,32
 1180 401 1180 401 1092 484 c 0,33,34
 1009 560 1009 560 932 596 c 0,35,36
 846 636 846 636 827.5 657.5 c 128,-1,37
 809 679 809 679 809 741 c 0,38,39
 809 818 809 818 828 852 c 0,40,41
 845 883 845 883 1000 965 c 0,42,43
 1248 1096 1248 1096 1706 1245 c 1,0,-1
EndSplineSet
Validated: 1
Substitution2: "'fina' Terminal Forms in Arabic lookup 3 subtable" kehehfinal
Substitution2: "'medi' Medial Forms in Arabic lookup 2 subtable" kehehmedial
Substitution2: "'init' Initial Forms in Arabic lookup 1 subtable" kehehinitial
Substitution2: "'isol' Isolated Forms in Arabic lookup 0 subtable" kehehisolated
EndChar

StartChar: gaf
Encoding: 1711 1711 225
Width: 1702
Flags: W
LayerCount: 2
Fore
SplineSet
1706 1245 m 1,0,-1
 1651 1122 l 1,1,2
 1311 1010 1311 1010 1094 922 c 0,3,4
 846 822 846 822 846 784 c 0,5,6
 846 766 846 766 983 694 c 0,7,8
 1217 571 1217 571 1217 348 c 0,9,10
 1217 280 1217 280 1189 237 c 0,11,12
 1168 205 1168 205 1110 163 c 0,13,14
 1010 89 1010 89 799 41 c 0,15,16
 593 -6 593 -6 387 -6 c 0,17,18
 40 -6 40 -6 40 243 c 0,19,20
 40 329 40 329 90 459 c 1,21,-1
 111 453 l 1,22,23
 90 396 90 396 90 325 c 0,24,25
 90 245 90 245 186 192 c 128,-1,26
 282 139 282 139 430 139 c 0,27,28
 726 139 726 139 973 228 c 0,29,30
 1180 303 1180 303 1180 354 c 0,31,32
 1180 401 1180 401 1092 484 c 0,33,34
 1009 560 1009 560 932 596 c 0,35,36
 846 636 846 636 827.5 657.5 c 128,-1,37
 809 679 809 679 809 741 c 0,38,39
 809 818 809 818 828 852 c 0,40,41
 845 883 845 883 1000 965 c 0,42,43
 1248 1096 1248 1096 1706 1245 c 1,0,-1
1677 1502 m 1,44,-1
 1636 1390 l 1,45,46
 1428 1318 1428 1318 1118 1175 c 0,47,48
 856 1054 856 1054 844 1054 c 0,49,50
 825 1054 825 1054 825 1073 c 0,51,52
 825 1126 825 1126 1124 1275 c 0,53,54
 1416 1420 1416 1420 1677 1502 c 1,44,-1
EndSplineSet
Validated: 1
Substitution2: "'fina' Terminal Forms in Arabic lookup 3 subtable" gaffinal
Substitution2: "'medi' Medial Forms in Arabic lookup 2 subtable" gafmedial
Substitution2: "'init' Initial Forms in Arabic lookup 1 subtable" gafinitial
Substitution2: "'isol' Isolated Forms in Arabic lookup 0 subtable" gafisolated
EndChar

StartChar: farsiyeh
Encoding: 1740 1740 226
Width: 975
Flags: W
LayerCount: 2
Fore
SplineSet
678 -159 m 1,0,-1
 934 -159 l 1,1,2
 970 -544 970 -544 680 -358 c 1,3,-1
 678 -159 l 1,0,-1
813 906 m 1,4,-1
 813 216 l 1,5,6
 373 224 373 224 -85 217 c 1,7,8
 -31 123 -31 123 124 -1 c 1,9,-1
 1094 0 l 1,10,11
 1095 445 1095 445 1096 906 c 1,12,13
 926 1147 926 1147 813 906 c 1,4,-1
EndSplineSet
Validated: 41
Substitution2: "'fina' Terminal Forms in Arabic lookup 3 subtable" farsiyehfinal
Substitution2: "'isol' Isolated Forms in Arabic lookup 0 subtable" farsiyehisolated
EndChar

StartChar: arabicae
Encoding: 1749 1749 227
Width: 528
Flags: W
LayerCount: 2
Fore
SplineSet
459 360 m 0,0,1
 459 252 459 252 395.5 180.5 c 128,-1,2
 332 109 332 109 238 109 c 0,3,4
 170 109 170 109 127 157.5 c 128,-1,5
 84 206 84 206 84 281 c 0,6,7
 84 361 84 361 139.5 474.5 c 128,-1,8
 195 588 195 588 217 619.5 c 128,-1,9
 239 651 239 651 264 651 c 0,10,11
 322 651 322 651 385 571 c 0,12,13
 459 477 459 477 459 360 c 0,0,1
397 336 m 0,14,15
 397 361 397 361 350 399 c 0,16,17
 276 459 276 459 219 459 c 0,18,19
 184 459 184 459 161.5 421.5 c 128,-1,20
 139 384 139 384 139 332 c 0,21,22
 139 264 139 264 246 264 c 0,23,24
 309 264 309 264 353 284.5 c 128,-1,25
 397 305 397 305 397 336 c 0,14,15
EndSplineSet
Validated: 1
EndChar

StartChar: smallhighmadda
Encoding: 1764 1764 228
Width: 915
Flags: W
LayerCount: 2
Fore
SplineSet
895 2080 m 1,0,-1
 695 1880 l 1,1,-1
 220 1905 l 1,2,-1
 195 1830 l 1,3,4
 70 1705 70 1705 -5 1580 c 1,5,6
 395 1730 395 1730 745 1705 c 1,7,8
 870 1905 870 1905 920 2080 c 1,9,-1
 895 2080 l 1,0,-1
EndSplineSet
Validated: 41
EndChar

StartChar: extendedarabicindicdigitzero
Encoding: 1776 1776 229
Width: 946
Flags: W
LayerCount: 2
Fore
SplineSet
560 100 m 1,1,-1
 685 25 l 1,2,3
 1185 -25 1185 -25 1285 475 c 1,4,5
 1260 825 1260 825 1010 1025 c 1,6,-1
 835 1025 l 1,7,0
 360 625 360 625 560 100 c 1,1,-1
885 275 m 1,9,10
 485 475 485 475 885 775 c 1,11,8
 1235 500 1235 500 885 275 c 1,9,10
EndSplineSet
Validated: 41
EndChar

StartChar: extendedarabicindicdigitone
Encoding: 1777 1777 230
Width: 512
Flags: W
LayerCount: 2
Fore
SplineSet
187 1175 m 1,1,-1
 187 0 l 1,2,3
 287 50 287 50 362 225 c 1,4,-1
 362 850 l 1,5,6
 387 1200 387 1200 337 1425 c 1,7,0
 237 1300 237 1300 187 1175 c 1,1,-1
EndSplineSet
Validated: 41
EndChar

StartChar: extendedarabicindicdigittwo
Encoding: 1778 1778 231
Width: 985
Flags: W
LayerCount: 2
Fore
SplineSet
340 776 m 1,1,2
 390 851 390 851 440 876 c 1,3,4
 365 1026 365 1026 440 1126 c 1,5,6
 590 1126 590 1126 665 1001 c 1,7,-1
 515 651 l 1,8,9
 290 351 290 351 315 1 c 1,10,11
 390 1 390 1 415 26 c 1,12,13
 1240 1526 1240 1526 440 1476 c 1,14,0
 -210 901 -210 901 340 776 c 1,1,2
EndSplineSet
Validated: 41
EndChar

StartChar: extendedarabicindicdigitthree
Encoding: 1779 1779 232
Width: 1902
Flags: W
LayerCount: 2
Fore
SplineSet
1120 1475 m 1,0,-1
 945 1475 l 1,1,2
 545 1400 545 1400 320 1425 c 1,3,-1
 220 1250 l 1,4,-1
 245 1125 l 1,5,6
 845 1000 845 1000 1120 625 c 1,7,-1
 970 650 l 1,8,9
 745 825 745 825 545 875 c 1,10,11
 70 525 70 525 370 125 c 1,12,13
 920 -200 920 -200 1245 350 c 1,14,15
 1620 325 1620 325 1795 575 c 1,16,17
 1745 650 1745 650 1345 525 c 1,18,19
 1370 1000 1370 1000 995 1175 c 1,20,21
 1895 1400 1895 1400 1220 1500 c 1,22,-1
 1120 1475 l 1,0,-1
1020 450 m 1,24,25
 270 75 270 75 570 750 c 1,26,23
 795 525 795 525 1020 450 c 1,24,25
EndSplineSet
Validated: 41
EndChar

StartChar: extendedarabicindicdigitfour
Encoding: 1780 1780 233
Width: 1351
Flags: W
LayerCount: 2
Fore
SplineSet
991 1250 m 1,0,-1
 966 1100 l 1,1,2
 666 1250 666 1250 416 1075 c 1,3,4
 -9 375 -9 375 466 25 c 1,5,6
 816 25 816 25 816 425 c 1,7,8
 766 675 766 675 591 825 c 1,9,10
 1066 650 1066 650 1016 0 c 1,11,-1
 1191 0 l 1,12,-1
 1191 1400 l 1,13,-1
 1216 1550 l 1,14,-1
 991 1550 l 1,15,-1
 991 1250 l 1,0,-1
391 425 m 1,17,-1
 516 550 l 1,18,16
 641 225 641 225 391 425 c 1,17,-1
EndSplineSet
Validated: 41
EndChar

StartChar: extendedarabicindicdigitfive
Encoding: 1781 1781 234
Width: 1784
Flags: W
LayerCount: 2
Fore
SplineSet
1332 1225 m 1,1,2
 1107 1000 1107 1000 982 750 c 1,3,-1
 907 800 l 1,4,5
 582 950 582 950 382 1175 c 1,6,-1
 432 1250 l 1,7,-1
 607 1600 l 1,8,-1
 407 1575 l 1,9,10
 -118 850 -118 850 807 500 c 1,11,12
 507 -225 507 -225 1207 125 c 1,13,14
 1282 425 1282 425 1107 600 c 1,15,16
 1557 1050 1557 1050 1657 1525 c 1,17,18
 1507 1750 1507 1750 1257 1725 c 1,19,0
 907 1475 907 1475 1332 1225 c 1,1,2
982 150 m 1,21,22
 832 275 832 275 982 400 c 1,23,20
 1107 275 1107 275 982 150 c 1,21,22
EndSplineSet
Validated: 41
EndChar

StartChar: extendedarabicindicdigitsix
Encoding: 1782 1782 235
Width: 1459
Flags: W
LayerCount: 2
Fore
SplineSet
884 1559 m 1,1,-1
 884 1209 l 1,2,3
 234 559 234 559 684 9 c 1,4,5
 1184 -116 1184 -116 1084 1109 c 1,6,7
 1659 1859 1659 1859 1084 1434 c 1,8,-1
 1084 1859 l 1,9,-1
 384 1859 l 1,10,0
 -116 1559 -116 1559 884 1559 c 1,1,-1
716 364 m 1,12,-1
 716 514 l 1,13,14
 791 714 791 714 891 839 c 1,15,11
 1016 114 1016 114 716 364 c 1,12,-1
EndSplineSet
Validated: 41
EndChar

StartChar: extendedarabicindicdigitseven
Encoding: 1783 1783 236
Width: 1443
Flags: W
LayerCount: 2
Fore
SplineSet
858 969 m 1,1,-1
 458 544 l 1,2,-1
 433 494 l 1,3,-1
 233 244 l 1,4,-1
 233 -6 l 1,5,6
 1433 -81 1433 -81 1208 294 c 1,7,-1
 533 319 l 1,8,-1
 608 394 l 1,9,-1
 633 444 l 1,10,-1
 1308 1119 l 1,11,-1
 1333 1269 l 1,12,-1
 383 1269 l 1,13,0
 133 869 133 869 858 969 c 1,1,-1
EndSplineSet
Validated: 41
EndChar

StartChar: extendedarabicindicdigiteight
Encoding: 1784 1784 237
Width: 1397
Flags: W
LayerCount: 2
Fore
SplineSet
216 1321 m 1,0,-1
 216 -4 l 1,1,-1
 298 -29 l 1,2,-1
 360 71 l 1,3,4
 462 521 462 521 668 821 c 1,5,6
 791 871 791 871 812 721 c 1,7,8
 133 21 133 21 771 21 c 1,9,10
 976 346 976 346 1058 671 c 1,11,12
 1264 696 1264 696 1346 871 c 1,13,14
 1182 896 1182 896 1058 821 c 1,15,16
 750 1396 750 1396 401 771 c 1,17,18
 401 1346 401 1346 277 1371 c 1,19,-1
 216 1321 l 1,0,-1
684 288 m 1,21,22
 665 463 665 463 761 538 c 1,23,20
 800 363 800 363 684 288 c 1,21,22
EndSplineSet
Validated: 41
EndChar

StartChar: extendedarabicindicdigitnine
Encoding: 1785 1785 238
Width: 1355
Flags: W
LayerCount: 2
Fore
SplineSet
143 994 m 1,1,2
 393 794 393 794 693 869 c 1,3,-1
 693 494 l 2,4,5
 693 319 693 319 718 44 c 1,6,7
 1243 344 1243 344 1193 669 c 1,8,-1
 1143 619 l 1,9,10
 968 519 968 519 893 419 c 1,11,12
 843 619 843 619 868 769 c 1,13,-1
 868 1369 l 1,14,-1
 843 1519 l 1,15,16
 668 1619 668 1619 493 1594 c 1,17,0
 43 1419 43 1419 143 994 c 1,1,2
474 1050 m 1,19,20
 174 1225 174 1225 524 1375 c 1,21,18
 774 1150 774 1150 474 1050 c 1,19,20
EndSplineSet
Validated: 41
EndChar

StartChar: zeronojoin
Encoding: 8204 8204 239
Width: 45
Flags: W
LayerCount: 2
Fore
SplineSet
45 0 m 1,0,-1
 0 0 l 1,1,-1
 0 1628 l 1,2,-1
 45 1628 l 1,3,-1
 45 0 l 1,0,-1
EndSplineSet
Validated: 1
EndChar

StartChar: zerojoin
Encoding: 8205 8205 240
Width: 45
Flags: W
LayerCount: 2
Fore
SplineSet
160 1496 m 1,0,-1
 130 1466 l 1,1,-1
 45 1551 l 1,2,-1
 45 0 l 1,3,-1
 0 0 l 1,4,-1
 0 1550 l 1,5,-1
 -84 1466 l 1,6,-1
 -114 1496 l 1,7,-1
 -7 1603 l 1,8,-1
 -114 1710 l 1,9,-1
 -84 1740 l 1,10,-1
 23 1633 l 1,11,-1
 130 1740 l 1,12,-1
 160 1710 l 1,13,-1
 53 1603 l 1,14,-1
 160 1496 l 1,0,-1
EndSplineSet
Validated: 1
EndChar

StartChar: lefttoright
Encoding: 8206 8206 241
Width: 45
Flags: W
LayerCount: 2
Fore
SplineSet
303 1604 m 1,0,-1
 166 1466 l 1,1,-1
 135 1497 l 1,2,-1
 221 1583 l 1,3,-1
 45 1583 l 1,4,-1
 45 0 l 1,5,-1
 0 0 l 1,6,-1
 0 1628 l 1,7,-1
 217 1628 l 1,8,-1
 135 1710 l 1,9,-1
 166 1741 l 1,10,-1
 303 1604 l 1,0,-1
EndSplineSet
Validated: 1
EndChar

StartChar: righttoleft
Encoding: 8207 8207 242
Width: 45
Flags: W
LayerCount: 2
Fore
SplineSet
45 0 m 1,0,-1
 0 0 l 1,1,-1
 0 1583 l 1,2,-1
 -176 1583 l 1,3,-1
 -90 1497 l 1,4,-1
 -121 1466 l 1,5,-1
 -258 1604 l 1,6,-1
 -121 1741 l 1,7,-1
 -90 1710 l 1,8,-1
 -172 1628 l 1,9,-1
 45 1628 l 1,10,-1
 45 0 l 1,0,-1
EndSplineSet
Validated: 1
EndChar

StartChar: endash
Encoding: 8211 8211 243
Width: 1024
Flags: W
LayerCount: 2
Fore
SplineSet
1036 594 m 1,0,-1
 -12 594 l 1,1,-1
 -12 684 l 1,2,-1
 1036 684 l 1,3,-1
 1036 594 l 1,0,-1
EndSplineSet
Validated: 1
EndChar

StartChar: quotedash
Encoding: 8212 8212 244
Width: 2048
Flags: W
LayerCount: 2
Fore
SplineSet
2060 594 m 1,0,-1
 -12 594 l 1,1,-1
 -12 684 l 1,2,-1
 2060 684 l 1,3,-1
 2060 594 l 1,0,-1
EndSplineSet
Validated: 1
EndChar

StartChar: quoteleft
Encoding: 8216 8216 245
Width: 532
Flags: W
LayerCount: 2
Fore
SplineSet
393 1110 m 0,0,1
 393 1067 393 1067 360 1038.5 c 128,-1,2
 327 1010 327 1010 283 1010 c 0,3,4
 217 1010 217 1010 176 1063 c 0,5,6
 139 1112 139 1112 139 1180 c 0,7,8
 139 1311 139 1311 249 1409 c 0,9,10
 301 1456 301 1456 367 1481 c 1,11,-1
 381 1444 l 1,12,13
 223 1351 223 1351 223 1239 c 0,14,15
 223 1196 223 1196 252 1196 c 0,16,17
 260 1196 260 1196 276.5 1199 c 128,-1,18
 293 1202 293 1202 301 1202 c 0,19,20
 393 1202 393 1202 393 1110 c 0,0,1
EndSplineSet
Validated: 1
EndChar

StartChar: quoteright
Encoding: 8217 8217 246
Width: 532
Flags: W
LayerCount: 2
Fore
SplineSet
393 1311 m 0,0,1
 393 1211 393 1211 326 1127 c 0,2,3
 263 1048 263 1048 166 1010 c 1,4,-1
 152 1047 l 1,5,6
 309 1138 309 1138 309 1251 c 0,7,8
 309 1294 309 1294 281 1294 c 0,9,10
 272 1294 272 1294 255.5 1291 c 128,-1,11
 239 1288 239 1288 231 1288 c 0,12,13
 193 1288 193 1288 166 1315 c 128,-1,14
 139 1342 139 1342 139 1380 c 0,15,16
 139 1424 139 1424 172 1452.5 c 128,-1,17
 205 1481 205 1481 250 1481 c 0,18,19
 316 1481 316 1481 356 1427 c 0,20,21
 393 1379 393 1379 393 1311 c 0,0,1
EndSplineSet
Validated: 1
EndChar

StartChar: quotesinglbase
Encoding: 8218 8218 247
Width: 532
Flags: W
LayerCount: 2
Fore
SplineSet
393 127 m 0,0,1
 393 27 393 27 326 -57 c 0,2,3
 263 -136 263 -136 166 -174 c 1,4,-1
 152 -137 l 1,5,6
 309 -46 309 -46 309 68 c 0,7,8
 309 111 309 111 281 111 c 0,9,10
 273 111 273 111 256 107.5 c 128,-1,11
 239 104 239 104 231 104 c 0,12,13
 192 104 192 104 165.5 131 c 128,-1,14
 139 158 139 158 139 197 c 0,15,16
 139 241 139 241 172 269 c 128,-1,17
 205 297 205 297 250 297 c 0,18,19
 316 297 316 297 356 243 c 0,20,21
 393 195 393 195 393 127 c 0,0,1
EndSplineSet
Validated: 1
EndChar

StartChar: quotedblleft
Encoding: 8220 8220 248
Width: 981
Flags: W
LayerCount: 2
Fore
SplineSet
842 1110 m 0,0,1
 842 1066 842 1066 809 1038 c 128,-1,2
 776 1010 776 1010 731 1010 c 0,3,4
 664 1010 664 1010 624 1063 c 0,5,6
 588 1111 588 1111 588 1180 c 0,7,8
 588 1310 588 1310 697 1409 c 0,9,10
 748 1456 748 1456 815 1481 c 1,11,-1
 829 1444 l 1,12,13
 672 1352 672 1352 672 1239 c 0,14,15
 672 1196 672 1196 700 1196 c 0,16,17
 707 1197 707 1197 713 1198 c 2,18,-1
 725 1200 l 2,19,20
 737 1202 737 1202 750 1202 c 0,21,22
 842 1202 842 1202 842 1110 c 0,0,1
377 1110 m 0,23,24
 377 1066 377 1066 344 1038 c 128,-1,25
 311 1010 311 1010 266 1010 c 0,26,27
 199 1010 199 1010 159 1063 c 0,28,29
 123 1111 123 1111 123 1180 c 0,30,31
 123 1310 123 1310 232 1409 c 0,32,33
 283 1456 283 1456 350 1481 c 1,34,-1
 365 1444 l 1,35,36
 207 1352 207 1352 207 1239 c 0,37,38
 207 1196 207 1196 236 1196 c 0,39,40
 244 1196 244 1196 260.5 1199 c 128,-1,41
 277 1202 277 1202 285 1202 c 0,42,43
 377 1202 377 1202 377 1110 c 0,23,24
EndSplineSet
Validated: 1
EndChar

StartChar: quotedblright
Encoding: 8221 8221 249
Width: 981
Flags: W
LayerCount: 2
Fore
SplineSet
858 1311 m 0,0,1
 858 1211 858 1211 791 1127 c 0,2,3
 728 1048 728 1048 631 1010 c 1,4,-1
 616 1047 l 1,5,6
 774 1138 774 1138 774 1251 c 0,7,8
 774 1294 774 1294 745 1294 c 0,9,10
 736 1294 736 1294 719.5 1291 c 128,-1,11
 703 1288 703 1288 696 1288 c 0,12,13
 658 1288 658 1288 631 1315 c 128,-1,14
 604 1342 604 1342 604 1380 c 0,15,16
 604 1424 604 1424 637 1452.5 c 128,-1,17
 670 1481 670 1481 715 1481 c 0,18,19
 781 1481 781 1481 821 1427 c 0,20,21
 858 1379 858 1379 858 1311 c 0,0,1
393 1311 m 0,22,23
 393 1211 393 1211 326 1127 c 0,24,25
 263 1048 263 1048 166 1010 c 1,26,-1
 152 1047 l 1,27,28
 309 1138 309 1138 309 1251 c 0,29,30
 309 1294 309 1294 281 1294 c 0,31,32
 272 1294 272 1294 255.5 1291 c 128,-1,33
 239 1288 239 1288 231 1288 c 0,34,35
 193 1288 193 1288 166 1315 c 128,-1,36
 139 1342 139 1342 139 1380 c 0,37,38
 139 1424 139 1424 172 1452.5 c 128,-1,39
 205 1481 205 1481 250 1481 c 0,40,41
 316 1481 316 1481 356 1427 c 0,42,43
 393 1379 393 1379 393 1311 c 0,22,23
EndSplineSet
Validated: 1
EndChar

StartChar: quotedblbase
Encoding: 8222 8222 250
Width: 981
Flags: W
LayerCount: 2
Fore
SplineSet
858 127 m 0,0,1
 858 27 858 27 791 -57 c 0,2,3
 728 -136 728 -136 631 -174 c 1,4,-1
 616 -137 l 1,5,6
 774 -46 774 -46 774 68 c 0,7,8
 774 111 774 111 745 111 c 0,9,10
 737 111 737 111 720.5 107.5 c 128,-1,11
 704 104 704 104 696 104 c 0,12,13
 657 104 657 104 630.5 131 c 128,-1,14
 604 158 604 158 604 197 c 0,15,16
 604 241 604 241 637 269 c 128,-1,17
 670 297 670 297 715 297 c 0,18,19
 781 297 781 297 821 243 c 0,20,21
 858 195 858 195 858 127 c 0,0,1
393 127 m 0,22,23
 393 27 393 27 326 -57 c 0,24,25
 263 -136 263 -136 166 -174 c 1,26,-1
 152 -137 l 1,27,28
 309 -46 309 -46 309 68 c 0,29,30
 309 111 309 111 281 111 c 0,31,32
 273 111 273 111 256 107.5 c 128,-1,33
 239 104 239 104 231 104 c 0,34,35
 192 104 192 104 165.5 131 c 128,-1,36
 139 158 139 158 139 197 c 0,37,38
 139 241 139 241 172 269 c 128,-1,39
 205 297 205 297 250 297 c 0,40,41
 316 297 316 297 356 243 c 0,42,43
 393 195 393 195 393 127 c 0,22,23
EndSplineSet
Validated: 1
EndChar

StartChar: dagger
Encoding: 8224 8224 251
Width: 1024
Flags: W
LayerCount: 2
Fore
SplineSet
971 887 m 2,0,1
 971 836 971 836 942 840 c 2,2,-1
 547 893 l 1,3,-1
 612 -270 l 2,4,5
 614 -311 614 -311 586 -311 c 2,6,-1
 449 -311 l 2,7,8
 412 -311 412 -311 414 -268 c 2,9,-1
 479 893 l 1,10,-1
 94 840 l 2,11,12
 55 835 55 835 55 883 c 2,13,-1
 55 983 l 2,14,15
 55 1026 55 1026 84 1022 c 2,16,-1
 479 965 l 1,17,-1
 422 1421 l 2,18,19
 417 1460 417 1460 455 1460 c 2,20,-1
 547 1460 l 2,21,22
 597 1460 597 1460 602 1448 c 0,23,24
 604 1441 604 1441 602 1423 c 2,25,-1
 547 965 l 1,26,-1
 932 1020 l 2,27,28
 971 1026 971 1026 971 971 c 2,29,-1
 971 887 l 2,0,1
EndSplineSet
Validated: 1
EndChar

StartChar: daggerdbl
Encoding: 8225 8225 252
Width: 1067
Flags: W
LayerCount: 2
Fore
SplineSet
991 117 m 2,0,1
 991 63 991 63 954 68 c 2,2,-1
 571 121 l 1,3,-1
 623 -258 l 2,4,5
 629 -305 629 -305 584 -305 c 2,6,-1
 485 -305 l 2,7,8
 439 -305 439 -305 446 -256 c 2,9,-1
 498 121 l 1,10,-1
 117 68 l 2,11,12
 76 62 76 62 76 104 c 2,13,-1
 76 205 l 2,14,15
 76 252 76 252 123 246 c 2,16,-1
 498 195 l 1,17,-1
 459 578 l 1,18,-1
 498 960 l 1,19,-1
 123 909 l 2,20,21
 76 903 76 903 76 950 c 2,22,-1
 76 1051 l 2,23,24
 76 1093 76 1093 117 1087 c 2,25,-1
 498 1034 l 1,26,-1
 446 1411 l 2,27,28
 445 1420 445 1420 445 1428 c 0,29,30
 445 1460 445 1460 485 1460 c 2,31,-1
 584 1460 l 2,32,33
 629 1460 629 1460 623 1413 c 2,34,-1
 571 1034 l 1,35,-1
 954 1087 l 2,36,37
 991 1092 991 1092 991 1038 c 2,38,-1
 991 950 l 2,39,40
 991 902 991 902 940 909 c 2,41,-1
 571 960 l 1,42,-1
 610 578 l 1,43,-1
 571 195 l 1,44,-1
 940 246 l 2,45,46
 991 253 991 253 991 205 c 2,47,-1
 991 117 l 2,0,1
EndSplineSet
Validated: 33
EndChar

StartChar: bullet
Encoding: 8226 8226 253
Width: 725
Flags: W
LayerCount: 2
Fore
SplineSet
614 768 m 0,0,1
 614 623 614 623 491 550 c 0,2,3
 434 516 434 516 365 516 c 0,4,5
 259 516 259 516 186 589 c 128,-1,6
 113 662 113 662 113 768 c 256,7,8
 113 874 113 874 186.5 946 c 128,-1,9
 260 1018 260 1018 365 1018 c 0,10,11
 535 1018 535 1018 596 866 c 0,12,13
 614 819 614 819 614 768 c 0,0,1
EndSplineSet
Validated: 1
EndChar

StartChar: ellipsis
Encoding: 8230 8230 254
Width: 2048
Flags: W
LayerCount: 2
Fore
SplineSet
1810 201 m 0,0,1
 1810 104 1810 104 1706 104 c 0,2,3
 1662 104 1662 104 1632 131 c 128,-1,4
 1602 158 1602 158 1602 201 c 0,5,6
 1602 297 1602 297 1706 297 c 256,7,8
 1810 297 1810 297 1810 201 c 0,0,1
1128 201 m 0,9,10
 1128 104 1128 104 1024 104 c 0,11,12
 980 104 980 104 950 131 c 128,-1,13
 920 158 920 158 920 201 c 0,14,15
 920 297 920 297 1024 297 c 256,16,17
 1128 297 1128 297 1128 201 c 0,9,10
446 201 m 0,18,19
 446 104 446 104 342 104 c 0,20,21
 298 104 298 104 268 131 c 128,-1,22
 238 158 238 158 238 201 c 0,23,24
 238 297 238 297 342 297 c 256,25,26
 446 297 446 297 446 201 c 0,18,19
EndSplineSet
Validated: 1
EndChar

StartChar: perthousand
Encoding: 8240 8240 255
Width: 2048
Flags: W
LayerCount: 2
Fore
SplineSet
2013 461 m 0,0,1
 2013 258 2013 258 1882 161 c 0,2,3
 1820 115 1820 115 1749 115 c 0,4,5
 1597 115 1597 115 1522 286 c 0,6,7
 1487 366 1487 366 1487 461 c 0,8,9
 1487 662 1487 662 1618 761 c 0,10,11
 1678 807 1678 807 1749 807 c 0,12,13
 1901 807 1901 807 1978 636 c 0,14,15
 2013 556 2013 556 2013 461 c 0,0,1
1386 461 m 0,16,17
 1386 258 1386 258 1255 161 c 0,18,19
 1194 115 1194 115 1122 115 c 0,20,21
 970 115 970 115 895 286 c 0,22,23
 860 366 860 366 860 461 c 0,24,25
 860 662 860 662 991 761 c 0,26,27
 1051 807 1051 807 1122 807 c 0,28,29
 1276 807 1276 807 1351 635 c 0,30,31
 1386 555 1386 555 1386 461 c 0,16,17
1249 1468 m 1,32,-1
 256 74 l 1,33,-1
 170 74 l 1,34,-1
 1165 1468 l 1,35,-1
 1249 1468 l 1,32,-1
559 1087 m 0,36,37
 559 887 559 887 427 787 c 0,38,39
 366 741 366 741 295 741 c 0,40,41
 142 741 142 741 68 914 c 0,42,43
 33 993 33 993 33 1087 c 0,44,45
 33 1288 33 1288 162 1388 c 0,46,47
 222 1434 222 1434 295 1434 c 0,48,49
 447 1434 447 1434 524 1263 c 0,50,51
 559 1183 559 1183 559 1087 c 0,36,37
1898 461 m 0,52,53
 1898 776 1898 776 1749 776 c 0,54,55
 1602 776 1602 776 1602 461 c 0,56,57
 1602 145 1602 145 1749 145 c 0,58,59
 1898 145 1898 145 1898 461 c 0,52,53
1272 461 m 0,60,61
 1272 776 1272 776 1122 776 c 0,62,63
 975 776 975 776 975 461 c 0,64,65
 975 145 975 145 1122 145 c 0,66,67
 1272 145 1272 145 1272 461 c 0,60,61
444 1087 m 0,68,69
 444 1403 444 1403 295 1403 c 0,70,71
 147 1403 147 1403 147 1087 c 0,72,73
 147 772 147 772 295 772 c 0,74,75
 444 772 444 772 444 1087 c 0,68,69
EndSplineSet
Validated: 1
EndChar

StartChar: guilsinglleft
Encoding: 8249 8249 256
Width: 469
Flags: W
LayerCount: 2
Fore
SplineSet
408 201 m 1,0,-1
 371 201 l 1,1,-1
 70 578 l 1,2,-1
 371 954 l 1,3,-1
 408 954 l 1,4,-1
 213 578 l 1,5,-1
 408 201 l 1,0,-1
EndSplineSet
Validated: 1
EndChar

StartChar: guilsinglright
Encoding: 8250 8250 257
Width: 469
Flags: W
LayerCount: 2
Fore
SplineSet
399 578 m 1,0,-1
 98 201 l 1,1,-1
 61 201 l 1,2,-1
 256 578 l 1,3,-1
 61 954 l 1,4,-1
 98 954 l 1,5,-1
 399 578 l 1,0,-1
EndSplineSet
Validated: 1
EndChar

StartChar: trademark
Encoding: 8482 8482 258
Width: 2005
Flags: W
LayerCount: 2
Fore
SplineSet
1974 678 m 1,0,-1
 1575 678 l 1,1,-1
 1575 713 l 1,2,3
 1653 715 1653 715 1674.5 739.5 c 128,-1,4
 1696 764 1696 764 1696 844 c 2,5,-1
 1692 1335 l 1,6,-1
 1389 678 l 1,7,-1
 1356 678 l 1,8,-1
 1047 1327 l 1,9,-1
 1047 844 l 2,10,11
 1047 770 1047 770 1059 747 c 0,12,13
 1078 713 1078 713 1143 713 c 2,14,-1
 1180 713 l 1,15,-1
 1180 678 l 1,16,-1
 870 678 l 1,17,-1
 870 713 l 1,18,19
 962 713 962 713 977 758 c 0,20,21
 985 785 985 785 985 844 c 2,22,-1
 985 1311 l 2,23,24
 985 1425 985 1425 945 1440 c 0,25,26
 921 1448 921 1448 870 1448 c 1,27,-1
 870 1485 l 1,28,-1
 1159 1485 l 1,29,-1
 1432 911 l 1,30,-1
 1696 1485 l 1,31,-1
 1974 1485 l 1,32,-1
 1974 1448 l 1,33,34
 1930 1446 1930 1446 1913 1441 c 0,35,36
 1881 1431 1881 1431 1873.5 1403 c 128,-1,37
 1866 1375 1866 1375 1866 1311 c 2,38,-1
 1866 844 l 2,39,40
 1866 739 1866 739 1902 725 c 0,41,42
 1924 716 1924 716 1974 713 c 1,43,-1
 1974 678 l 1,0,-1
803 1284 m 1,44,-1
 768 1284 l 1,45,46
 753 1386 753 1386 679 1412 c 0,47,48
 639 1425 639 1425 575 1425 c 2,49,-1
 504 1425 l 1,50,-1
 504 844 l 2,51,52
 504 762 504 762 522 740 c 128,-1,53
 540 718 540 718 606 713 c 1,54,-1
 606 678 l 1,55,-1
 231 678 l 1,56,-1
 231 713 l 1,57,58
 271 717 271 717 288 723 c 0,59,60
 319 735 319 735 327 762 c 0,61,62
 334 786 334 786 334 844 c 2,63,-1
 334 1425 l 1,64,-1
 254 1425 l 2,65,66
 166 1425 166 1425 126 1398 c 0,67,68
 81 1367 81 1367 66 1284 c 1,69,-1
 31 1284 l 1,70,-1
 51 1485 l 1,71,-1
 780 1485 l 1,72,-1
 803 1284 l 1,44,-1
EndSplineSet
Validated: 1
EndChar

StartChar: fathalow
Encoding: 59424 59424 259
Width: 915
Flags: W
LayerCount: 2
Fore
SplineSet
895 2061 m 1,0,-1
 695 1861 l 1,1,-1
 220 1886 l 1,2,-1
 195 1811 l 1,3,4
 70 1686 70 1686 -5 1561 c 1,5,6
 395 1711 395 1711 745 1686 c 1,7,8
 870 1886 870 1886 920 2061 c 1,9,-1
 895 2061 l 1,0,-1
EndSplineSet
Validated: 41
EndChar

StartChar: dammalow
Encoding: 59425 59425 260
Width: 1256
Flags: W
LayerCount: 2
Fore
SplineSet
770 1954 m 1,1,-1
 770 1655 l 1,2,3
 683 1520 683 1520 572 1646 c 1,4,-1
 573 1952 l 1,5,6
 445 2107 445 2107 357 1950 c 1,7,8
 355 1776 355 1776 356 1590 c 1,9,10
 119 1594 119 1594 -28 1588 c 1,11,-1
 -28 1402 l 1,12,-1
 247 1400 l 1,13,14
 323 1412 323 1412 357 1496 c 1,15,-1
 405 1430 l 1,16,-1
 480 1401 l 1,17,-1
 760 1402 l 1,18,19
 977 1386 977 1386 993 1614 c 1,20,-1
 991 1961 l 1,21,0
 854 2109 854 2109 770 1954 c 1,1,-1
EndSplineSet
Validated: 41
EndChar

StartChar: sukunlow
Encoding: 59426 59426 261
Width: 653
Flags: W
LayerCount: 2
Fore
SplineSet
288 567 m 1,0,1
 589 642 589 642 288 717 c 1,2,-1
 199 642 l 1,3,-1
 288 567 l 1,0,1
512 526 m 1,5,-1
 509 216 l 1,6,-1
 -28 216 l 1,7,-1
 54 16 l 1,8,-1
 655 16 l 1,9,-1
 655 457 l 1,10,-1
 654 528 l 1,11,4
 570 620 570 620 512 526 c 1,5,-1
EndSplineSet
Validated: 41
EndChar

StartChar: fathatanlow
Encoding: 59427 59427 262
Width: 398
Flags: W
LayerCount: 2
Fore
SplineSet
60 1419 m 1,0,1
 185 1444 185 1444 185 1569 c 1,2,3
 460 1544 460 1544 385 1869 c 1,4,-1
 310 1869 l 1,5,6
 360 1669 360 1669 185 1644 c 1,7,8
 185 1844 185 1844 60 1869 c 1,9,-1
 60 1419 l 1,0,1
EndSplineSet
Validated: 41
EndChar

StartChar: dammatanlow
Encoding: 59428 59428 263
Width: 569
Flags: W
LayerCount: 2
Fore
SplineSet
349 1958 m 1,0,1
 322 1945 322 1945 271 1905 c 1,2,-1
 233 1863 l 2,3,4
 216 1843 216 1843 216 1836 c 0,5,6
 216 1821 216 1821 235 1805 c 2,7,-1
 302 1747 l 2,8,9
 331 1722 331 1722 331 1690 c 0,10,11
 331 1657 331 1657 309 1637 c 2,12,-1
 204 1544 l 2,13,14
 157 1503 157 1503 76 1503 c 0,15,16
 39 1503 39 1503 16 1514 c 1,17,18
 52 1520 52 1520 86 1555 c 2,19,-1
 124 1595 l 2,20,21
 152 1624 152 1624 152 1640 c 0,22,23
 152 1650 152 1650 125 1674 c 2,24,-1
 71 1723 l 2,25,26
 35 1756 35 1756 35 1786 c 0,27,28
 35 1817 35 1817 73 1851 c 2,29,-1
 162 1928 l 2,30,31
 201 1962 201 1962 292 1962 c 0,32,33
 316 1962 316 1962 349 1958 c 1,0,1
EndSplineSet
Validated: 1
EndChar

StartChar: shaddalow
Encoding: 59429 59429 264
Width: 1284
Flags: W
LayerCount: 2
Fore
SplineSet
0 1662 m 1,0,-1
 450 1662 l 1,1,-1
 450 2024 l 1,2,-1
 372 2016 l 1,3,4
 375 1575 375 1575 254 1888 c 1,5,-1
 195 1888 l 1,6,7
 195 1732 195 1732 78 1791 c 1,8,9
 137 1985 137 1985 0 2024 c 1,10,-1
 0 1662 l 1,0,-1
EndSplineSet
Validated: 41
EndChar

StartChar: kasralow
Encoding: 59430 59430 265
Width: 550
Flags: W
LayerCount: 2
Fore
SplineSet
319 75 m 1,0,-1
 374 24 l 1,1,-1
 488 0 l 1,2,-1
 1191 -4 l 1,3,-1
 1191 221 l 1,4,-1
 578 221 l 1,5,-1
 485 242 l 1,6,-1
 501 335 l 1,7,-1
 505 1238 l 1,8,-1
 0 772 l 1,9,-1
 763 1058 l 1,10,11
 891 1298 891 1298 684 1400 c 128,-1,12
 477 1502 477 1502 275 1246 c 1,13,-1
 277 229 l 1,14,-1
 292 134 l 1,15,-1
 319 75 l 1,0,-1
641 1150 m 128,-1,17
 616 1140 616 1140 593 1140 c 0,18,19
 509 1140 509 1140 509 1230 c 0,20,21
 509 1266 509 1266 526 1291.5 c 128,-1,22
 543 1317 543 1317 569 1317 c 0,23,24
 623 1323 623 1323 667 1271 c 1,25,26
 675 1218 675 1218 671 1193 c 0,27,16
 666 1160 666 1160 641 1150 c 128,-1,17
EndSplineSet
Validated: 37
EndChar

StartChar: kasratanlow
Encoding: 59431 59431 266
Width: 1139
Flags: W
LayerCount: 2
Fore
SplineSet
213 165 m 1,1,-1
 -35 164 l 1,2,-1
 57 -1 l 1,3,-1
 1048 -1 l 1,4,5
 1230 229 1230 229 1151.5 419 c 128,-1,6
 1073 609 1073 609 859.5 645 c 128,-1,7
 646 681 646 681 536.5 465.5 c 128,-1,0
 427 250 427 250 213 165 c 1,1,-1
946 414.5 m 128,-1,9
 1023 298 1023 298 897 212 c 1,10,-1
 506 212 l 1,11,12
 635 292 635 292 713 435 c 1,13,8
 869 531 869 531 946 414.5 c 128,-1,9
EndSplineSet
Validated: 41
EndChar

StartChar: shaddawithfathaisolatedlow
Encoding: 59432 59432 267
Width: 420
Flags: W
LayerCount: 2
Fore
SplineSet
408 1552 m 1,0,1
 408 1486 408 1486 373 1466 c 2,2,-1
 70 1294 l 1,3,4
 73 1335 73 1335 84.5 1353.5 c 128,-1,5
 96 1372 96 1372 136 1395 c 2,6,-1
 408 1552 l 1,0,1
420 1263 m 0,7,8
 420 1095 420 1095 316 1095 c 0,9,10
 281 1095 281 1095 252 1116 c 1,11,12
 244 1082 244 1082 213 1056 c 128,-1,13
 182 1030 182 1030 148 1030 c 0,14,15
 66 1030 66 1030 66 1138 c 0,16,17
 66 1160 66 1160 88 1239 c 1,18,-1
 111 1243 l 1,19,20
 111 1132 111 1132 150 1132 c 0,21,22
 214 1132 214 1132 240 1294 c 1,23,-1
 258 1300 l 1,24,25
 281 1202 281 1202 316 1202 c 0,26,27
 374 1202 374 1202 383 1349 c 1,28,-1
 406 1359 l 1,29,30
 420 1304 420 1304 420 1263 c 0,7,8
EndSplineSet
Validated: 1
EndChar

StartChar: shaddawithdammaisolatedlow
Encoding: 59433 59433 268
Width: 420
Flags: W
LayerCount: 2
Fore
SplineSet
414 1503 m 1,0,-1
 406 1404 l 1,1,-1
 326 1456 l 1,2,3
 206 1312 206 1312 129 1312 c 0,4,5
 110 1312 110 1312 70 1324 c 1,6,7
 172 1381 172 1381 283 1480 c 1,8,9
 222 1525 222 1525 222 1570 c 0,10,11
 222 1630 222 1630 267 1695 c 0,12,13
 297 1738 297 1738 338 1738 c 0,14,15
 406 1738 406 1738 406 1650 c 0,16,17
 406 1602 406 1602 375 1533 c 1,18,19
 389 1523 389 1523 414 1503 c 1,0,-1
420 1263 m 0,20,21
 420 1095 420 1095 316 1095 c 0,22,23
 281 1095 281 1095 252 1116 c 1,24,25
 244 1082 244 1082 213 1056 c 128,-1,26
 182 1030 182 1030 148 1030 c 0,27,28
 66 1030 66 1030 66 1138 c 0,29,30
 66 1160 66 1160 88 1239 c 1,31,-1
 111 1243 l 1,32,33
 111 1132 111 1132 150 1132 c 0,34,35
 214 1132 214 1132 240 1294 c 1,36,-1
 258 1300 l 1,37,38
 281 1202 281 1202 316 1202 c 0,39,40
 374 1202 374 1202 383 1349 c 1,41,-1
 406 1359 l 1,42,43
 420 1304 420 1304 420 1263 c 0,20,21
344 1591 m 0,44,45
 344 1614 344 1614 328 1633 c 128,-1,46
 312 1652 312 1652 291 1652 c 0,47,48
 273 1652 273 1652 273 1632 c 0,49,50
 273 1601 273 1601 338 1557 c 1,51,52
 344 1577 344 1577 344 1591 c 0,44,45
EndSplineSet
Validated: 1
EndChar

StartChar: shaddawithfathatanisolatedlow
Encoding: 59434 59434 269
Width: 420
Flags: W
LayerCount: 2
Fore
SplineSet
408 1686 m 1,0,1
 408 1620 408 1620 373 1600 c 2,2,-1
 70 1428 l 1,3,4
 73 1469 73 1469 84.5 1487.5 c 128,-1,5
 96 1506 96 1506 136 1529 c 2,6,-1
 408 1686 l 1,0,1
408 1540 m 1,7,8
 408 1474 408 1474 373 1454 c 2,9,-1
 70 1282 l 1,10,11
 73 1323 73 1323 84.5 1341.5 c 128,-1,12
 96 1360 96 1360 136 1383 c 2,13,-1
 408 1540 l 1,7,8
420 1263 m 0,14,15
 420 1095 420 1095 316 1095 c 0,16,17
 281 1095 281 1095 252 1116 c 1,18,19
 244 1082 244 1082 213 1056 c 128,-1,20
 182 1030 182 1030 148 1030 c 0,21,22
 66 1030 66 1030 66 1138 c 0,23,24
 66 1160 66 1160 88 1239 c 1,25,-1
 111 1243 l 1,26,27
 111 1132 111 1132 150 1132 c 0,28,29
 214 1132 214 1132 240 1294 c 1,30,-1
 258 1300 l 1,31,32
 281 1202 281 1202 316 1202 c 0,33,34
 374 1202 374 1202 383 1349 c 1,35,-1
 406 1359 l 1,36,37
 420 1304 420 1304 420 1263 c 0,14,15
EndSplineSet
Validated: 1
EndChar

StartChar: shaddawithdammatanisolatedlow
Encoding: 59435 59435 270
Width: 469
Flags: W
LayerCount: 2
Fore
SplineSet
469 1459 m 0,0,1
 469 1424 469 1424 467 1400 c 1,2,3
 427 1421 427 1421 375 1459 c 1,4,5
 251 1330 251 1330 135 1314 c 1,6,7
 178 1405 178 1405 178 1443 c 0,8,9
 178 1498 178 1498 129 1498 c 0,10,11
 87 1498 87 1498 80 1422 c 1,12,13
 70 1453 70 1453 70 1474 c 0,14,15
 70 1520 70 1520 94.5 1552 c 128,-1,16
 119 1584 119 1584 154 1584 c 0,17,18
 221 1584 221 1584 221 1484 c 1,19,-1
 215 1392 l 1,20,21
 280 1417 280 1417 339 1482 c 1,22,23
 273 1526 273 1526 273 1576 c 0,24,25
 273 1628 273 1628 313 1675.5 c 128,-1,26
 353 1723 353 1723 395 1723 c 0,27,28
 418 1723 418 1723 440.5 1696.5 c 128,-1,29
 463 1670 463 1670 463 1643 c 0,30,31
 463 1613 463 1613 452 1585 c 128,-1,32
 441 1557 441 1557 430 1529 c 1,33,34
 469 1499 469 1499 469 1459 c 0,0,1
455 1263 m 0,35,36
 455 1095 455 1095 351 1095 c 0,37,38
 316 1095 316 1095 287 1116 c 1,39,40
 279 1082 279 1082 248 1056 c 128,-1,41
 217 1030 217 1030 183 1030 c 0,42,43
 101 1030 101 1030 101 1138 c 0,44,45
 101 1160 101 1160 123 1239 c 1,46,-1
 146 1243 l 1,47,48
 146 1132 146 1132 185 1132 c 0,49,50
 249 1132 249 1132 275 1294 c 1,51,-1
 293 1300 l 1,52,53
 316 1202 316 1202 351 1202 c 0,54,55
 409 1202 409 1202 418 1349 c 1,56,-1
 441 1359 l 1,57,58
 455 1304 455 1304 455 1263 c 0,35,36
393 1603 m 0,59,60
 393 1656 393 1656 352 1656 c 0,61,62
 326 1656 326 1656 326 1633 c 0,63,64
 326 1608 326 1608 389 1564 c 1,65,66
 393 1576 393 1576 393 1603 c 0,59,60
EndSplineSet
Validated: 1
EndChar

